<?xml version="1.0" encoding="UTF-8"?>
<svg xmlns="http://www.w3.org/2000/svg" xmlns:xlink="http://www.w3.org/1999/xlink" width="32" height="23pt" viewBox="0 0 32 23" version="1.1">
<g id="surface1">
<path style=" stroke:none;fill-rule:nonzero;fill:rgb(18.823529%,24.313725%,28.235294%);fill-opacity:1;" d="M 4.429688 21.277344 C 4.320312 21.386719 4.175781 21.4375 4.019531 21.4375 C 3.613281 21.4375 3.441406 21.160156 3.441406 20.878906 C 3.441406 20.597656 3.625 20.3125 4.019531 20.3125 C 4.164062 20.3125 4.304688 20.367188 4.417969 20.476562 L 4.28125 20.609375 C 4.210938 20.539062 4.113281 20.503906 4.019531 20.503906 C 3.753906 20.503906 3.640625 20.699219 3.644531 20.878906 C 3.644531 21.058594 3.75 21.246094 4.019531 21.246094 C 4.113281 21.246094 4.21875 21.207031 4.292969 21.136719 Z M 4.429688 21.277344 "/>
<path style=" stroke:none;fill-rule:nonzero;fill:rgb(18.823529%,24.313725%,28.235294%);fill-opacity:1;" d="M 4.988281 20.558594 L 4.785156 21.019531 L 5.1875 21.019531 Z M 5.269531 21.207031 L 4.703125 21.207031 L 4.609375 21.410156 L 4.386719 21.410156 L 4.875 20.332031 L 5.097656 20.332031 L 5.585938 21.410156 L 5.363281 21.410156 Z M 5.269531 21.207031 "/>
<path style=" stroke:none;fill-rule:nonzero;fill:rgb(18.823529%,24.313725%,28.235294%);fill-opacity:1;" d="M 5.664062 20.332031 L 5.867188 20.332031 L 5.867188 21.410156 L 5.664062 21.410156 Z M 5.664062 20.332031 "/>
<path style=" stroke:none;fill-rule:nonzero;fill:rgb(18.823529%,24.313725%,28.235294%);fill-opacity:1;" d="M 6.761719 20.59375 C 6.726562 20.53125 6.625 20.472656 6.503906 20.472656 C 6.351562 20.472656 6.28125 20.535156 6.28125 20.617188 C 6.28125 20.710938 6.390625 20.738281 6.523438 20.753906 C 6.75 20.78125 6.960938 20.839844 6.960938 21.09375 C 6.960938 21.335938 6.746094 21.4375 6.503906 21.4375 C 6.28125 21.4375 6.109375 21.371094 6.03125 21.175781 L 6.199219 21.085938 C 6.25 21.203125 6.375 21.257812 6.507812 21.257812 C 6.636719 21.257812 6.757812 21.214844 6.757812 21.09375 C 6.757812 20.992188 6.648438 20.953125 6.503906 20.9375 C 6.285156 20.910156 6.078125 20.851562 6.078125 20.609375 C 6.078125 20.390625 6.296875 20.296875 6.5 20.296875 C 6.667969 20.296875 6.84375 20.34375 6.925781 20.511719 Z M 6.761719 20.59375 "/>
<path style=" stroke:none;fill-rule:nonzero;fill:rgb(18.823529%,24.313725%,28.235294%);fill-opacity:1;" d="M 7.792969 20.59375 C 7.753906 20.53125 7.652344 20.472656 7.53125 20.472656 C 7.382812 20.472656 7.308594 20.535156 7.308594 20.617188 C 7.308594 20.710938 7.417969 20.738281 7.550781 20.753906 C 7.777344 20.78125 7.988281 20.839844 7.988281 21.09375 C 7.988281 21.335938 7.773438 21.4375 7.53125 21.4375 C 7.308594 21.4375 7.136719 21.371094 7.058594 21.175781 L 7.226562 21.085938 C 7.277344 21.203125 7.402344 21.257812 7.535156 21.257812 C 7.664062 21.257812 7.785156 21.214844 7.785156 21.09375 C 7.785156 20.992188 7.675781 20.953125 7.53125 20.9375 C 7.3125 20.910156 7.105469 20.851562 7.105469 20.609375 C 7.105469 20.390625 7.328125 20.296875 7.527344 20.296875 C 7.695312 20.296875 7.871094 20.34375 7.953125 20.511719 Z M 7.792969 20.59375 "/>
<path style=" stroke:none;fill-rule:nonzero;fill:rgb(18.823529%,24.313725%,28.235294%);fill-opacity:1;" d="M 8.957031 21.410156 L 8.144531 21.410156 L 8.144531 20.332031 L 8.957031 20.332031 L 8.957031 20.53125 L 8.347656 20.53125 L 8.347656 20.777344 L 8.9375 20.777344 L 8.9375 20.96875 L 8.347656 20.96875 L 8.347656 21.210938 L 8.957031 21.210938 Z M 8.957031 21.410156 "/>
<path style=" stroke:none;fill-rule:nonzero;fill:rgb(18.823529%,24.313725%,28.235294%);fill-opacity:1;" d="M 9.621094 21.214844 L 9.84375 21.214844 C 10.089844 21.214844 10.191406 21.039062 10.183594 20.863281 C 10.179688 20.695312 10.082031 20.527344 9.84375 20.527344 L 9.621094 20.527344 Z M 10.386719 20.863281 C 10.394531 21.136719 10.226562 21.410156 9.84375 21.410156 L 9.417969 21.410156 L 9.417969 20.332031 L 9.84375 20.332031 C 10.21875 20.332031 10.382812 20.597656 10.386719 20.863281 "/>
<path style=" stroke:none;fill-rule:nonzero;fill:rgb(18.823529%,24.313725%,28.235294%);fill-opacity:1;" d="M 11.335938 21.410156 L 10.519531 21.410156 L 10.519531 20.332031 L 11.335938 20.332031 L 11.335938 20.53125 L 10.722656 20.53125 L 10.722656 20.777344 L 11.3125 20.777344 L 11.3125 20.96875 L 10.722656 20.96875 L 10.722656 21.210938 L 11.335938 21.210938 Z M 11.335938 21.410156 "/>
<path style=" stroke:none;fill-rule:nonzero;fill:rgb(18.823529%,24.313725%,28.235294%);fill-opacity:1;" d="M 11.996094 21.214844 L 12.222656 21.214844 C 12.46875 21.214844 12.566406 21.039062 12.5625 20.863281 C 12.558594 20.695312 12.457031 20.527344 12.222656 20.527344 L 11.996094 20.527344 Z M 12.765625 20.863281 C 12.769531 21.136719 12.601562 21.410156 12.222656 21.410156 L 11.792969 21.410156 L 11.792969 20.332031 L 12.222656 20.332031 C 12.59375 20.332031 12.761719 20.597656 12.765625 20.863281 "/>
<path style=" stroke:none;fill-rule:nonzero;fill:rgb(18.823529%,24.313725%,28.235294%);fill-opacity:1;" d="M 13.5625 20.003906 L 13.335938 20.003906 L 13.222656 20.214844 L 13.222656 20.222656 L 13.390625 20.222656 L 13.5625 20.011719 Z M 13.710938 21.410156 L 12.898438 21.410156 L 12.898438 20.332031 L 13.710938 20.332031 L 13.710938 20.53125 L 13.101562 20.53125 L 13.101562 20.777344 L 13.691406 20.777344 L 13.691406 20.96875 L 13.101562 20.96875 L 13.101562 21.210938 L 13.710938 21.210938 Z M 13.710938 21.410156 "/>
<path style=" stroke:none;fill-rule:nonzero;fill:rgb(18.823529%,24.313725%,28.235294%);fill-opacity:1;" d="M 14.070312 20.90625 L 14.375 20.90625 C 14.636719 20.90625 14.636719 20.527344 14.375 20.527344 L 14.070312 20.527344 Z M 14.375 21.09375 L 14.070312 21.09375 L 14.070312 21.410156 L 13.863281 21.410156 L 13.863281 20.332031 C 14.035156 20.332031 14.203125 20.332031 14.375 20.332031 C 14.90625 20.332031 14.910156 21.09375 14.375 21.09375 "/>
<path style=" stroke:none;fill-rule:nonzero;fill:rgb(18.823529%,24.313725%,28.235294%);fill-opacity:1;" d="M 15.390625 19.996094 L 15.496094 19.996094 L 15.726562 20.207031 L 15.726562 20.214844 L 15.53125 20.214844 L 15.441406 20.125 L 15.355469 20.214844 L 15.160156 20.214844 L 15.160156 20.207031 Z M 15.066406 20.882812 C 15.074219 21.058594 15.167969 21.25 15.425781 21.25 C 15.683594 21.25 15.777344 21.058594 15.78125 20.882812 C 15.785156 20.699219 15.683594 20.496094 15.425781 20.496094 C 15.167969 20.496094 15.0625 20.703125 15.066406 20.882812 M 15.984375 20.878906 C 15.980469 21.15625 15.808594 21.4375 15.425781 21.4375 C 15.042969 21.4375 14.867188 21.164062 14.867188 20.878906 C 14.867188 20.597656 15.050781 20.3125 15.425781 20.3125 C 15.800781 20.3125 15.988281 20.597656 15.984375 20.878906 "/>
<path style=" stroke:none;fill-rule:nonzero;fill:rgb(18.823529%,24.313725%,28.235294%);fill-opacity:1;" d="M 16.351562 20.519531 L 16.007812 20.519531 L 16.007812 20.332031 L 16.902344 20.332031 L 16.902344 20.519531 L 16.558594 20.519531 L 16.558594 21.410156 L 16.351562 21.410156 Z M 16.351562 20.519531 "/>
<path style=" stroke:none;fill-rule:nonzero;fill:rgb(18.823529%,24.313725%,28.235294%);fill-opacity:1;" d="M 18.152344 21.410156 L 17.335938 21.410156 L 17.335938 20.332031 L 18.152344 20.332031 L 18.152344 20.53125 L 17.542969 20.53125 L 17.542969 20.777344 L 18.128906 20.777344 L 18.128906 20.96875 L 17.542969 20.96875 L 17.542969 21.210938 L 18.152344 21.210938 Z M 18.152344 21.410156 "/>
<path style=" stroke:none;fill-rule:nonzero;fill:rgb(18.823529%,24.313725%,28.235294%);fill-opacity:1;" d="M 18.65625 20.519531 L 18.3125 20.519531 L 18.3125 20.332031 L 19.207031 20.332031 L 19.207031 20.519531 L 18.859375 20.519531 L 18.859375 21.410156 L 18.65625 21.410156 Z M 18.65625 20.519531 "/>
<path style=" stroke:none;fill-rule:nonzero;fill:rgb(18.823529%,24.313725%,28.235294%);fill-opacity:1;" d="M 19.835938 21.214844 L 20.058594 21.214844 C 20.304688 21.214844 20.402344 21.039062 20.398438 20.863281 C 20.394531 20.695312 20.292969 20.527344 20.058594 20.527344 L 19.835938 20.527344 Z M 20.601562 20.863281 C 20.605469 21.136719 20.4375 21.410156 20.058594 21.410156 L 19.628906 21.410156 L 19.628906 20.332031 L 20.058594 20.332031 C 20.429688 20.332031 20.597656 20.597656 20.601562 20.863281 "/>
<path style=" stroke:none;fill-rule:nonzero;fill:rgb(18.823529%,24.313725%,28.235294%);fill-opacity:1;" d="M 21.546875 21.410156 L 20.734375 21.410156 L 20.734375 20.332031 L 21.546875 20.332031 L 21.546875 20.53125 L 20.9375 20.53125 L 20.9375 20.777344 L 21.527344 20.777344 L 21.527344 20.96875 L 20.9375 20.96875 L 20.9375 21.210938 L 21.546875 21.210938 Z M 21.546875 21.410156 "/>
<path style=" stroke:none;fill-rule:nonzero;fill:rgb(18.823529%,24.313725%,28.235294%);fill-opacity:1;" d="M 22.828125 20.597656 C 22.757812 20.527344 22.648438 20.488281 22.554688 20.488281 C 22.320312 20.488281 22.179688 20.664062 22.179688 20.886719 C 22.179688 21.0625 22.28125 21.246094 22.554688 21.246094 C 22.636719 21.246094 22.714844 21.226562 22.796875 21.160156 L 22.796875 20.96875 L 22.519531 20.96875 L 22.519531 20.789062 L 22.984375 20.789062 L 22.984375 21.242188 C 22.878906 21.363281 22.742188 21.4375 22.554688 21.4375 C 22.144531 21.4375 21.976562 21.167969 21.976562 20.886719 C 21.976562 20.582031 22.167969 20.300781 22.554688 20.300781 C 22.699219 20.300781 22.84375 20.359375 22.957031 20.46875 Z M 22.828125 20.597656 "/>
<path style=" stroke:none;fill-rule:nonzero;fill:rgb(18.823529%,24.313725%,28.235294%);fill-opacity:1;" d="M 23.964844 21.410156 L 23.152344 21.410156 L 23.152344 20.332031 L 23.964844 20.332031 L 23.964844 20.53125 L 23.355469 20.53125 L 23.355469 20.777344 L 23.945312 20.777344 L 23.945312 20.96875 L 23.355469 20.96875 L 23.355469 21.210938 L 23.964844 21.210938 Z M 23.964844 21.410156 "/>
<path style=" stroke:none;fill-rule:nonzero;fill:rgb(18.823529%,24.313725%,28.235294%);fill-opacity:1;" d="M 24.828125 20.59375 C 24.792969 20.53125 24.6875 20.472656 24.570312 20.472656 C 24.417969 20.472656 24.34375 20.535156 24.34375 20.617188 C 24.34375 20.710938 24.457031 20.738281 24.585938 20.753906 C 24.8125 20.78125 25.027344 20.839844 25.027344 21.09375 C 25.027344 21.335938 24.8125 21.4375 24.570312 21.4375 C 24.347656 21.4375 24.175781 21.371094 24.09375 21.175781 L 24.265625 21.085938 C 24.3125 21.203125 24.441406 21.257812 24.574219 21.257812 C 24.699219 21.257812 24.820312 21.214844 24.820312 21.09375 C 24.820312 20.992188 24.714844 20.953125 24.570312 20.9375 C 24.347656 20.910156 24.144531 20.851562 24.144531 20.609375 C 24.144531 20.390625 24.363281 20.296875 24.566406 20.296875 C 24.734375 20.296875 24.910156 20.34375 24.992188 20.511719 Z M 24.828125 20.59375 "/>
<path style=" stroke:none;fill-rule:nonzero;fill:rgb(18.823529%,24.313725%,28.235294%);fill-opacity:1;" d="M 25.464844 20.519531 L 25.121094 20.519531 L 25.121094 20.332031 L 26.015625 20.332031 L 26.015625 20.519531 L 25.671875 20.519531 L 25.671875 21.410156 L 25.464844 21.410156 Z M 25.464844 20.519531 "/>
<path style=" stroke:none;fill-rule:nonzero;fill:rgb(18.823529%,24.313725%,28.235294%);fill-opacity:1;" d="M 26.140625 20.332031 L 26.347656 20.332031 L 26.347656 21.410156 L 26.140625 21.410156 Z M 26.140625 20.332031 "/>
<path style=" stroke:none;fill-rule:nonzero;fill:rgb(18.823529%,24.313725%,28.235294%);fill-opacity:1;" d="M 26.726562 20.882812 C 26.730469 21.058594 26.828125 21.25 27.082031 21.25 C 27.339844 21.25 27.433594 21.058594 27.4375 20.882812 C 27.441406 20.699219 27.339844 20.496094 27.082031 20.496094 C 26.828125 20.496094 26.71875 20.703125 26.726562 20.882812 M 27.640625 20.878906 C 27.636719 21.15625 27.464844 21.4375 27.082031 21.4375 C 26.699219 21.4375 26.523438 21.164062 26.523438 20.878906 C 26.523438 20.597656 26.707031 20.3125 27.082031 20.3125 C 27.457031 20.3125 27.644531 20.597656 27.640625 20.878906 "/>
<path style=" stroke:none;fill-rule:nonzero;fill:rgb(18.823529%,24.313725%,28.235294%);fill-opacity:1;" d="M 28.507812 20.332031 L 28.710938 20.332031 L 28.710938 21.410156 L 28.585938 21.410156 L 28.585938 21.414062 L 28.011719 20.683594 L 28.011719 21.410156 L 27.808594 21.410156 L 27.808594 20.332031 L 27.972656 20.332031 L 28.507812 21 Z M 28.507812 20.332031 "/>
<path style=" stroke:none;fill-rule:nonzero;fill:rgb(18.823529%,24.313725%,28.235294%);fill-opacity:1;" d="M 9.253906 18.046875 L 9.496094 18.046875 L 9.496094 17.800781 L 9.253906 17.800781 Z M 9.253906 18.046875 "/>
<path style=" stroke:none;fill-rule:nonzero;fill:rgb(18.823529%,24.313725%,28.235294%);fill-opacity:1;" d="M 8.90625 18.046875 L 9.148438 18.046875 L 9.148438 17.800781 L 8.90625 17.800781 Z M 8.90625 18.046875 "/>
<path style=" stroke:none;fill-rule:nonzero;fill:rgb(18.823529%,24.313725%,28.235294%);fill-opacity:1;" d="M 9.796875 17.40625 L 9.496094 17.40625 L 9.496094 16.726562 L 9.253906 16.726562 L 9.253906 17.40625 L 7.925781 17.40625 L 7.925781 16.726562 L 7.683594 16.726562 L 7.683594 17.644531 C 7.683594 17.753906 7.625 17.808594 7.503906 17.808594 L 7.472656 17.808594 L 7.472656 18.046875 L 7.503906 18.046875 C 7.726562 18.046875 7.914062 17.960938 7.925781 17.648438 L 10.042969 17.648438 L 10.042969 16.726562 L 9.796875 16.726562 Z M 9.796875 17.40625 "/>
<path style=" stroke:none;fill-rule:nonzero;fill:rgb(18.823529%,24.313725%,28.235294%);fill-opacity:1;" d="M 9.796875 18.046875 L 10.042969 18.046875 L 10.042969 17.800781 L 9.796875 17.800781 Z M 9.796875 18.046875 "/>
<path style=" stroke:none;fill-rule:nonzero;fill:rgb(18.823529%,24.313725%,28.235294%);fill-opacity:1;" d="M 11.425781 16.335938 L 11.179688 16.335938 L 11.179688 16.578125 L 11.425781 16.578125 Z M 11.425781 16.335938 "/>
<path style=" stroke:none;fill-rule:nonzero;fill:rgb(18.823529%,24.313725%,28.235294%);fill-opacity:1;" d="M 11.773438 16.335938 L 11.527344 16.335938 L 11.527344 16.578125 L 11.773438 16.578125 Z M 11.773438 16.335938 "/>
<path style=" stroke:none;fill-rule:nonzero;fill:rgb(18.823529%,24.313725%,28.235294%);fill-opacity:1;" d="M 12.074219 17.40625 L 11.773438 17.40625 L 11.773438 16.726562 L 11.527344 16.726562 L 11.527344 17.40625 L 11.011719 17.40625 L 11.011719 17.257812 C 11.011719 17.058594 10.945312 16.914062 10.8125 16.824219 C 10.71875 16.757812 10.609375 16.726562 10.476562 16.726562 L 10.398438 16.726562 L 10.398438 16.96875 C 10.484375 16.96875 10.546875 16.976562 10.582031 16.988281 C 10.621094 17 10.65625 17.019531 10.691406 17.046875 C 10.742188 17.089844 10.765625 17.160156 10.765625 17.261719 L 10.765625 17.40625 L 10.226562 17.40625 L 10.226562 17.648438 L 12.316406 17.648438 L 12.316406 16.332031 L 12.074219 16.332031 Z M 12.074219 17.40625 "/>
<path style=" stroke:none;fill-rule:nonzero;fill:rgb(18.823529%,24.313725%,28.235294%);fill-opacity:1;" d="M 12.5 17.648438 L 12.746094 17.648438 L 12.746094 16.335938 L 12.5 16.335938 Z M 12.5 17.648438 "/>
<path style=" stroke:none;fill-rule:nonzero;fill:rgb(18.823529%,24.313725%,28.235294%);fill-opacity:1;" d="M 13.375 17.40625 L 13.3125 17.40625 C 13.222656 17.40625 13.179688 17.355469 13.179688 17.257812 L 13.179688 17.117188 C 13.179688 17.019531 13.222656 16.96875 13.3125 16.96875 L 13.375 16.96875 Z M 12.933594 17.09375 L 12.933594 17.277344 C 12.933594 17.5 13.09375 17.648438 13.320312 17.648438 L 13.375 17.648438 L 13.375 17.71875 C 13.375 17.738281 13.371094 17.757812 13.363281 17.769531 C 13.347656 17.792969 13.320312 17.800781 13.269531 17.800781 L 12.933594 17.800781 L 12.933594 18.046875 L 13.25 18.046875 C 13.488281 18.046875 13.621094 17.917969 13.621094 17.6875 L 13.621094 16.726562 L 13.320312 16.726562 C 13.09375 16.726562 12.933594 16.878906 12.933594 17.09375 "/>
<path style=" stroke:none;fill-rule:nonzero;fill:rgb(18.823529%,24.313725%,28.235294%);fill-opacity:1;" d="M 14.429688 17.726562 C 14.429688 17.675781 14.460938 17.648438 14.523438 17.648438 L 15.03125 17.648438 L 15.03125 17.40625 L 14.804688 17.40625 C 14.722656 17.40625 14.660156 17.394531 14.628906 17.367188 C 14.570312 17.324219 14.539062 17.265625 14.539062 17.191406 C 14.539062 17.054688 14.632812 16.96875 14.773438 16.96875 L 15.035156 16.96875 L 15.035156 16.726562 L 14.761719 16.726562 C 14.628906 16.726562 14.519531 16.773438 14.429688 16.863281 C 14.335938 16.953125 14.292969 17.066406 14.292969 17.199219 C 14.292969 17.285156 14.320312 17.363281 14.375 17.429688 C 14.25 17.496094 14.1875 17.589844 14.1875 17.71875 C 14.1875 17.851562 14.273438 17.980469 14.390625 18.019531 C 14.4375 18.039062 14.507812 18.046875 14.59375 18.046875 L 15.09375 18.046875 L 15.09375 17.800781 L 14.523438 17.800781 C 14.460938 17.800781 14.429688 17.777344 14.429688 17.726562 "/>
<path style=" stroke:none;fill-rule:nonzero;fill:rgb(18.823529%,24.313725%,28.235294%);fill-opacity:1;" d="M 15.277344 17.648438 L 15.523438 17.648438 L 15.523438 16.335938 L 15.277344 16.335938 Z M 15.277344 17.648438 "/>
<path style=" stroke:none;fill-rule:nonzero;fill:rgb(18.823529%,24.313725%,28.235294%);fill-opacity:1;" d="M 17.011719 17.40625 L 16.5 17.40625 L 16.5 17.257812 C 16.5 17.058594 16.429688 16.914062 16.296875 16.824219 C 16.203125 16.757812 16.09375 16.726562 15.960938 16.726562 L 15.882812 16.726562 L 15.882812 16.96875 C 15.96875 16.96875 16.03125 16.976562 16.070312 16.988281 C 16.109375 17 16.144531 17.019531 16.175781 17.046875 C 16.226562 17.089844 16.25 17.160156 16.25 17.261719 L 16.25 17.40625 L 15.710938 17.40625 L 15.710938 17.648438 L 17.257812 17.648438 L 17.257812 16.726562 L 17.011719 16.726562 Z M 17.011719 17.40625 "/>
<path style=" stroke:none;fill-rule:nonzero;fill:rgb(18.823529%,24.313725%,28.235294%);fill-opacity:1;" d="M 17.011719 18.046875 L 17.257812 18.046875 L 17.257812 17.800781 L 17.011719 17.800781 Z M 17.011719 18.046875 "/>
<path style=" stroke:none;fill-rule:nonzero;fill:rgb(18.823529%,24.313725%,28.235294%);fill-opacity:1;" d="M 16.664062 18.046875 L 16.910156 18.046875 L 16.910156 17.800781 L 16.664062 17.800781 Z M 16.664062 18.046875 "/>
<path style=" stroke:none;fill-rule:nonzero;fill:rgb(18.823529%,24.313725%,28.235294%);fill-opacity:1;" d="M 18.230469 17.40625 L 17.988281 17.40625 L 17.988281 16.332031 L 17.742188 16.332031 L 17.742188 17.40625 L 17.441406 17.40625 L 17.441406 17.648438 L 18.480469 17.648438 L 18.480469 16.332031 L 18.230469 16.332031 Z M 18.230469 17.40625 "/>
<path style=" stroke:none;fill-rule:nonzero;fill:rgb(18.823529%,24.313725%,28.235294%);fill-opacity:1;" d="M 17.578125 18.003906 C 17.578125 17.960938 17.597656 17.9375 17.636719 17.9375 L 17.71875 17.9375 L 17.71875 17.84375 L 17.644531 17.84375 C 17.550781 17.84375 17.480469 17.910156 17.480469 18.007812 C 17.480469 18.023438 17.488281 18.042969 17.496094 18.058594 L 17.441406 18.058594 L 17.441406 18.152344 L 17.757812 18.152344 L 17.757812 18.058594 L 17.644531 18.058594 C 17.601562 18.058594 17.578125 18.042969 17.578125 18.003906 "/>
<path style=" stroke:none;fill-rule:nonzero;fill:rgb(18.823529%,24.313725%,28.235294%);fill-opacity:1;" d="M 18.664062 17.648438 L 18.90625 17.648438 L 18.90625 16.335938 L 18.664062 16.335938 Z M 18.664062 17.648438 "/>
<path style=" stroke:none;fill-rule:nonzero;fill:rgb(18.823529%,24.313725%,28.235294%);fill-opacity:1;" d="M 20.164062 16.335938 L 19.917969 16.335938 L 19.917969 16.578125 L 20.164062 16.578125 Z M 20.164062 16.335938 "/>
<path style=" stroke:none;fill-rule:nonzero;fill:rgb(18.823529%,24.313725%,28.235294%);fill-opacity:1;" d="M 20.511719 16.335938 L 20.265625 16.335938 L 20.265625 16.578125 L 20.511719 16.578125 Z M 20.511719 16.335938 "/>
<path style=" stroke:none;fill-rule:nonzero;fill:rgb(18.823529%,24.313725%,28.235294%);fill-opacity:1;" d="M 20.324219 17.40625 C 20.203125 17.347656 20.113281 17.222656 20.113281 17.109375 C 20.113281 17.015625 20.164062 16.96875 20.269531 16.96875 L 20.324219 16.96875 Z M 19.859375 17.105469 C 19.859375 17.382812 20.054688 17.597656 20.324219 17.648438 L 20.324219 17.71875 C 20.316406 17.789062 20.296875 17.800781 20.21875 17.800781 L 19.828125 17.800781 C 19.753906 17.800781 19.734375 17.789062 19.722656 17.71875 L 19.722656 17.054688 L 19.476562 17.054688 L 19.476562 17.6875 C 19.476562 17.917969 19.609375 18.046875 19.851562 18.046875 L 20.195312 18.046875 C 20.4375 18.046875 20.570312 17.917969 20.570312 17.6875 L 20.570312 16.726562 L 20.285156 16.726562 C 19.972656 16.726562 19.859375 16.890625 19.859375 17.105469 "/>
<path style=" stroke:none;fill-rule:nonzero;fill:rgb(18.823529%,24.313725%,28.235294%);fill-opacity:1;" d="M 21.195312 17.40625 L 21.132812 17.40625 C 21.042969 17.40625 21 17.355469 21 17.257812 L 21 17.117188 C 21 17.019531 21.042969 16.96875 21.132812 16.96875 L 21.195312 16.96875 Z M 20.753906 17.09375 L 20.753906 17.277344 C 20.753906 17.5 20.910156 17.648438 21.140625 17.648438 L 21.195312 17.648438 L 21.195312 17.71875 C 21.195312 17.738281 21.1875 17.757812 21.179688 17.769531 C 21.167969 17.792969 21.136719 17.800781 21.089844 17.800781 L 20.753906 17.800781 L 20.753906 18.046875 L 21.066406 18.046875 C 21.308594 18.046875 21.441406 17.917969 21.441406 17.6875 L 21.441406 16.726562 L 21.140625 16.726562 C 20.910156 16.726562 20.753906 16.878906 20.753906 17.09375 "/>
<path style=" stroke:none;fill-rule:nonzero;fill:rgb(18.823529%,24.313725%,28.235294%);fill-opacity:1;" d="M 22.957031 16.335938 L 22.714844 16.335938 L 22.714844 16.578125 L 22.957031 16.578125 Z M 22.957031 16.335938 "/>
<path style=" stroke:none;fill-rule:nonzero;fill:rgb(18.823529%,24.313725%,28.235294%);fill-opacity:1;" d="M 24.4375 17.40625 L 23.882812 17.40625 L 23.882812 16.96875 L 24.304688 16.96875 C 24.394531 16.96875 24.4375 17.019531 24.4375 17.117188 Z M 24.296875 16.726562 L 23.636719 16.726562 L 23.636719 17.40625 L 23.5 17.40625 L 23.5 17.011719 L 23.253906 17.011719 L 23.253906 17.40625 L 22.957031 17.40625 L 22.957031 16.726562 L 22.710938 16.726562 L 22.710938 17.40625 L 22.410156 17.40625 L 22.410156 17.257812 C 22.410156 17.058594 22.34375 16.914062 22.210938 16.824219 C 22.117188 16.757812 22.007812 16.726562 21.875 16.726562 L 21.796875 16.726562 L 21.796875 16.96875 C 21.882812 16.96875 21.945312 16.976562 21.984375 16.988281 C 22.023438 17 22.058594 17.019531 22.089844 17.046875 C 22.140625 17.089844 22.164062 17.160156 22.164062 17.261719 L 22.164062 17.40625 L 21.625 17.40625 L 21.625 17.648438 L 24.679688 17.648438 L 24.679688 17.09375 C 24.679688 16.878906 24.527344 16.726562 24.296875 16.726562 "/>
<path style=" stroke:none;fill-rule:nonzero;fill:rgb(18.823529%,24.313725%,28.235294%);fill-opacity:1;" d="M 6.625 19.292969 L 6.304688 19.292969 L 6.304688 19.710938 L 6.117188 19.710938 L 6.117188 19.292969 L 5.808594 19.292969 L 5.808594 19.113281 L 6.117188 19.113281 L 6.117188 18.691406 L 6.304688 18.691406 L 6.304688 19.105469 L 6.625 19.105469 Z M 6.625 19.292969 "/>
<path style=" stroke:none;fill-rule:nonzero;fill:rgb(18.823529%,24.313725%,28.235294%);fill-opacity:1;" d="M 6.910156 19.453125 C 6.910156 19.464844 6.914062 19.480469 6.921875 19.496094 C 6.929688 19.507812 6.9375 19.519531 6.945312 19.53125 C 6.957031 19.542969 6.972656 19.550781 6.988281 19.554688 C 7 19.5625 7.019531 19.5625 7.035156 19.5625 C 7.050781 19.5625 7.066406 19.5625 7.082031 19.554688 C 7.097656 19.550781 7.109375 19.542969 7.121094 19.53125 C 7.132812 19.519531 7.140625 19.507812 7.144531 19.496094 C 7.152344 19.480469 7.15625 19.464844 7.15625 19.453125 C 7.15625 19.4375 7.152344 19.421875 7.144531 19.40625 C 7.140625 19.394531 7.132812 19.382812 7.121094 19.371094 C 7.109375 19.363281 7.097656 19.355469 7.082031 19.347656 C 7.066406 19.339844 7.050781 19.339844 7.035156 19.339844 C 7.019531 19.339844 7 19.339844 6.988281 19.347656 C 6.972656 19.355469 6.957031 19.363281 6.945312 19.371094 C 6.9375 19.382812 6.929688 19.394531 6.921875 19.40625 C 6.914062 19.421875 6.910156 19.4375 6.910156 19.453125 M 6.769531 19.460938 C 6.769531 19.425781 6.777344 19.390625 6.792969 19.359375 C 6.808594 19.328125 6.824219 19.300781 6.847656 19.277344 C 6.871094 19.253906 6.902344 19.238281 6.933594 19.222656 C 6.964844 19.210938 7 19.203125 7.035156 19.203125 C 7.070312 19.203125 7.105469 19.210938 7.140625 19.222656 C 7.171875 19.238281 7.199219 19.253906 7.222656 19.277344 C 7.246094 19.300781 7.265625 19.328125 7.28125 19.359375 C 7.292969 19.390625 7.300781 19.425781 7.300781 19.460938 C 7.300781 19.515625 7.289062 19.558594 7.261719 19.597656 C 7.234375 19.632812 7.203125 19.660156 7.164062 19.679688 C 7.125 19.699219 7.082031 19.707031 7.035156 19.707031 C 6.988281 19.707031 6.945312 19.699219 6.90625 19.679688 C 6.867188 19.660156 6.835938 19.632812 6.808594 19.597656 C 6.785156 19.558594 6.769531 19.515625 6.769531 19.460938 "/>
<path style=" stroke:none;fill-rule:nonzero;fill:rgb(18.823529%,24.313725%,28.235294%);fill-opacity:1;" d="M 7.878906 19.324219 L 7.878906 19.710938 L 7.472656 19.710938 L 7.472656 19.519531 L 7.6875 19.519531 L 7.6875 18.878906 L 7.46875 18.878906 L 7.46875 18.691406 L 7.878906 18.691406 L 7.878906 19.132812 L 8.050781 19.132812 L 8.050781 18.6875 L 8.457031 18.6875 L 8.457031 18.878906 L 8.238281 18.875 L 8.238281 19.519531 L 8.453125 19.519531 L 8.453125 19.707031 L 8.046875 19.707031 L 8.046875 19.320312 Z M 7.878906 19.324219 "/>
<path style=" stroke:none;fill-rule:nonzero;fill:rgb(18.823529%,24.313725%,28.235294%);fill-opacity:1;" d="M 8.839844 19.71875 L 8.648438 19.71875 L 8.648438 18.691406 L 8.839844 18.691406 Z M 8.839844 19.71875 "/>
<path style=" stroke:none;fill-rule:nonzero;fill:rgb(18.823529%,24.313725%,28.235294%);fill-opacity:1;" d="M 9.890625 19.75 L 9.074219 19.5 L 9.5 19.214844 L 9.070312 18.929688 L 9.882812 18.667969 L 9.882812 18.855469 L 9.457031 18.984375 L 9.820312 19.203125 L 9.488281 19.429688 L 9.890625 19.558594 Z M 9.890625 19.75 "/>
<path style=" stroke:none;fill-rule:nonzero;fill:rgb(18.823529%,24.313725%,28.235294%);fill-opacity:1;" d="M 10.574219 18.875 L 10.25 18.875 L 10.25 19.339844 Z M 10.785156 19.710938 L 10.058594 19.710938 L 10.058594 18.683594 L 10.773438 18.683594 L 10.773438 18.878906 L 10.308594 19.523438 L 10.78125 19.523438 Z M 10.785156 19.710938 "/>
<path style=" stroke:none;fill-rule:nonzero;fill:rgb(18.823529%,24.313725%,28.235294%);fill-opacity:1;" d="M 11.828125 19.292969 L 11.511719 19.292969 L 11.511719 19.710938 L 11.320312 19.710938 L 11.320312 19.292969 L 11.011719 19.292969 L 11.011719 19.113281 L 11.320312 19.113281 L 11.320312 18.691406 L 11.511719 18.691406 L 11.511719 19.105469 L 11.828125 19.105469 Z M 11.828125 19.292969 "/>
<path style=" stroke:none;fill-rule:nonzero;fill:rgb(18.823529%,24.313725%,28.235294%);fill-opacity:1;" d="M 12.761719 19.71875 L 12.570312 19.71875 L 12.570312 18.691406 L 12.761719 18.691406 Z M 12.761719 19.71875 "/>
<path style=" stroke:none;fill-rule:nonzero;fill:rgb(18.823529%,24.313725%,28.235294%);fill-opacity:1;" d="M 13.703125 19.488281 C 13.703125 19.503906 13.707031 19.515625 13.710938 19.527344 C 13.714844 19.539062 13.722656 19.550781 13.734375 19.558594 C 13.742188 19.566406 13.753906 19.574219 13.769531 19.578125 C 13.78125 19.582031 13.796875 19.585938 13.8125 19.585938 C 13.828125 19.585938 13.839844 19.582031 13.855469 19.578125 C 13.867188 19.574219 13.878906 19.566406 13.886719 19.558594 C 13.898438 19.550781 13.90625 19.539062 13.910156 19.527344 C 13.917969 19.515625 13.917969 19.503906 13.917969 19.488281 C 13.917969 19.476562 13.917969 19.464844 13.910156 19.453125 C 13.90625 19.441406 13.898438 19.429688 13.886719 19.421875 C 13.878906 19.414062 13.867188 19.40625 13.855469 19.402344 C 13.839844 19.394531 13.828125 19.394531 13.8125 19.394531 C 13.796875 19.394531 13.78125 19.394531 13.769531 19.402344 C 13.753906 19.40625 13.742188 19.414062 13.734375 19.421875 C 13.722656 19.429688 13.714844 19.441406 13.710938 19.453125 C 13.707031 19.464844 13.703125 19.476562 13.703125 19.488281 M 13.703125 18.914062 C 13.703125 18.925781 13.707031 18.9375 13.710938 18.949219 C 13.714844 18.960938 13.722656 18.972656 13.734375 18.980469 C 13.742188 18.988281 13.753906 18.996094 13.769531 19 C 13.78125 19.003906 13.796875 19.007812 13.8125 19.007812 C 13.828125 19.007812 13.84375 19.003906 13.855469 19 C 13.867188 18.996094 13.878906 18.988281 13.890625 18.980469 C 13.902344 18.972656 13.910156 18.960938 13.914062 18.949219 C 13.917969 18.9375 13.921875 18.925781 13.921875 18.914062 C 13.921875 18.902344 13.917969 18.890625 13.914062 18.878906 C 13.910156 18.867188 13.902344 18.855469 13.890625 18.847656 C 13.878906 18.839844 13.867188 18.832031 13.855469 18.828125 C 13.84375 18.824219 13.828125 18.824219 13.8125 18.824219 C 13.796875 18.824219 13.78125 18.824219 13.769531 18.828125 C 13.753906 18.832031 13.742188 18.839844 13.734375 18.847656 C 13.722656 18.855469 13.714844 18.867188 13.710938 18.878906 C 13.707031 18.890625 13.703125 18.902344 13.703125 18.914062 M 13.570312 18.914062 C 13.570312 18.882812 13.574219 18.855469 13.589844 18.828125 C 13.601562 18.800781 13.621094 18.777344 13.640625 18.757812 C 13.664062 18.738281 13.691406 18.71875 13.71875 18.707031 C 13.75 18.695312 13.78125 18.691406 13.816406 18.691406 C 13.851562 18.691406 13.886719 18.695312 13.917969 18.707031 C 13.945312 18.71875 13.972656 18.738281 13.996094 18.757812 C 14.019531 18.777344 14.035156 18.800781 14.050781 18.828125 C 14.0625 18.855469 14.070312 18.882812 14.070312 18.914062 C 14.070312 18.945312 14.0625 18.976562 14.050781 19.003906 C 14.035156 19.03125 14.019531 19.054688 13.996094 19.074219 C 13.972656 19.09375 13.945312 19.113281 13.917969 19.121094 C 13.886719 19.132812 13.851562 19.140625 13.816406 19.140625 C 13.78125 19.140625 13.75 19.132812 13.71875 19.121094 C 13.691406 19.113281 13.664062 19.09375 13.640625 19.074219 C 13.621094 19.054688 13.601562 19.03125 13.589844 19.003906 C 13.574219 18.976562 13.570312 18.945312 13.570312 18.914062 M 13.5625 19.492188 C 13.5625 19.460938 13.570312 19.429688 13.582031 19.402344 C 13.597656 19.378906 13.613281 19.355469 13.636719 19.332031 C 13.65625 19.3125 13.683594 19.296875 13.714844 19.285156 C 13.746094 19.273438 13.78125 19.265625 13.816406 19.265625 C 13.851562 19.265625 13.882812 19.273438 13.914062 19.285156 C 13.945312 19.296875 13.972656 19.3125 13.992188 19.332031 C 14.015625 19.355469 14.035156 19.378906 14.046875 19.402344 C 14.058594 19.429688 14.066406 19.460938 14.066406 19.492188 C 14.066406 19.519531 14.058594 19.550781 14.046875 19.578125 C 14.035156 19.605469 14.015625 19.628906 13.992188 19.648438 C 13.972656 19.671875 13.945312 19.6875 13.914062 19.695312 C 13.882812 19.707031 13.851562 19.710938 13.816406 19.710938 C 13.78125 19.710938 13.746094 19.707031 13.714844 19.695312 C 13.683594 19.6875 13.65625 19.671875 13.636719 19.648438 C 13.613281 19.628906 13.597656 19.605469 13.582031 19.578125 C 13.570312 19.550781 13.5625 19.519531 13.5625 19.492188 "/>
<path style=" stroke:none;fill-rule:nonzero;fill:rgb(18.823529%,24.313725%,28.235294%);fill-opacity:1;" d="M 14.824219 19.199219 C 14.824219 19.226562 14.816406 19.25 14.792969 19.269531 C 14.785156 19.28125 14.777344 19.289062 14.765625 19.292969 C 14.753906 19.296875 14.738281 19.300781 14.722656 19.300781 C 14.699219 19.300781 14.675781 19.289062 14.65625 19.269531 C 14.636719 19.25 14.628906 19.226562 14.628906 19.199219 C 14.628906 19.175781 14.636719 19.152344 14.65625 19.132812 C 14.675781 19.113281 14.699219 19.101562 14.722656 19.101562 C 14.753906 19.101562 14.777344 19.113281 14.796875 19.132812 C 14.816406 19.152344 14.824219 19.175781 14.824219 19.199219 M 14.390625 19.203125 C 14.390625 19.25 14.398438 19.296875 14.417969 19.339844 C 14.433594 19.382812 14.457031 19.417969 14.488281 19.453125 C 14.519531 19.484375 14.554688 19.511719 14.597656 19.527344 C 14.636719 19.546875 14.679688 19.554688 14.722656 19.554688 C 14.773438 19.554688 14.820312 19.546875 14.863281 19.527344 C 14.902344 19.511719 14.941406 19.484375 14.972656 19.453125 C 15.003906 19.417969 15.027344 19.382812 15.042969 19.339844 C 15.0625 19.296875 15.070312 19.25 15.070312 19.203125 C 15.070312 19.152344 15.0625 19.105469 15.042969 19.0625 C 15.027344 19.019531 15.003906 18.980469 14.972656 18.949219 C 14.941406 18.917969 14.902344 18.890625 14.863281 18.875 C 14.820312 18.855469 14.777344 18.84375 14.726562 18.84375 C 14.683594 18.84375 14.636719 18.855469 14.597656 18.875 C 14.554688 18.890625 14.515625 18.917969 14.488281 18.949219 C 14.457031 18.980469 14.433594 19.019531 14.417969 19.0625 C 14.398438 19.105469 14.390625 19.152344 14.390625 19.203125 M 15.238281 19.203125 C 15.238281 19.347656 15.1875 19.472656 15.082031 19.574219 C 14.980469 19.667969 14.863281 19.714844 14.722656 19.714844 C 14.578125 19.714844 14.460938 19.664062 14.363281 19.5625 C 14.269531 19.460938 14.222656 19.339844 14.21875 19.199219 C 14.222656 19.050781 14.273438 18.929688 14.371094 18.832031 C 14.476562 18.738281 14.59375 18.691406 14.722656 18.691406 C 14.875 18.691406 15 18.742188 15.09375 18.84375 C 15.191406 18.945312 15.238281 19.0625 15.238281 19.203125 "/>
<path style=" stroke:none;fill-rule:nonzero;fill:rgb(18.823529%,24.313725%,28.235294%);fill-opacity:1;" d="M 15.585938 19.203125 C 15.585938 19.25 15.59375 19.296875 15.613281 19.339844 C 15.628906 19.382812 15.652344 19.417969 15.683594 19.453125 C 15.714844 19.484375 15.75 19.511719 15.792969 19.527344 C 15.835938 19.546875 15.878906 19.554688 15.925781 19.554688 C 15.972656 19.554688 16.015625 19.546875 16.058594 19.527344 C 16.097656 19.511719 16.136719 19.484375 16.167969 19.453125 C 16.199219 19.417969 16.222656 19.382812 16.238281 19.339844 C 16.257812 19.296875 16.265625 19.25 16.265625 19.203125 C 16.265625 19.152344 16.257812 19.105469 16.238281 19.0625 C 16.222656 19.019531 16.199219 18.980469 16.167969 18.949219 C 16.136719 18.917969 16.097656 18.890625 16.058594 18.875 C 16.015625 18.855469 15.972656 18.84375 15.925781 18.84375 C 15.878906 18.84375 15.835938 18.855469 15.792969 18.875 C 15.75 18.890625 15.714844 18.917969 15.683594 18.949219 C 15.652344 18.980469 15.628906 19.019531 15.613281 19.0625 C 15.59375 19.105469 15.585938 19.152344 15.585938 19.203125 M 16.433594 19.214844 C 16.433594 19.351562 16.382812 19.472656 16.277344 19.574219 C 16.175781 19.667969 16.058594 19.714844 15.921875 19.714844 C 15.777344 19.714844 15.65625 19.664062 15.558594 19.5625 C 15.464844 19.460938 15.417969 19.335938 15.417969 19.183594 C 15.417969 19.046875 15.46875 18.929688 15.578125 18.832031 C 15.683594 18.738281 15.800781 18.691406 15.929688 18.691406 C 16.070312 18.691406 16.191406 18.742188 16.285156 18.84375 C 16.382812 18.945312 16.433594 19.066406 16.433594 19.214844 "/>
<path style=" stroke:none;fill-rule:nonzero;fill:rgb(18.823529%,24.313725%,28.235294%);fill-opacity:1;" d="M 17.179688 19.199219 C 17.179688 19.226562 17.167969 19.25 17.148438 19.269531 C 17.140625 19.28125 17.128906 19.289062 17.117188 19.292969 C 17.105469 19.296875 17.09375 19.300781 17.078125 19.300781 C 17.054688 19.300781 17.03125 19.289062 17.011719 19.269531 C 16.992188 19.25 16.980469 19.226562 16.980469 19.199219 C 16.980469 19.175781 16.992188 19.152344 17.011719 19.132812 C 17.03125 19.113281 17.054688 19.101562 17.078125 19.101562 C 17.105469 19.101562 17.128906 19.113281 17.148438 19.132812 C 17.167969 19.152344 17.179688 19.175781 17.179688 19.199219 M 16.742188 19.203125 C 16.742188 19.25 16.753906 19.296875 16.769531 19.339844 C 16.789062 19.382812 16.8125 19.417969 16.84375 19.453125 C 16.871094 19.484375 16.90625 19.511719 16.949219 19.527344 C 16.992188 19.546875 17.035156 19.554688 17.078125 19.554688 C 17.128906 19.554688 17.171875 19.546875 17.214844 19.527344 C 17.257812 19.511719 17.292969 19.484375 17.324219 19.453125 C 17.355469 19.417969 17.378906 19.382812 17.398438 19.339844 C 17.414062 19.296875 17.421875 19.25 17.421875 19.203125 C 17.421875 19.152344 17.414062 19.105469 17.398438 19.0625 C 17.378906 19.019531 17.355469 18.980469 17.324219 18.949219 C 17.292969 18.917969 17.257812 18.890625 17.214844 18.875 C 17.171875 18.855469 17.128906 18.84375 17.082031 18.84375 C 17.035156 18.84375 16.992188 18.855469 16.949219 18.875 C 16.90625 18.890625 16.871094 18.917969 16.839844 18.949219 C 16.8125 18.980469 16.789062 19.019531 16.769531 19.0625 C 16.753906 19.105469 16.742188 19.152344 16.742188 19.203125 M 17.59375 19.203125 C 17.589844 19.347656 17.539062 19.472656 17.4375 19.574219 C 17.335938 19.667969 17.214844 19.714844 17.078125 19.714844 C 16.933594 19.714844 16.8125 19.664062 16.71875 19.5625 C 16.621094 19.460938 16.574219 19.339844 16.574219 19.199219 C 16.574219 19.050781 16.625 18.929688 16.722656 18.832031 C 16.828125 18.738281 16.949219 18.691406 17.078125 18.691406 C 17.230469 18.691406 17.355469 18.742188 17.449219 18.84375 C 17.542969 18.945312 17.589844 19.0625 17.59375 19.203125 "/>
<path style=" stroke:none;fill-rule:nonzero;fill:rgb(18.823529%,24.313725%,28.235294%);fill-opacity:1;" d="M 19.296875 19.714844 L 19.105469 19.714844 L 18.8125 18.933594 L 18.542969 19.710938 L 18.351562 19.710938 L 18.714844 18.691406 L 18.90625 18.691406 Z M 19.296875 19.714844 "/>
<path style=" stroke:none;fill-rule:nonzero;fill:rgb(18.823529%,24.313725%,28.235294%);fill-opacity:1;" d="M 20.171875 19.488281 C 20.171875 19.503906 20.175781 19.515625 20.179688 19.527344 C 20.183594 19.539062 20.191406 19.550781 20.203125 19.558594 C 20.210938 19.566406 20.222656 19.574219 20.234375 19.578125 C 20.25 19.582031 20.261719 19.585938 20.277344 19.585938 C 20.292969 19.585938 20.308594 19.582031 20.320312 19.578125 C 20.332031 19.574219 20.34375 19.566406 20.355469 19.558594 C 20.363281 19.550781 20.371094 19.539062 20.378906 19.527344 C 20.382812 19.515625 20.386719 19.503906 20.386719 19.488281 C 20.386719 19.476562 20.382812 19.464844 20.378906 19.453125 C 20.371094 19.441406 20.363281 19.429688 20.355469 19.421875 C 20.34375 19.414062 20.332031 19.40625 20.320312 19.402344 C 20.308594 19.394531 20.292969 19.394531 20.277344 19.394531 C 20.261719 19.394531 20.25 19.394531 20.234375 19.402344 C 20.222656 19.40625 20.210938 19.414062 20.203125 19.421875 C 20.191406 19.429688 20.183594 19.441406 20.179688 19.453125 C 20.175781 19.464844 20.171875 19.476562 20.171875 19.488281 M 20.171875 18.914062 C 20.171875 18.925781 20.171875 18.9375 20.179688 18.949219 C 20.183594 18.960938 20.191406 18.972656 20.199219 18.980469 C 20.210938 18.988281 20.222656 18.996094 20.234375 19 C 20.25 19.003906 20.265625 19.007812 20.28125 19.007812 C 20.292969 19.007812 20.308594 19.003906 20.320312 19 C 20.335938 18.996094 20.347656 18.988281 20.355469 18.980469 C 20.367188 18.972656 20.375 18.960938 20.382812 18.949219 C 20.386719 18.9375 20.390625 18.925781 20.390625 18.914062 C 20.390625 18.902344 20.386719 18.890625 20.382812 18.878906 C 20.375 18.867188 20.367188 18.855469 20.355469 18.847656 C 20.347656 18.839844 20.335938 18.832031 20.320312 18.828125 C 20.308594 18.824219 20.292969 18.824219 20.28125 18.824219 C 20.265625 18.824219 20.25 18.824219 20.234375 18.828125 C 20.222656 18.832031 20.210938 18.839844 20.199219 18.847656 C 20.191406 18.855469 20.183594 18.867188 20.179688 18.878906 C 20.171875 18.890625 20.171875 18.902344 20.171875 18.914062 M 20.035156 18.914062 C 20.035156 18.882812 20.042969 18.855469 20.054688 18.828125 C 20.070312 18.800781 20.085938 18.777344 20.109375 18.757812 C 20.132812 18.738281 20.15625 18.71875 20.1875 18.707031 C 20.21875 18.695312 20.25 18.691406 20.285156 18.691406 C 20.320312 18.691406 20.351562 18.695312 20.382812 18.707031 C 20.414062 18.71875 20.441406 18.738281 20.464844 18.757812 C 20.484375 18.777344 20.503906 18.800781 20.515625 18.828125 C 20.53125 18.855469 20.535156 18.882812 20.535156 18.914062 C 20.535156 18.945312 20.53125 18.976562 20.515625 19.003906 C 20.503906 19.03125 20.484375 19.054688 20.464844 19.074219 C 20.441406 19.09375 20.414062 19.113281 20.382812 19.121094 C 20.351562 19.132812 20.320312 19.140625 20.285156 19.140625 C 20.25 19.140625 20.21875 19.132812 20.1875 19.121094 C 20.15625 19.113281 20.132812 19.09375 20.109375 19.074219 C 20.085938 19.054688 20.070312 19.03125 20.054688 19.003906 C 20.042969 18.976562 20.035156 18.945312 20.035156 18.914062 M 20.03125 19.492188 C 20.03125 19.460938 20.035156 19.429688 20.050781 19.402344 C 20.0625 19.378906 20.082031 19.355469 20.101562 19.332031 C 20.125 19.3125 20.152344 19.296875 20.183594 19.285156 C 20.214844 19.273438 20.246094 19.265625 20.28125 19.265625 C 20.316406 19.265625 20.351562 19.273438 20.382812 19.285156 C 20.414062 19.296875 20.4375 19.3125 20.460938 19.332031 C 20.484375 19.355469 20.5 19.378906 20.515625 19.402344 C 20.527344 19.429688 20.535156 19.460938 20.535156 19.492188 C 20.535156 19.519531 20.527344 19.550781 20.515625 19.578125 C 20.5 19.605469 20.484375 19.628906 20.460938 19.648438 C 20.4375 19.671875 20.414062 19.6875 20.382812 19.695312 C 20.351562 19.707031 20.316406 19.710938 20.28125 19.710938 C 20.246094 19.710938 20.214844 19.707031 20.183594 19.695312 C 20.152344 19.6875 20.125 19.671875 20.101562 19.648438 C 20.082031 19.628906 20.0625 19.605469 20.050781 19.578125 C 20.035156 19.550781 20.03125 19.519531 20.03125 19.492188 "/>
<path style=" stroke:none;fill-rule:nonzero;fill:rgb(18.823529%,24.313725%,28.235294%);fill-opacity:1;" d="M 21.292969 19.199219 C 21.292969 19.226562 21.28125 19.25 21.261719 19.269531 C 21.253906 19.28125 21.242188 19.289062 21.230469 19.292969 C 21.21875 19.296875 21.207031 19.300781 21.191406 19.300781 C 21.167969 19.300781 21.144531 19.289062 21.125 19.269531 C 21.105469 19.25 21.09375 19.226562 21.09375 19.199219 C 21.09375 19.175781 21.105469 19.152344 21.125 19.132812 C 21.144531 19.113281 21.167969 19.101562 21.191406 19.101562 C 21.21875 19.101562 21.242188 19.113281 21.261719 19.132812 C 21.28125 19.152344 21.292969 19.175781 21.292969 19.199219 M 20.855469 19.203125 C 20.855469 19.25 20.867188 19.296875 20.882812 19.339844 C 20.902344 19.382812 20.925781 19.417969 20.957031 19.453125 C 20.984375 19.484375 21.023438 19.511719 21.0625 19.527344 C 21.105469 19.546875 21.148438 19.554688 21.191406 19.554688 C 21.242188 19.554688 21.289062 19.546875 21.328125 19.527344 C 21.371094 19.511719 21.40625 19.484375 21.4375 19.453125 C 21.46875 19.417969 21.492188 19.382812 21.511719 19.339844 C 21.527344 19.296875 21.539062 19.25 21.539062 19.203125 C 21.539062 19.152344 21.527344 19.105469 21.511719 19.0625 C 21.492188 19.019531 21.46875 18.980469 21.4375 18.949219 C 21.40625 18.917969 21.371094 18.890625 21.328125 18.875 C 21.289062 18.855469 21.242188 18.84375 21.195312 18.84375 C 21.148438 18.84375 21.105469 18.855469 21.0625 18.875 C 21.019531 18.890625 20.984375 18.917969 20.957031 18.949219 C 20.925781 18.980469 20.902344 19.019531 20.882812 19.0625 C 20.867188 19.105469 20.855469 19.152344 20.855469 19.203125 M 21.707031 19.203125 C 21.707031 19.347656 21.652344 19.472656 21.550781 19.574219 C 21.449219 19.667969 21.328125 19.714844 21.191406 19.714844 C 21.046875 19.714844 20.925781 19.664062 20.832031 19.5625 C 20.738281 19.460938 20.6875 19.339844 20.6875 19.199219 C 20.6875 19.050781 20.738281 18.929688 20.835938 18.832031 C 20.945312 18.738281 21.0625 18.691406 21.191406 18.691406 C 21.34375 18.691406 21.46875 18.742188 21.5625 18.84375 C 21.65625 18.945312 21.707031 19.0625 21.707031 19.203125 "/>
<path style=" stroke:none;fill-rule:nonzero;fill:rgb(18.823529%,24.313725%,28.235294%);fill-opacity:1;" d="M 22.582031 19.527344 L 22.582031 18.695312 L 22.769531 18.695312 L 22.769531 19.710938 L 21.921875 19.710938 L 21.921875 18.695312 L 22.109375 18.695312 L 22.109375 19.527344 Z M 22.582031 19.527344 "/>
<path style=" stroke:none;fill-rule:nonzero;fill:rgb(18.823529%,24.313725%,28.235294%);fill-opacity:1;" d="M 23.101562 19.488281 C 23.101562 19.503906 23.101562 19.515625 23.109375 19.527344 C 23.113281 19.539062 23.121094 19.550781 23.128906 19.558594 C 23.140625 19.566406 23.152344 19.574219 23.164062 19.578125 C 23.179688 19.582031 23.191406 19.585938 23.207031 19.585938 C 23.222656 19.585938 23.238281 19.582031 23.25 19.578125 C 23.261719 19.574219 23.273438 19.566406 23.285156 19.558594 C 23.292969 19.550781 23.300781 19.539062 23.308594 19.527344 C 23.3125 19.515625 23.316406 19.503906 23.316406 19.488281 C 23.316406 19.476562 23.3125 19.464844 23.308594 19.453125 C 23.300781 19.441406 23.292969 19.429688 23.285156 19.421875 C 23.273438 19.414062 23.261719 19.40625 23.25 19.402344 C 23.238281 19.394531 23.222656 19.394531 23.207031 19.394531 C 23.191406 19.394531 23.179688 19.394531 23.164062 19.402344 C 23.152344 19.40625 23.140625 19.414062 23.128906 19.421875 C 23.121094 19.429688 23.113281 19.441406 23.109375 19.453125 C 23.101562 19.464844 23.101562 19.476562 23.101562 19.488281 M 23.097656 18.914062 C 23.097656 18.925781 23.101562 18.9375 23.109375 18.949219 C 23.113281 18.960938 23.121094 18.972656 23.128906 18.980469 C 23.140625 18.988281 23.152344 18.996094 23.164062 19 C 23.179688 19.003906 23.191406 19.007812 23.207031 19.007812 C 23.222656 19.007812 23.238281 19.003906 23.25 19 C 23.265625 18.996094 23.277344 18.988281 23.285156 18.980469 C 23.296875 18.972656 23.304688 18.960938 23.3125 18.949219 C 23.316406 18.9375 23.316406 18.925781 23.316406 18.914062 C 23.316406 18.902344 23.316406 18.890625 23.3125 18.878906 C 23.304688 18.867188 23.296875 18.855469 23.285156 18.847656 C 23.277344 18.839844 23.265625 18.832031 23.25 18.828125 C 23.238281 18.824219 23.222656 18.824219 23.207031 18.824219 C 23.191406 18.824219 23.179688 18.824219 23.164062 18.828125 C 23.152344 18.832031 23.140625 18.839844 23.128906 18.847656 C 23.121094 18.855469 23.113281 18.867188 23.109375 18.878906 C 23.101562 18.890625 23.097656 18.902344 23.097656 18.914062 M 22.964844 18.914062 C 22.964844 18.882812 22.972656 18.855469 22.984375 18.828125 C 23 18.800781 23.015625 18.777344 23.039062 18.757812 C 23.058594 18.738281 23.085938 18.71875 23.117188 18.707031 C 23.148438 18.695312 23.179688 18.691406 23.214844 18.691406 C 23.25 18.691406 23.28125 18.695312 23.3125 18.707031 C 23.34375 18.71875 23.371094 18.738281 23.390625 18.757812 C 23.414062 18.777344 23.433594 18.800781 23.445312 18.828125 C 23.460938 18.855469 23.464844 18.882812 23.464844 18.914062 C 23.464844 18.945312 23.460938 18.976562 23.445312 19.003906 C 23.433594 19.03125 23.414062 19.054688 23.390625 19.074219 C 23.371094 19.09375 23.34375 19.113281 23.3125 19.121094 C 23.28125 19.132812 23.25 19.140625 23.214844 19.140625 C 23.179688 19.140625 23.148438 19.132812 23.117188 19.121094 C 23.085938 19.113281 23.058594 19.09375 23.039062 19.074219 C 23.015625 19.054688 23 19.03125 22.984375 19.003906 C 22.972656 18.976562 22.964844 18.945312 22.964844 18.914062 M 22.957031 19.492188 C 22.957031 19.460938 22.964844 19.429688 22.976562 19.402344 C 22.992188 19.378906 23.011719 19.355469 23.03125 19.332031 C 23.054688 19.3125 23.082031 19.296875 23.113281 19.285156 C 23.144531 19.273438 23.175781 19.265625 23.210938 19.265625 C 23.246094 19.265625 23.28125 19.273438 23.3125 19.285156 C 23.339844 19.296875 23.367188 19.3125 23.390625 19.332031 C 23.414062 19.355469 23.429688 19.378906 23.445312 19.402344 C 23.457031 19.429688 23.464844 19.460938 23.464844 19.492188 C 23.464844 19.519531 23.457031 19.550781 23.445312 19.578125 C 23.429688 19.605469 23.414062 19.628906 23.390625 19.648438 C 23.367188 19.671875 23.339844 19.6875 23.3125 19.695312 C 23.28125 19.707031 23.246094 19.710938 23.210938 19.710938 C 23.175781 19.710938 23.144531 19.707031 23.113281 19.695312 C 23.082031 19.6875 23.054688 19.671875 23.03125 19.648438 C 23.011719 19.628906 22.992188 19.605469 22.976562 19.578125 C 22.964844 19.550781 22.957031 19.519531 22.957031 19.492188 "/>
<path style=" stroke:none;fill-rule:nonzero;fill:rgb(18.823529%,24.313725%,28.235294%);fill-opacity:1;" d="M 24.574219 19.714844 L 24.386719 19.714844 L 24.089844 18.933594 L 23.820312 19.710938 L 23.632812 19.710938 L 23.992188 18.691406 L 24.1875 18.691406 Z M 24.574219 19.714844 "/>
<path style=" stroke:none;fill-rule:nonzero;fill:rgb(18.823529%,24.313725%,28.235294%);fill-opacity:1;" d="M 25.671875 19.714844 L 25.480469 19.714844 L 25.1875 18.933594 L 24.917969 19.710938 L 24.726562 19.710938 L 25.089844 18.691406 L 25.28125 18.691406 Z M 25.671875 19.714844 "/>
<path style=" stroke:none;fill-rule:nonzero;fill:rgb(18.823529%,24.313725%,28.235294%);fill-opacity:1;" d="M 25.980469 19.488281 C 25.980469 19.503906 25.984375 19.515625 25.988281 19.527344 C 25.992188 19.539062 26 19.550781 26.011719 19.558594 C 26.019531 19.566406 26.03125 19.574219 26.042969 19.578125 C 26.058594 19.582031 26.070312 19.585938 26.085938 19.585938 C 26.101562 19.585938 26.117188 19.582031 26.128906 19.578125 C 26.144531 19.574219 26.152344 19.566406 26.164062 19.558594 C 26.171875 19.550781 26.179688 19.539062 26.1875 19.527344 C 26.191406 19.515625 26.195312 19.503906 26.195312 19.488281 C 26.195312 19.476562 26.191406 19.464844 26.1875 19.453125 C 26.179688 19.441406 26.171875 19.429688 26.164062 19.421875 C 26.152344 19.414062 26.144531 19.40625 26.128906 19.402344 C 26.117188 19.394531 26.101562 19.394531 26.085938 19.394531 C 26.070312 19.394531 26.058594 19.394531 26.042969 19.402344 C 26.03125 19.40625 26.019531 19.414062 26.011719 19.421875 C 26 19.429688 25.992188 19.441406 25.988281 19.453125 C 25.984375 19.464844 25.980469 19.476562 25.980469 19.488281 M 25.980469 18.914062 C 25.980469 18.925781 25.980469 18.9375 25.988281 18.949219 C 25.992188 18.960938 26 18.972656 26.007812 18.980469 C 26.019531 18.988281 26.03125 18.996094 26.042969 19 C 26.058594 19.003906 26.074219 19.007812 26.089844 19.007812 C 26.105469 19.007812 26.117188 19.003906 26.132812 19 C 26.144531 18.996094 26.15625 18.988281 26.164062 18.980469 C 26.175781 18.972656 26.183594 18.960938 26.191406 18.949219 C 26.195312 18.9375 26.199219 18.925781 26.199219 18.914062 C 26.199219 18.902344 26.195312 18.890625 26.191406 18.878906 C 26.183594 18.867188 26.175781 18.855469 26.164062 18.847656 C 26.15625 18.839844 26.144531 18.832031 26.132812 18.828125 C 26.117188 18.824219 26.105469 18.824219 26.089844 18.824219 C 26.074219 18.824219 26.058594 18.824219 26.042969 18.828125 C 26.03125 18.832031 26.019531 18.839844 26.007812 18.847656 C 26 18.855469 25.992188 18.867188 25.988281 18.878906 C 25.980469 18.890625 25.980469 18.902344 25.980469 18.914062 M 25.84375 18.914062 C 25.84375 18.882812 25.851562 18.855469 25.863281 18.828125 C 25.878906 18.800781 25.894531 18.777344 25.917969 18.757812 C 25.941406 18.738281 25.964844 18.71875 25.996094 18.707031 C 26.027344 18.695312 26.058594 18.691406 26.09375 18.691406 C 26.128906 18.691406 26.160156 18.695312 26.191406 18.707031 C 26.222656 18.71875 26.25 18.738281 26.273438 18.757812 C 26.292969 18.777344 26.3125 18.800781 26.324219 18.828125 C 26.339844 18.855469 26.347656 18.882812 26.347656 18.914062 C 26.347656 18.945312 26.339844 18.976562 26.324219 19.003906 C 26.3125 19.03125 26.292969 19.054688 26.273438 19.074219 C 26.25 19.09375 26.222656 19.113281 26.191406 19.121094 C 26.160156 19.132812 26.128906 19.140625 26.09375 19.140625 C 26.058594 19.140625 26.027344 19.132812 25.996094 19.121094 C 25.964844 19.113281 25.941406 19.09375 25.917969 19.074219 C 25.894531 19.054688 25.878906 19.03125 25.863281 19.003906 C 25.851562 18.976562 25.84375 18.945312 25.84375 18.914062 M 25.839844 19.492188 C 25.839844 19.460938 25.84375 19.429688 25.859375 19.402344 C 25.871094 19.378906 25.890625 19.355469 25.910156 19.332031 C 25.933594 19.3125 25.960938 19.296875 25.992188 19.285156 C 26.023438 19.273438 26.054688 19.265625 26.089844 19.265625 C 26.125 19.265625 26.160156 19.273438 26.191406 19.285156 C 26.222656 19.296875 26.25 19.3125 26.269531 19.332031 C 26.292969 19.355469 26.308594 19.378906 26.324219 19.402344 C 26.335938 19.429688 26.34375 19.460938 26.34375 19.492188 C 26.34375 19.519531 26.335938 19.550781 26.324219 19.578125 C 26.308594 19.605469 26.292969 19.628906 26.269531 19.648438 C 26.25 19.671875 26.222656 19.6875 26.191406 19.695312 C 26.160156 19.707031 26.125 19.710938 26.089844 19.710938 C 26.054688 19.710938 26.023438 19.707031 25.992188 19.695312 C 25.960938 19.6875 25.933594 19.671875 25.910156 19.648438 C 25.890625 19.628906 25.871094 19.605469 25.859375 19.578125 C 25.84375 19.550781 25.839844 19.519531 25.839844 19.492188 "/>
<path style=" stroke:none;fill-rule:nonzero;fill:rgb(18.823529%,24.313725%,28.235294%);fill-opacity:1;" d="M 10.359375 1.859375 L 10.359375 11.375 L 6.882812 11.375 C 4.957031 11.375 3.386719 9.75 3.386719 7.792969 C 3.386719 5.835938 4.957031 4.226562 6.882812 4.226562 L 9.445312 4.226562 L 9.445312 1.839844 L 6.882812 1.839844 C 3.652344 1.839844 1.023438 4.511719 1.023438 7.792969 C 1.023438 11.078125 3.652344 13.765625 6.882812 13.765625 L 12.675781 13.765625 L 12.675781 4.242188 L 16.023438 4.242188 C 17.953125 4.242188 19.519531 5.855469 19.519531 7.8125 C 19.519531 9.769531 17.953125 11.363281 16.023438 11.363281 L 13.5625 11.363281 L 13.5625 13.765625 L 16.023438 13.765625 C 19.253906 13.765625 21.882812 11.097656 21.882812 7.816406 L 21.886719 7.816406 C 21.886719 7.800781 21.882812 7.785156 21.882812 7.769531 C 21.882812 7.765625 21.882812 7.765625 21.882812 7.761719 C 21.941406 5.617188 23.523438 4.242188 25.433594 4.242188 C 26.210938 4.242188 26.925781 4.503906 27.503906 4.941406 L 29.175781 3.246094 C 28.164062 2.378906 26.859375 1.855469 25.433594 1.855469 C 23.507812 1.855469 21.800781 2.8125 20.738281 4.28125 C 19.671875 2.8125 17.957031 1.859375 16.023438 1.859375 Z M 10.359375 1.859375 "/>
<path style=" stroke:none;fill-rule:nonzero;fill:rgb(38.431373%,54.509804%,9.411765%);fill-opacity:1;" d="M 31.082031 7.402344 L 26.503906 7.402344 L 26.503906 9.152344 L 28.539062 9.152344 C 28.039062 10.476562 26.777344 11.425781 25.300781 11.425781 C 24.117188 11.425781 23.074219 10.816406 22.449219 9.894531 C 22.191406 10.722656 21.785156 11.480469 21.261719 12.140625 C 22.3125 13.167969 23.730469 13.808594 25.300781 13.808594 C 26.886719 13.808594 28.324219 13.160156 29.375 12.109375 L 29.375 13.789062 L 31.113281 13.789062 L 31.113281 7.402344 Z M 31.082031 7.402344 "/>
</g>
</svg>
