<?xml version="1.0" encoding="UTF-8"?>
<svg xmlns="http://www.w3.org/2000/svg" xmlns:xlink="http://www.w3.org/1999/xlink" width="55px" height="39px" viewBox="0 0 55 39" version="1.1">
<g id="surface1">
<path style=" stroke:none;fill-rule:nonzero;fill:rgb(18.823529%,24.313725%,28.235294%);fill-opacity:1;" d="M 7.617188 36.078125 C 7.425781 36.261719 7.175781 36.347656 6.90625 36.347656 C 6.210938 36.347656 5.917969 35.882812 5.914062 35.40625 C 5.914062 34.925781 6.230469 34.441406 6.90625 34.441406 C 7.160156 34.441406 7.398438 34.535156 7.59375 34.722656 L 7.359375 34.941406 C 7.234375 34.824219 7.070312 34.769531 6.90625 34.769531 C 6.453125 34.769531 6.261719 35.101562 6.261719 35.40625 C 6.265625 35.707031 6.445312 36.023438 6.90625 36.023438 C 7.070312 36.023438 7.253906 35.960938 7.375 35.839844 Z M 7.617188 36.078125 "/>
<path style=" stroke:none;fill-rule:nonzero;fill:rgb(18.823529%,24.313725%,28.235294%);fill-opacity:1;" d="M 8.570312 34.863281 L 8.222656 35.640625 L 8.917969 35.640625 Z M 9.058594 35.960938 L 8.082031 35.960938 L 7.921875 36.308594 L 7.539062 36.308594 L 8.378906 34.476562 L 8.761719 34.476562 L 9.601562 36.308594 L 9.21875 36.308594 Z M 9.058594 35.960938 "/>
<path style=" stroke:none;fill-rule:nonzero;fill:rgb(18.823529%,24.313725%,28.235294%);fill-opacity:1;" d="M 9.734375 34.476562 L 10.085938 34.476562 L 10.085938 36.308594 L 9.734375 36.308594 Z M 9.734375 34.476562 "/>
<path style=" stroke:none;fill-rule:nonzero;fill:rgb(18.823529%,24.313725%,28.235294%);fill-opacity:1;" d="M 11.625 34.921875 C 11.5625 34.816406 11.382812 34.714844 11.179688 34.714844 C 10.917969 34.714844 10.792969 34.824219 10.792969 34.957031 C 10.792969 35.117188 10.988281 35.164062 11.210938 35.1875 C 11.601562 35.234375 11.964844 35.335938 11.964844 35.769531 C 11.964844 36.179688 11.59375 36.355469 11.179688 36.355469 C 10.796875 36.355469 10.503906 36.238281 10.363281 35.90625 L 10.65625 35.757812 C 10.742188 35.957031 10.957031 36.046875 11.183594 36.046875 C 11.40625 36.046875 11.613281 35.96875 11.613281 35.769531 C 11.613281 35.597656 11.429688 35.527344 11.179688 35.503906 C 10.800781 35.457031 10.445312 35.359375 10.445312 34.949219 C 10.445312 34.570312 10.824219 34.417969 11.171875 34.414062 C 11.460938 34.414062 11.761719 34.496094 11.90625 34.777344 Z M 11.625 34.921875 "/>
<path style=" stroke:none;fill-rule:nonzero;fill:rgb(18.823529%,24.313725%,28.235294%);fill-opacity:1;" d="M 13.390625 34.921875 C 13.328125 34.816406 13.148438 34.714844 12.949219 34.714844 C 12.6875 34.714844 12.558594 34.824219 12.558594 34.957031 C 12.558594 35.117188 12.753906 35.164062 12.976562 35.1875 C 13.367188 35.234375 13.730469 35.335938 13.730469 35.769531 C 13.730469 36.179688 13.363281 36.355469 12.945312 36.355469 C 12.5625 36.355469 12.269531 36.238281 12.128906 35.90625 L 12.421875 35.757812 C 12.507812 35.957031 12.722656 36.046875 12.949219 36.046875 C 13.171875 36.046875 13.378906 35.96875 13.378906 35.769531 C 13.378906 35.597656 13.195312 35.527344 12.949219 35.503906 C 12.566406 35.457031 12.210938 35.359375 12.210938 34.949219 C 12.210938 34.570312 12.59375 34.417969 12.9375 34.414062 C 13.226562 34.414062 13.53125 34.496094 13.671875 34.777344 Z M 13.390625 34.921875 "/>
<path style=" stroke:none;fill-rule:nonzero;fill:rgb(18.823529%,24.313725%,28.235294%);fill-opacity:1;" d="M 15.398438 36.308594 L 13.996094 36.308594 L 13.996094 34.476562 L 15.398438 34.476562 L 15.398438 34.8125 L 14.347656 34.8125 L 14.347656 35.234375 L 15.359375 35.234375 L 15.359375 35.554688 L 14.347656 35.554688 L 14.347656 35.96875 L 15.398438 35.96875 Z M 15.398438 36.308594 "/>
<path style=" stroke:none;fill-rule:nonzero;fill:rgb(18.823529%,24.313725%,28.235294%);fill-opacity:1;" d="M 16.535156 35.976562 L 16.921875 35.976562 C 17.34375 35.976562 17.511719 35.671875 17.503906 35.375 C 17.496094 35.089844 17.328125 34.804688 16.921875 34.804688 L 16.535156 34.804688 Z M 17.855469 35.375 C 17.863281 35.839844 17.574219 36.308594 16.921875 36.308594 L 16.1875 36.308594 L 16.1875 34.476562 L 16.921875 34.476562 C 17.5625 34.476562 17.847656 34.925781 17.855469 35.375 "/>
<path style=" stroke:none;fill-rule:nonzero;fill:rgb(18.823529%,24.313725%,28.235294%);fill-opacity:1;" d="M 19.484375 36.308594 L 18.082031 36.308594 L 18.082031 34.476562 L 19.484375 34.476562 L 19.484375 34.8125 L 18.433594 34.8125 L 18.433594 35.234375 L 19.445312 35.234375 L 19.445312 35.554688 L 18.433594 35.554688 L 18.433594 35.96875 L 19.484375 35.96875 Z M 19.484375 36.308594 "/>
<path style=" stroke:none;fill-rule:nonzero;fill:rgb(18.823529%,24.313725%,28.235294%);fill-opacity:1;" d="M 20.621094 35.976562 L 21.003906 35.976562 C 21.429688 35.976562 21.597656 35.671875 21.589844 35.375 C 21.582031 35.089844 21.410156 34.804688 21.003906 34.804688 L 20.621094 34.804688 Z M 21.941406 35.375 C 21.949219 35.839844 21.660156 36.308594 21.003906 36.308594 L 20.269531 36.308594 L 20.269531 34.476562 L 21.003906 34.476562 C 21.648438 34.476562 21.933594 34.925781 21.941406 35.375 "/>
<path style=" stroke:none;fill-rule:nonzero;fill:rgb(18.823529%,24.313725%,28.235294%);fill-opacity:1;" d="M 23.308594 33.921875 L 22.925781 33.921875 L 22.726562 34.277344 L 22.726562 34.292969 L 23.015625 34.292969 L 23.308594 33.933594 Z M 23.566406 36.308594 L 22.167969 36.308594 L 22.167969 34.476562 L 23.566406 34.476562 L 23.566406 34.8125 L 22.519531 34.8125 L 22.519531 35.234375 L 23.53125 35.234375 L 23.53125 35.554688 L 22.519531 35.554688 L 22.519531 35.96875 L 23.566406 35.96875 Z M 23.566406 36.308594 "/>
<path style=" stroke:none;fill-rule:nonzero;fill:rgb(18.823529%,24.313725%,28.235294%);fill-opacity:1;" d="M 24.179688 35.453125 L 24.707031 35.453125 C 25.160156 35.453125 25.15625 34.804688 24.707031 34.804688 L 24.179688 34.804688 Z M 24.707031 35.769531 L 24.179688 35.769531 L 24.179688 36.308594 L 23.828125 36.308594 L 23.828125 34.476562 C 24.121094 34.476562 24.414062 34.476562 24.707031 34.476562 C 25.621094 34.476562 25.625 35.769531 24.707031 35.769531 "/>
<path style=" stroke:none;fill-rule:nonzero;fill:rgb(18.823529%,24.313725%,28.235294%);fill-opacity:1;" d="M 26.453125 33.902344 L 26.632812 33.902344 L 27.027344 34.265625 L 27.027344 34.28125 L 26.695312 34.28125 L 26.542969 34.125 L 26.390625 34.28125 L 26.058594 34.28125 L 26.058594 34.265625 Z M 25.898438 35.410156 C 25.90625 35.710938 26.070312 36.03125 26.511719 36.03125 C 26.953125 36.03125 27.117188 35.707031 27.125 35.40625 C 27.128906 35.101562 26.953125 34.753906 26.511719 34.753906 C 26.070312 34.753906 25.890625 35.101562 25.898438 35.410156 M 27.472656 35.402344 C 27.464844 35.875 27.167969 36.347656 26.511719 36.347656 C 25.855469 36.347656 25.550781 35.886719 25.550781 35.40625 C 25.550781 34.925781 25.867188 34.441406 26.511719 34.441406 C 27.15625 34.441406 27.476562 34.925781 27.472656 35.402344 "/>
<path style=" stroke:none;fill-rule:nonzero;fill:rgb(18.823529%,24.313725%,28.235294%);fill-opacity:1;" d="M 28.105469 34.792969 L 27.511719 34.792969 L 27.511719 34.476562 L 29.050781 34.476562 L 29.050781 34.792969 L 28.457031 34.792969 L 28.457031 36.308594 L 28.105469 36.308594 Z M 28.105469 34.792969 "/>
<path style=" stroke:none;fill-rule:nonzero;fill:rgb(18.823529%,24.313725%,28.235294%);fill-opacity:1;" d="M 31.199219 36.308594 L 29.800781 36.308594 L 29.800781 34.476562 L 31.199219 34.476562 L 31.199219 34.8125 L 30.148438 34.8125 L 30.148438 35.234375 L 31.160156 35.234375 L 31.160156 35.554688 L 30.148438 35.554688 L 30.148438 35.96875 L 31.199219 35.96875 Z M 31.199219 36.308594 "/>
<path style=" stroke:none;fill-rule:nonzero;fill:rgb(18.823529%,24.313725%,28.235294%);fill-opacity:1;" d="M 32.066406 34.792969 L 31.472656 34.792969 L 31.472656 34.476562 L 33.011719 34.476562 L 33.011719 34.792969 L 32.417969 34.792969 L 32.417969 36.308594 L 32.066406 36.308594 Z M 32.066406 34.792969 "/>
<path style=" stroke:none;fill-rule:nonzero;fill:rgb(18.823529%,24.313725%,28.235294%);fill-opacity:1;" d="M 34.089844 35.976562 L 34.472656 35.976562 C 34.898438 35.976562 35.066406 35.671875 35.058594 35.375 C 35.050781 35.089844 34.878906 34.804688 34.472656 34.804688 L 34.089844 34.804688 Z M 35.410156 35.375 C 35.417969 35.839844 35.128906 36.308594 34.472656 36.308594 L 33.742188 36.308594 L 33.742188 34.476562 L 34.472656 34.476562 C 35.117188 34.476562 35.402344 34.925781 35.410156 35.375 "/>
<path style=" stroke:none;fill-rule:nonzero;fill:rgb(18.823529%,24.313725%,28.235294%);fill-opacity:1;" d="M 37.035156 36.308594 L 35.636719 36.308594 L 35.636719 34.476562 L 37.035156 34.476562 L 37.035156 34.8125 L 35.988281 34.8125 L 35.988281 35.234375 L 37 35.234375 L 37 35.554688 L 35.988281 35.554688 L 35.988281 35.96875 L 37.035156 35.96875 Z M 37.035156 36.308594 "/>
<path style=" stroke:none;fill-rule:nonzero;fill:rgb(18.823529%,24.313725%,28.235294%);fill-opacity:1;" d="M 39.238281 34.925781 C 39.113281 34.808594 38.925781 34.742188 38.761719 34.742188 C 38.363281 34.742188 38.117188 35.039062 38.117188 35.417969 C 38.117188 35.714844 38.296875 36.027344 38.761719 36.027344 C 38.910156 36.027344 39.039062 35.996094 39.183594 35.882812 L 39.183594 35.558594 L 38.707031 35.558594 L 38.707031 35.25 L 39.507812 35.25 L 39.507812 36.019531 C 39.324219 36.226562 39.089844 36.347656 38.761719 36.347656 C 38.058594 36.347656 37.773438 35.894531 37.773438 35.417969 C 37.773438 34.902344 38.101562 34.425781 38.761719 34.425781 C 39.015625 34.425781 39.265625 34.519531 39.457031 34.707031 Z M 39.238281 34.925781 "/>
<path style=" stroke:none;fill-rule:nonzero;fill:rgb(18.823529%,24.313725%,28.235294%);fill-opacity:1;" d="M 41.191406 36.308594 L 39.792969 36.308594 L 39.792969 34.476562 L 41.191406 34.476562 L 41.191406 34.8125 L 40.140625 34.8125 L 40.140625 35.234375 L 41.152344 35.234375 L 41.152344 35.554688 L 40.140625 35.554688 L 40.140625 35.96875 L 41.191406 35.96875 Z M 41.191406 36.308594 "/>
<path style=" stroke:none;fill-rule:nonzero;fill:rgb(18.823529%,24.313725%,28.235294%);fill-opacity:1;" d="M 42.675781 34.921875 C 42.609375 34.816406 42.433594 34.714844 42.230469 34.714844 C 41.96875 34.714844 41.84375 34.824219 41.84375 34.957031 C 41.84375 35.117188 42.035156 35.164062 42.261719 35.1875 C 42.648438 35.234375 43.011719 35.335938 43.011719 35.769531 C 43.011719 36.179688 42.644531 36.355469 42.226562 36.355469 C 41.847656 36.355469 41.550781 36.238281 41.414062 35.90625 L 41.707031 35.757812 C 41.789062 35.957031 42.007812 36.046875 42.234375 36.046875 C 42.457031 36.046875 42.664062 35.96875 42.664062 35.769531 C 42.664062 35.597656 42.480469 35.527344 42.230469 35.503906 C 41.847656 35.457031 41.496094 35.359375 41.496094 34.949219 C 41.496094 34.570312 41.875 34.417969 42.21875 34.414062 C 42.511719 34.414062 42.8125 34.496094 42.953125 34.777344 Z M 42.675781 34.921875 "/>
<path style=" stroke:none;fill-rule:nonzero;fill:rgb(18.823529%,24.313725%,28.235294%);fill-opacity:1;" d="M 43.769531 34.792969 L 43.175781 34.792969 L 43.175781 34.476562 L 44.714844 34.476562 L 44.714844 34.792969 L 44.121094 34.792969 L 44.121094 36.308594 L 43.769531 36.308594 Z M 43.769531 34.792969 "/>
<path style=" stroke:none;fill-rule:nonzero;fill:rgb(18.823529%,24.313725%,28.235294%);fill-opacity:1;" d="M 44.933594 34.476562 L 45.28125 34.476562 L 45.28125 36.308594 L 44.933594 36.308594 Z M 44.933594 34.476562 "/>
<path style=" stroke:none;fill-rule:nonzero;fill:rgb(18.823529%,24.313725%,28.235294%);fill-opacity:1;" d="M 45.933594 35.410156 C 45.941406 35.710938 46.109375 36.03125 46.546875 36.03125 C 46.988281 36.03125 47.15625 35.707031 47.160156 35.40625 C 47.167969 35.101562 46.988281 34.753906 46.546875 34.753906 C 46.109375 34.753906 45.925781 35.101562 45.933594 35.410156 M 47.507812 35.402344 C 47.503906 35.875 47.207031 36.347656 46.546875 36.347656 C 45.890625 36.347656 45.585938 35.886719 45.585938 35.40625 C 45.585938 34.925781 45.902344 34.441406 46.546875 34.441406 C 47.191406 34.441406 47.511719 34.925781 47.507812 35.402344 "/>
<path style=" stroke:none;fill-rule:nonzero;fill:rgb(18.823529%,24.313725%,28.235294%);fill-opacity:1;" d="M 48.996094 34.476562 L 49.347656 34.476562 L 49.347656 36.308594 L 49.128906 36.308594 L 48.144531 35.074219 L 48.144531 36.304688 L 47.792969 36.304688 L 47.792969 34.476562 L 48.078125 34.476562 L 48.996094 35.613281 Z M 48.996094 34.476562 "/>
<path style=" stroke:none;fill-rule:nonzero;fill:rgb(18.823529%,24.313725%,28.235294%);fill-opacity:1;" d="M 15.902344 30.601562 L 16.324219 30.601562 L 16.324219 30.183594 L 15.902344 30.183594 Z M 15.902344 30.601562 "/>
<path style=" stroke:none;fill-rule:nonzero;fill:rgb(18.823529%,24.313725%,28.235294%);fill-opacity:1;" d="M 15.308594 30.601562 L 15.726562 30.601562 L 15.726562 30.183594 L 15.308594 30.183594 Z M 15.308594 30.601562 "/>
<path style=" stroke:none;fill-rule:nonzero;fill:rgb(18.823529%,24.313725%,28.235294%);fill-opacity:1;" d="M 16.839844 29.515625 L 16.324219 29.515625 L 16.324219 28.363281 L 15.902344 28.363281 L 15.902344 29.515625 L 13.625 29.515625 L 13.625 28.363281 L 13.207031 28.363281 L 13.207031 29.914062 C 13.207031 30.101562 13.101562 30.199219 12.894531 30.199219 L 12.84375 30.199219 L 12.84375 30.601562 L 12.898438 30.601562 C 13.28125 30.601562 13.605469 30.453125 13.625 29.925781 L 17.261719 29.925781 L 17.261719 28.363281 L 16.839844 28.363281 Z M 16.839844 29.515625 "/>
<path style=" stroke:none;fill-rule:nonzero;fill:rgb(18.823529%,24.313725%,28.235294%);fill-opacity:1;" d="M 16.839844 30.601562 L 17.261719 30.601562 L 17.261719 30.183594 L 16.839844 30.183594 Z M 16.839844 30.601562 "/>
<path style=" stroke:none;fill-rule:nonzero;fill:rgb(18.823529%,24.313725%,28.235294%);fill-opacity:1;" d="M 19.636719 27.695312 L 19.214844 27.695312 L 19.214844 28.109375 L 19.636719 28.109375 Z M 19.636719 27.695312 "/>
<path style=" stroke:none;fill-rule:nonzero;fill:rgb(18.823529%,24.313725%,28.235294%);fill-opacity:1;" d="M 20.234375 27.695312 L 19.8125 27.695312 L 19.8125 28.109375 L 20.234375 28.109375 Z M 20.234375 27.695312 "/>
<path style=" stroke:none;fill-rule:nonzero;fill:rgb(18.823529%,24.313725%,28.235294%);fill-opacity:1;" d="M 20.75 29.515625 L 20.234375 29.515625 L 20.234375 28.363281 L 19.8125 28.363281 L 19.8125 29.515625 L 18.929688 29.515625 L 18.929688 29.261719 C 18.929688 28.925781 18.8125 28.679688 18.582031 28.523438 C 18.425781 28.414062 18.234375 28.359375 18.007812 28.359375 L 17.871094 28.359375 L 17.871094 28.769531 C 18.023438 28.773438 18.128906 28.785156 18.191406 28.804688 C 18.257812 28.824219 18.316406 28.855469 18.375 28.90625 C 18.464844 28.976562 18.503906 29.097656 18.503906 29.265625 L 18.503906 29.515625 L 17.578125 29.515625 L 17.578125 29.925781 L 21.171875 29.925781 L 21.171875 27.695312 L 20.75 27.695312 Z M 20.75 29.515625 "/>
<path style=" stroke:none;fill-rule:nonzero;fill:rgb(18.823529%,24.313725%,28.235294%);fill-opacity:1;" d="M 21.488281 29.925781 L 21.90625 29.925781 L 21.90625 27.695312 L 21.488281 27.695312 Z M 21.488281 29.925781 "/>
<path style=" stroke:none;fill-rule:nonzero;fill:rgb(18.823529%,24.313725%,28.235294%);fill-opacity:1;" d="M 22.988281 29.515625 L 22.878906 29.515625 C 22.730469 29.515625 22.652344 29.429688 22.652344 29.261719 L 22.652344 29.023438 C 22.652344 28.855469 22.730469 28.773438 22.878906 28.773438 L 22.988281 28.773438 Z M 22.230469 28.988281 L 22.230469 29.296875 C 22.230469 29.675781 22.503906 29.925781 22.894531 29.925781 L 22.988281 29.925781 L 22.988281 30.042969 C 22.988281 30.078125 22.980469 30.109375 22.964844 30.128906 C 22.945312 30.167969 22.890625 30.183594 22.808594 30.183594 L 22.230469 30.183594 L 22.230469 30.601562 L 22.769531 30.601562 C 23.183594 30.601562 23.414062 30.386719 23.414062 29.992188 L 23.414062 28.363281 L 22.894531 28.363281 C 22.503906 28.363281 22.230469 28.617188 22.230469 28.988281 "/>
<path style=" stroke:none;fill-rule:nonzero;fill:rgb(18.823529%,24.313725%,28.235294%);fill-opacity:1;" d="M 24.800781 30.058594 C 24.800781 29.972656 24.855469 29.925781 24.960938 29.925781 L 25.835938 29.925781 L 25.835938 29.515625 L 25.449219 29.515625 C 25.300781 29.515625 25.199219 29.496094 25.144531 29.449219 C 25.042969 29.378906 24.992188 29.277344 24.992188 29.152344 C 24.992188 28.921875 25.148438 28.773438 25.390625 28.773438 L 25.84375 28.773438 L 25.84375 28.363281 L 25.375 28.363281 C 25.144531 28.363281 24.953125 28.441406 24.796875 28.59375 C 24.644531 28.746094 24.570312 28.9375 24.570312 29.164062 C 24.570312 29.308594 24.613281 29.441406 24.710938 29.558594 C 24.492188 29.664062 24.386719 29.828125 24.386719 30.046875 C 24.386719 30.269531 24.535156 30.488281 24.730469 30.558594 C 24.816406 30.589844 24.933594 30.601562 25.082031 30.601562 L 25.945312 30.601562 L 25.945312 30.183594 L 24.960938 30.183594 C 24.855469 30.183594 24.800781 30.144531 24.800781 30.058594 "/>
<path style=" stroke:none;fill-rule:nonzero;fill:rgb(18.823529%,24.313725%,28.235294%);fill-opacity:1;" d="M 26.261719 29.925781 L 26.679688 29.925781 L 26.679688 27.695312 L 26.261719 27.695312 Z M 26.261719 29.925781 "/>
<path style=" stroke:none;fill-rule:nonzero;fill:rgb(18.823529%,24.313725%,28.235294%);fill-opacity:1;" d="M 29.242188 29.515625 L 28.355469 29.515625 L 28.355469 29.261719 C 28.355469 28.925781 28.238281 28.679688 28.011719 28.523438 C 27.851562 28.414062 27.660156 28.359375 27.433594 28.359375 L 27.296875 28.359375 L 27.296875 28.769531 C 27.449219 28.773438 27.554688 28.785156 27.617188 28.804688 C 27.6875 28.824219 27.746094 28.855469 27.800781 28.90625 C 27.890625 28.976562 27.933594 29.097656 27.933594 29.265625 L 27.933594 29.515625 L 27.003906 29.515625 L 27.003906 29.925781 L 29.660156 29.925781 L 29.660156 28.363281 L 29.242188 28.363281 Z M 29.242188 29.515625 "/>
<path style=" stroke:none;fill-rule:nonzero;fill:rgb(18.823529%,24.313725%,28.235294%);fill-opacity:1;" d="M 29.242188 30.601562 L 29.660156 30.601562 L 29.660156 30.183594 L 29.242188 30.183594 Z M 29.242188 30.601562 "/>
<path style=" stroke:none;fill-rule:nonzero;fill:rgb(18.823529%,24.313725%,28.235294%);fill-opacity:1;" d="M 28.644531 30.601562 L 29.0625 30.601562 L 29.0625 30.183594 L 28.644531 30.183594 Z M 28.644531 30.601562 "/>
<path style=" stroke:none;fill-rule:nonzero;fill:rgb(18.823529%,24.313725%,28.235294%);fill-opacity:1;" d="M 31.335938 29.515625 L 30.914062 29.515625 L 30.914062 27.695312 L 30.496094 27.695312 L 30.496094 29.515625 L 29.976562 29.515625 L 29.976562 29.925781 L 31.761719 29.925781 L 31.761719 27.695312 L 31.335938 27.695312 Z M 31.335938 29.515625 "/>
<path style=" stroke:none;fill-rule:nonzero;fill:rgb(18.823529%,24.313725%,28.235294%);fill-opacity:1;" d="M 30.210938 30.527344 C 30.210938 30.453125 30.25 30.417969 30.3125 30.417969 L 30.457031 30.417969 L 30.457031 30.253906 L 30.328125 30.253906 C 30.167969 30.253906 30.046875 30.371094 30.046875 30.535156 C 30.046875 30.5625 30.058594 30.59375 30.070312 30.625 L 29.976562 30.625 L 29.976562 30.78125 L 30.519531 30.78125 L 30.519531 30.625 L 30.324219 30.625 C 30.25 30.625 30.210938 30.59375 30.210938 30.527344 "/>
<path style=" stroke:none;fill-rule:nonzero;fill:rgb(18.823529%,24.313725%,28.235294%);fill-opacity:1;" d="M 32.078125 29.925781 L 32.5 29.925781 L 32.5 27.695312 L 32.078125 27.695312 Z M 32.078125 29.925781 "/>
<path style=" stroke:none;fill-rule:nonzero;fill:rgb(18.823529%,24.313725%,28.235294%);fill-opacity:1;" d="M 34.660156 27.695312 L 34.238281 27.695312 L 34.238281 28.109375 L 34.660156 28.109375 Z M 34.660156 27.695312 "/>
<path style=" stroke:none;fill-rule:nonzero;fill:rgb(18.823529%,24.313725%,28.235294%);fill-opacity:1;" d="M 35.257812 27.695312 L 34.832031 27.695312 L 34.832031 28.109375 L 35.257812 28.109375 Z M 35.257812 27.695312 "/>
<path style=" stroke:none;fill-rule:nonzero;fill:rgb(18.823529%,24.313725%,28.235294%);fill-opacity:1;" d="M 34.933594 29.515625 C 34.726562 29.414062 34.566406 29.207031 34.566406 29.011719 C 34.566406 28.851562 34.65625 28.773438 34.835938 28.773438 L 34.933594 28.773438 Z M 34.132812 29.007812 C 34.132812 29.472656 34.46875 29.839844 34.933594 29.921875 L 34.933594 30.042969 C 34.917969 30.160156 34.882812 30.183594 34.75 30.183594 L 34.082031 30.183594 C 33.953125 30.183594 33.914062 30.160156 33.898438 30.042969 L 33.898438 28.917969 L 33.476562 28.917969 L 33.476562 29.992188 C 33.476562 30.386719 33.707031 30.601562 34.121094 30.601562 L 34.710938 30.601562 C 35.125 30.601562 35.355469 30.386719 35.355469 29.992188 L 35.355469 28.363281 L 34.863281 28.363281 C 34.328125 28.363281 34.132812 28.640625 34.132812 29.007812 "/>
<path style=" stroke:none;fill-rule:nonzero;fill:rgb(18.823529%,24.313725%,28.235294%);fill-opacity:1;" d="M 36.429688 29.515625 L 36.320312 29.515625 C 36.167969 29.515625 36.089844 29.429688 36.089844 29.261719 L 36.089844 29.023438 C 36.089844 28.855469 36.167969 28.773438 36.320312 28.773438 L 36.429688 28.773438 Z M 35.671875 28.988281 L 35.671875 29.296875 C 35.671875 29.675781 35.941406 29.925781 36.332031 29.925781 L 36.429688 29.925781 L 36.429688 30.042969 C 36.429688 30.078125 36.417969 30.109375 36.40625 30.128906 C 36.382812 30.167969 36.332031 30.183594 36.25 30.183594 L 35.671875 30.183594 L 35.671875 30.601562 L 36.210938 30.601562 C 36.625 30.601562 36.851562 30.386719 36.851562 29.992188 L 36.851562 28.363281 L 36.332031 28.363281 C 35.941406 28.363281 35.671875 28.617188 35.671875 28.988281 "/>
<path style=" stroke:none;fill-rule:nonzero;fill:rgb(18.823529%,24.313725%,28.235294%);fill-opacity:1;" d="M 39.457031 27.695312 L 39.039062 27.695312 L 39.039062 28.109375 L 39.457031 28.109375 Z M 39.457031 27.695312 "/>
<path style=" stroke:none;fill-rule:nonzero;fill:rgb(18.823529%,24.313725%,28.235294%);fill-opacity:1;" d="M 42 29.515625 L 41.050781 29.515625 L 41.050781 28.773438 L 41.773438 28.773438 C 41.925781 28.773438 42 28.855469 42 29.023438 Z M 41.757812 28.363281 L 40.628906 28.363281 L 40.628906 29.515625 L 40.390625 29.515625 L 40.390625 28.847656 L 39.964844 28.847656 L 39.964844 29.515625 L 39.457031 29.515625 L 39.457031 28.363281 L 39.039062 28.363281 L 39.039062 29.515625 L 38.519531 29.515625 L 38.519531 29.261719 C 38.519531 28.925781 38.402344 28.679688 38.175781 28.523438 C 38.015625 28.414062 37.824219 28.359375 37.597656 28.359375 L 37.460938 28.359375 L 37.460938 28.769531 C 37.613281 28.773438 37.71875 28.785156 37.78125 28.804688 C 37.851562 28.824219 37.910156 28.855469 37.964844 28.90625 C 38.054688 28.976562 38.097656 29.097656 38.097656 29.265625 L 38.097656 29.515625 L 37.167969 29.515625 L 37.167969 29.925781 L 42.421875 29.925781 L 42.421875 28.988281 C 42.421875 28.617188 42.152344 28.363281 41.757812 28.363281 "/>
<path style=" stroke:none;fill-rule:nonzero;fill:rgb(18.823529%,24.313725%,28.235294%);fill-opacity:1;" d="M 11.386719 32.71875 L 10.839844 32.71875 L 10.839844 33.421875 L 10.515625 33.421875 L 10.515625 32.71875 L 9.980469 32.71875 L 9.980469 32.40625 L 10.511719 32.40625 L 10.511719 31.691406 L 10.839844 31.691406 L 10.839844 32.398438 L 11.386719 32.398438 Z M 11.386719 32.71875 "/>
<path style=" stroke:none;fill-rule:nonzero;fill:rgb(18.823529%,24.313725%,28.235294%);fill-opacity:1;" d="M 11.878906 32.984375 C 11.878906 33.007812 11.882812 33.03125 11.894531 33.058594 C 11.90625 33.082031 11.921875 33.101562 11.941406 33.117188 C 11.957031 33.136719 11.980469 33.148438 12.007812 33.160156 C 12.035156 33.167969 12.0625 33.171875 12.089844 33.171875 C 12.121094 33.171875 12.148438 33.167969 12.171875 33.160156 C 12.195312 33.148438 12.21875 33.136719 12.238281 33.117188 C 12.257812 33.101562 12.273438 33.082031 12.28125 33.058594 C 12.292969 33.03125 12.296875 33.007812 12.296875 32.984375 C 12.296875 32.957031 12.292969 32.929688 12.28125 32.90625 C 12.273438 32.886719 12.257812 32.867188 12.238281 32.847656 C 12.21875 32.832031 12.195312 32.820312 12.171875 32.808594 C 12.148438 32.796875 12.121094 32.792969 12.089844 32.792969 C 12.0625 32.792969 12.035156 32.796875 12.007812 32.808594 C 11.980469 32.820312 11.957031 32.832031 11.941406 32.847656 C 11.921875 32.867188 11.90625 32.886719 11.894531 32.90625 C 11.882812 32.929688 11.878906 32.957031 11.878906 32.984375 M 11.636719 32.996094 C 11.636719 32.9375 11.652344 32.878906 11.675781 32.828125 C 11.699219 32.773438 11.730469 32.726562 11.773438 32.6875 C 11.8125 32.648438 11.859375 32.621094 11.917969 32.597656 C 11.972656 32.574219 12.03125 32.5625 12.09375 32.5625 C 12.15625 32.5625 12.214844 32.574219 12.269531 32.597656 C 12.324219 32.621094 12.375 32.648438 12.414062 32.6875 C 12.453125 32.726562 12.488281 32.773438 12.511719 32.828125 C 12.535156 32.878906 12.546875 32.9375 12.546875 32.996094 C 12.546875 33.089844 12.527344 33.167969 12.480469 33.230469 C 12.433594 33.292969 12.378906 33.335938 12.308594 33.367188 C 12.242188 33.398438 12.167969 33.414062 12.089844 33.414062 C 12.011719 33.414062 11.9375 33.398438 11.871094 33.367188 C 11.804688 33.335938 11.75 33.292969 11.703125 33.230469 C 11.660156 33.167969 11.636719 33.089844 11.636719 32.996094 "/>
<path style=" stroke:none;fill-rule:nonzero;fill:rgb(18.823529%,24.313725%,28.235294%);fill-opacity:1;" d="M 13.542969 32.765625 L 13.542969 33.417969 L 12.84375 33.417969 L 12.84375 33.101562 L 13.210938 33.101562 L 13.210938 32.011719 L 12.835938 32.011719 L 12.835938 31.691406 L 13.539062 31.691406 L 13.539062 32.445312 L 13.835938 32.441406 L 13.835938 31.6875 L 14.535156 31.6875 L 14.535156 32.011719 L 14.164062 32.007812 L 14.164062 33.097656 L 14.527344 33.097656 L 14.527344 33.414062 L 13.832031 33.414062 L 13.832031 32.761719 Z M 13.542969 32.765625 "/>
<path style=" stroke:none;fill-rule:nonzero;fill:rgb(18.823529%,24.313725%,28.235294%);fill-opacity:1;" d="M 15.195312 33.4375 L 14.867188 33.4375 L 14.867188 31.691406 L 15.195312 31.691406 Z M 15.195312 33.4375 "/>
<path style=" stroke:none;fill-rule:nonzero;fill:rgb(18.823529%,24.313725%,28.235294%);fill-opacity:1;" d="M 16.996094 33.488281 L 15.597656 33.066406 L 16.328125 32.578125 L 15.59375 32.097656 L 16.988281 31.65625 L 16.988281 31.976562 L 16.253906 32.191406 L 16.878906 32.558594 L 16.308594 32.949219 L 16.996094 33.164062 Z M 16.996094 33.488281 "/>
<path style=" stroke:none;fill-rule:nonzero;fill:rgb(18.823529%,24.313725%,28.235294%);fill-opacity:1;" d="M 18.175781 32.003906 L 17.617188 32.003906 L 17.617188 32.792969 Z M 18.535156 33.425781 L 17.292969 33.425781 L 17.292969 31.683594 L 18.519531 31.683594 L 18.519531 32.011719 L 17.71875 33.105469 L 18.535156 33.105469 Z M 18.535156 33.425781 "/>
<path style=" stroke:none;fill-rule:nonzero;fill:rgb(18.823529%,24.313725%,28.235294%);fill-opacity:1;" d="M 20.332031 32.71875 L 19.78125 32.71875 L 19.78125 33.421875 L 19.460938 33.421875 L 19.460938 32.71875 L 18.925781 32.71875 L 18.925781 32.40625 L 19.457031 32.40625 L 19.457031 31.691406 L 19.78125 31.691406 L 19.78125 32.398438 L 20.332031 32.398438 Z M 20.332031 32.71875 "/>
<path style=" stroke:none;fill-rule:nonzero;fill:rgb(18.823529%,24.313725%,28.235294%);fill-opacity:1;" d="M 21.933594 33.4375 L 21.609375 33.4375 L 21.609375 31.691406 L 21.933594 31.691406 Z M 21.933594 33.4375 "/>
<path style=" stroke:none;fill-rule:nonzero;fill:rgb(18.823529%,24.313725%,28.235294%);fill-opacity:1;" d="M 23.554688 33.046875 C 23.554688 33.070312 23.558594 33.089844 23.566406 33.113281 C 23.574219 33.132812 23.589844 33.148438 23.605469 33.164062 C 23.621094 33.179688 23.640625 33.191406 23.664062 33.199219 C 23.6875 33.207031 23.710938 33.210938 23.738281 33.210938 C 23.765625 33.210938 23.789062 33.207031 23.8125 33.199219 C 23.832031 33.191406 23.851562 33.179688 23.871094 33.164062 C 23.886719 33.148438 23.898438 33.132812 23.910156 33.113281 C 23.917969 33.089844 23.925781 33.070312 23.925781 33.046875 C 23.925781 33.027344 23.917969 33.003906 23.910156 32.984375 C 23.898438 32.964844 23.886719 32.949219 23.871094 32.933594 C 23.851562 32.917969 23.832031 32.90625 23.8125 32.898438 C 23.789062 32.890625 23.765625 32.882812 23.738281 32.882812 C 23.710938 32.882812 23.6875 32.890625 23.664062 32.898438 C 23.640625 32.90625 23.621094 32.917969 23.605469 32.933594 C 23.589844 32.949219 23.574219 32.964844 23.566406 32.984375 C 23.558594 33.003906 23.554688 33.027344 23.554688 33.046875 M 23.550781 32.074219 C 23.550781 32.09375 23.558594 32.113281 23.566406 32.132812 C 23.574219 32.152344 23.589844 32.167969 23.605469 32.183594 C 23.621094 32.195312 23.640625 32.207031 23.664062 32.21875 C 23.6875 32.226562 23.714844 32.230469 23.738281 32.230469 C 23.765625 32.230469 23.792969 32.226562 23.8125 32.21875 C 23.835938 32.207031 23.855469 32.195312 23.875 32.183594 C 23.890625 32.167969 23.90625 32.152344 23.914062 32.132812 C 23.925781 32.113281 23.929688 32.09375 23.929688 32.074219 C 23.929688 32.050781 23.925781 32.03125 23.914062 32.011719 C 23.90625 31.992188 23.890625 31.972656 23.875 31.960938 C 23.855469 31.945312 23.835938 31.9375 23.8125 31.929688 C 23.792969 31.921875 23.765625 31.917969 23.738281 31.917969 C 23.714844 31.917969 23.6875 31.921875 23.664062 31.929688 C 23.640625 31.9375 23.621094 31.945312 23.605469 31.960938 C 23.589844 31.972656 23.574219 31.992188 23.566406 32.011719 C 23.558594 32.03125 23.550781 32.050781 23.550781 32.074219 M 23.320312 32.074219 C 23.320312 32.019531 23.332031 31.96875 23.355469 31.925781 C 23.378906 31.878906 23.410156 31.839844 23.445312 31.804688 C 23.484375 31.769531 23.527344 31.742188 23.582031 31.722656 C 23.632812 31.703125 23.691406 31.691406 23.75 31.691406 C 23.808594 31.691406 23.867188 31.703125 23.917969 31.722656 C 23.972656 31.742188 24.019531 31.769531 24.054688 31.804688 C 24.09375 31.839844 24.125 31.878906 24.148438 31.925781 C 24.171875 31.96875 24.183594 32.019531 24.183594 32.074219 C 24.183594 32.125 24.171875 32.175781 24.148438 32.222656 C 24.125 32.265625 24.09375 32.308594 24.054688 32.34375 C 24.019531 32.378906 23.972656 32.40625 23.917969 32.425781 C 23.867188 32.441406 23.808594 32.453125 23.75 32.453125 C 23.691406 32.453125 23.632812 32.441406 23.582031 32.425781 C 23.527344 32.40625 23.484375 32.378906 23.445312 32.34375 C 23.410156 32.308594 23.378906 32.265625 23.355469 32.222656 C 23.332031 32.175781 23.320312 32.125 23.320312 32.074219 M 23.308594 33.050781 C 23.308594 32.996094 23.320312 32.949219 23.34375 32.902344 C 23.367188 32.859375 23.398438 32.816406 23.4375 32.78125 C 23.472656 32.75 23.519531 32.722656 23.574219 32.699219 C 23.628906 32.679688 23.683594 32.667969 23.746094 32.667969 C 23.804688 32.667969 23.863281 32.679688 23.914062 32.699219 C 23.96875 32.722656 24.015625 32.75 24.050781 32.78125 C 24.089844 32.816406 24.121094 32.859375 24.144531 32.902344 C 24.167969 32.949219 24.179688 32.996094 24.179688 33.050781 C 24.179688 33.101562 24.167969 33.148438 24.144531 33.195312 C 24.121094 33.242188 24.089844 33.28125 24.050781 33.320312 C 24.015625 33.355469 23.96875 33.378906 23.914062 33.398438 C 23.863281 33.417969 23.804688 33.425781 23.746094 33.425781 C 23.683594 33.425781 23.628906 33.417969 23.574219 33.398438 C 23.519531 33.378906 23.472656 33.355469 23.4375 33.320312 C 23.398438 33.28125 23.367188 33.242188 23.34375 33.195312 C 23.320312 33.148438 23.308594 33.101562 23.308594 33.050781 "/>
<path style=" stroke:none;fill-rule:nonzero;fill:rgb(18.823529%,24.313725%,28.235294%);fill-opacity:1;" d="M 25.480469 32.558594 C 25.480469 32.601562 25.460938 32.640625 25.425781 32.671875 C 25.414062 32.695312 25.394531 32.707031 25.375 32.714844 C 25.355469 32.722656 25.332031 32.726562 25.308594 32.726562 C 25.265625 32.726562 25.226562 32.707031 25.191406 32.671875 C 25.160156 32.640625 25.140625 32.601562 25.140625 32.558594 C 25.140625 32.511719 25.160156 32.472656 25.191406 32.441406 C 25.226562 32.40625 25.265625 32.390625 25.308594 32.390625 C 25.355469 32.390625 25.394531 32.40625 25.429688 32.441406 C 25.464844 32.472656 25.480469 32.511719 25.480469 32.558594 M 24.730469 32.558594 C 24.730469 32.640625 24.746094 32.71875 24.777344 32.792969 C 24.808594 32.863281 24.847656 32.929688 24.902344 32.984375 C 24.953125 33.039062 25.015625 33.082031 25.085938 33.113281 C 25.160156 33.144531 25.234375 33.160156 25.308594 33.160156 C 25.394531 33.160156 25.472656 33.144531 25.542969 33.113281 C 25.613281 33.082031 25.675781 33.039062 25.730469 32.984375 C 25.785156 32.929688 25.824219 32.863281 25.855469 32.792969 C 25.886719 32.71875 25.902344 32.640625 25.902344 32.558594 C 25.902344 32.476562 25.886719 32.398438 25.855469 32.324219 C 25.824219 32.25 25.785156 32.1875 25.730469 32.132812 C 25.675781 32.078125 25.613281 32.035156 25.542969 32.003906 C 25.472656 31.96875 25.394531 31.953125 25.3125 31.953125 C 25.234375 31.953125 25.160156 31.96875 25.085938 32.003906 C 25.015625 32.035156 24.953125 32.078125 24.902344 32.132812 C 24.847656 32.1875 24.808594 32.25 24.777344 32.324219 C 24.746094 32.398438 24.730469 32.476562 24.730469 32.558594 M 26.191406 32.558594 C 26.191406 32.808594 26.101562 33.015625 25.921875 33.1875 C 25.746094 33.351562 25.542969 33.433594 25.308594 33.433594 C 25.058594 33.433594 24.851562 33.347656 24.6875 33.171875 C 24.523438 33 24.441406 32.796875 24.441406 32.558594 C 24.441406 32.304688 24.53125 32.09375 24.699219 31.929688 C 24.878906 31.769531 25.082031 31.691406 25.304688 31.691406 C 25.570312 31.691406 25.78125 31.777344 25.945312 31.949219 C 26.109375 32.121094 26.191406 32.324219 26.191406 32.558594 "/>
<path style=" stroke:none;fill-rule:nonzero;fill:rgb(18.823529%,24.313725%,28.235294%);fill-opacity:1;" d="M 26.789062 32.558594 C 26.789062 32.640625 26.804688 32.71875 26.832031 32.792969 C 26.863281 32.863281 26.90625 32.929688 26.957031 32.984375 C 27.011719 33.039062 27.070312 33.082031 27.144531 33.113281 C 27.214844 33.144531 27.292969 33.160156 27.371094 33.160156 C 27.453125 33.160156 27.527344 33.144531 27.597656 33.113281 C 27.671875 33.082031 27.734375 33.039062 27.785156 32.984375 C 27.839844 32.929688 27.882812 32.863281 27.910156 32.792969 C 27.941406 32.71875 27.957031 32.640625 27.957031 32.558594 C 27.957031 32.476562 27.941406 32.398438 27.910156 32.324219 C 27.882812 32.25 27.839844 32.1875 27.785156 32.132812 C 27.734375 32.078125 27.671875 32.035156 27.597656 32.003906 C 27.527344 31.96875 27.453125 31.953125 27.371094 31.953125 C 27.292969 31.953125 27.214844 31.96875 27.144531 32.003906 C 27.070312 32.035156 27.011719 32.078125 26.957031 32.132812 C 26.90625 32.1875 26.863281 32.25 26.832031 32.324219 C 26.804688 32.398438 26.789062 32.476562 26.789062 32.558594 M 28.246094 32.578125 C 28.246094 32.816406 28.15625 33.015625 27.980469 33.1875 C 27.804688 33.351562 27.597656 33.433594 27.363281 33.433594 C 27.113281 33.433594 26.90625 33.347656 26.746094 33.171875 C 26.582031 33 26.5 32.785156 26.5 32.527344 C 26.5 32.292969 26.589844 32.09375 26.773438 31.929688 C 26.953125 31.769531 27.15625 31.691406 27.382812 31.691406 C 27.621094 31.691406 27.824219 31.777344 27.992188 31.949219 C 28.160156 32.121094 28.246094 32.332031 28.246094 32.578125 "/>
<path style=" stroke:none;fill-rule:nonzero;fill:rgb(18.823529%,24.313725%,28.235294%);fill-opacity:1;" d="M 29.527344 32.558594 C 29.527344 32.601562 29.507812 32.640625 29.472656 32.671875 C 29.457031 32.695312 29.441406 32.707031 29.421875 32.714844 C 29.402344 32.722656 29.378906 32.726562 29.351562 32.726562 C 29.3125 32.726562 29.273438 32.707031 29.238281 32.671875 C 29.203125 32.640625 29.1875 32.601562 29.1875 32.558594 C 29.1875 32.511719 29.203125 32.472656 29.238281 32.441406 C 29.273438 32.40625 29.3125 32.390625 29.351562 32.390625 C 29.402344 32.390625 29.441406 32.40625 29.476562 32.441406 C 29.507812 32.472656 29.527344 32.511719 29.527344 32.558594 M 28.777344 32.558594 C 28.777344 32.640625 28.792969 32.71875 28.824219 32.792969 C 28.851562 32.863281 28.894531 32.929688 28.945312 32.984375 C 29 33.039062 29.0625 33.082031 29.132812 33.113281 C 29.203125 33.144531 29.277344 33.160156 29.351562 33.160156 C 29.4375 33.160156 29.515625 33.144531 29.589844 33.113281 C 29.660156 33.082031 29.722656 33.039062 29.777344 32.984375 C 29.828125 32.929688 29.871094 32.863281 29.902344 32.792969 C 29.929688 32.71875 29.945312 32.640625 29.945312 32.558594 C 29.945312 32.476562 29.929688 32.398438 29.902344 32.324219 C 29.871094 32.25 29.828125 32.1875 29.777344 32.132812 C 29.722656 32.078125 29.660156 32.035156 29.589844 32.003906 C 29.515625 31.96875 29.441406 31.953125 29.359375 31.953125 C 29.28125 31.953125 29.203125 31.96875 29.132812 32.003906 C 29.058594 32.035156 28.996094 32.078125 28.945312 32.132812 C 28.894531 32.1875 28.851562 32.25 28.824219 32.324219 C 28.792969 32.398438 28.777344 32.476562 28.777344 32.558594 M 30.238281 32.558594 C 30.234375 32.808594 30.144531 33.015625 29.96875 33.1875 C 29.792969 33.351562 29.585938 33.433594 29.351562 33.433594 C 29.105469 33.433594 28.898438 33.347656 28.734375 33.171875 C 28.570312 33 28.488281 32.796875 28.484375 32.558594 C 28.488281 32.304688 28.574219 32.09375 28.742188 31.929688 C 28.925781 31.769531 29.128906 31.691406 29.351562 31.691406 C 29.613281 31.691406 29.828125 31.777344 29.988281 31.949219 C 30.152344 32.121094 30.234375 32.324219 30.238281 32.558594 "/>
<path style=" stroke:none;fill-rule:nonzero;fill:rgb(18.823529%,24.313725%,28.235294%);fill-opacity:1;" d="M 33.164062 33.429688 L 32.835938 33.429688 L 32.332031 32.101562 L 31.867188 33.425781 L 31.539062 33.425781 L 32.164062 31.691406 L 32.496094 31.691406 Z M 33.164062 33.429688 "/>
<path style=" stroke:none;fill-rule:nonzero;fill:rgb(18.823529%,24.313725%,28.235294%);fill-opacity:1;" d="M 34.667969 33.046875 C 34.667969 33.070312 34.675781 33.089844 34.683594 33.113281 C 34.691406 33.132812 34.703125 33.148438 34.722656 33.164062 C 34.738281 33.179688 34.757812 33.191406 34.78125 33.199219 C 34.800781 33.207031 34.828125 33.210938 34.855469 33.210938 C 34.878906 33.210938 34.90625 33.207031 34.925781 33.199219 C 34.949219 33.191406 34.96875 33.179688 34.984375 33.164062 C 35.003906 33.148438 35.015625 33.132812 35.027344 33.113281 C 35.035156 33.089844 35.039062 33.070312 35.039062 33.046875 C 35.039062 33.027344 35.035156 33.003906 35.027344 32.984375 C 35.015625 32.964844 35.003906 32.949219 34.984375 32.933594 C 34.96875 32.917969 34.949219 32.90625 34.925781 32.898438 C 34.90625 32.890625 34.878906 32.882812 34.855469 32.882812 C 34.828125 32.882812 34.800781 32.890625 34.78125 32.898438 C 34.757812 32.90625 34.738281 32.917969 34.722656 32.933594 C 34.703125 32.949219 34.691406 32.964844 34.683594 32.984375 C 34.675781 33.003906 34.667969 33.027344 34.667969 33.046875 M 34.667969 32.074219 C 34.667969 32.09375 34.671875 32.113281 34.683594 32.132812 C 34.691406 32.152344 34.703125 32.167969 34.71875 32.183594 C 34.738281 32.195312 34.757812 32.207031 34.78125 32.21875 C 34.804688 32.226562 34.828125 32.230469 34.855469 32.230469 C 34.882812 32.230469 34.90625 32.226562 34.929688 32.21875 C 34.949219 32.207031 34.96875 32.195312 34.988281 32.183594 C 35.007812 32.167969 35.019531 32.152344 35.03125 32.132812 C 35.039062 32.113281 35.042969 32.09375 35.042969 32.074219 C 35.042969 32.050781 35.039062 32.03125 35.03125 32.011719 C 35.019531 31.992188 35.007812 31.972656 34.988281 31.960938 C 34.96875 31.945312 34.949219 31.9375 34.929688 31.929688 C 34.90625 31.921875 34.882812 31.917969 34.855469 31.917969 C 34.828125 31.917969 34.804688 31.921875 34.78125 31.929688 C 34.757812 31.9375 34.738281 31.945312 34.71875 31.960938 C 34.703125 31.972656 34.691406 31.992188 34.683594 32.011719 C 34.671875 32.03125 34.667969 32.050781 34.667969 32.074219 M 34.4375 32.074219 C 34.4375 32.019531 34.449219 31.96875 34.472656 31.925781 C 34.496094 31.878906 34.523438 31.839844 34.5625 31.804688 C 34.601562 31.769531 34.644531 31.742188 34.695312 31.722656 C 34.75 31.703125 34.804688 31.691406 34.863281 31.691406 C 34.925781 31.691406 34.980469 31.703125 35.035156 31.722656 C 35.089844 31.742188 35.132812 31.769531 35.171875 31.804688 C 35.210938 31.839844 35.238281 31.878906 35.261719 31.925781 C 35.285156 31.96875 35.296875 32.019531 35.296875 32.074219 C 35.296875 32.125 35.285156 32.175781 35.261719 32.222656 C 35.238281 32.265625 35.210938 32.308594 35.171875 32.34375 C 35.132812 32.378906 35.089844 32.40625 35.035156 32.425781 C 34.980469 32.441406 34.925781 32.453125 34.863281 32.453125 C 34.804688 32.453125 34.75 32.441406 34.695312 32.425781 C 34.644531 32.40625 34.601562 32.378906 34.5625 32.34375 C 34.523438 32.308594 34.496094 32.265625 34.472656 32.222656 C 34.449219 32.175781 34.4375 32.125 34.4375 32.074219 M 34.425781 33.050781 C 34.425781 32.996094 34.4375 32.949219 34.460938 32.902344 C 34.484375 32.859375 34.511719 32.816406 34.550781 32.78125 C 34.589844 32.75 34.636719 32.722656 34.691406 32.699219 C 34.742188 32.679688 34.800781 32.667969 34.859375 32.667969 C 34.921875 32.667969 34.976562 32.679688 35.03125 32.699219 C 35.082031 32.722656 35.128906 32.75 35.167969 32.78125 C 35.207031 32.816406 35.238281 32.859375 35.261719 32.902344 C 35.28125 32.949219 35.292969 32.996094 35.292969 33.050781 C 35.292969 33.101562 35.28125 33.148438 35.261719 33.195312 C 35.238281 33.242188 35.207031 33.28125 35.167969 33.320312 C 35.128906 33.355469 35.082031 33.378906 35.03125 33.398438 C 34.976562 33.417969 34.921875 33.425781 34.859375 33.425781 C 34.800781 33.425781 34.742188 33.417969 34.691406 33.398438 C 34.636719 33.378906 34.589844 33.355469 34.550781 33.320312 C 34.511719 33.28125 34.484375 33.242188 34.460938 33.195312 C 34.4375 33.148438 34.425781 33.101562 34.425781 33.050781 "/>
<path style=" stroke:none;fill-rule:nonzero;fill:rgb(18.823529%,24.313725%,28.235294%);fill-opacity:1;" d="M 36.597656 32.558594 C 36.597656 32.601562 36.578125 32.640625 36.542969 32.671875 C 36.527344 32.695312 36.511719 32.707031 36.492188 32.714844 C 36.472656 32.722656 36.449219 32.726562 36.421875 32.726562 C 36.378906 32.726562 36.34375 32.707031 36.308594 32.671875 C 36.273438 32.640625 36.257812 32.601562 36.257812 32.558594 C 36.257812 32.511719 36.273438 32.472656 36.308594 32.441406 C 36.34375 32.40625 36.378906 32.390625 36.421875 32.390625 C 36.472656 32.390625 36.511719 32.40625 36.546875 32.441406 C 36.578125 32.472656 36.597656 32.511719 36.597656 32.558594 M 35.847656 32.558594 C 35.847656 32.640625 35.863281 32.71875 35.894531 32.792969 C 35.925781 32.863281 35.964844 32.929688 36.015625 32.984375 C 36.070312 33.039062 36.132812 33.082031 36.203125 33.113281 C 36.273438 33.144531 36.347656 33.160156 36.421875 33.160156 C 36.507812 33.160156 36.589844 33.144531 36.660156 33.113281 C 36.730469 33.082031 36.792969 33.039062 36.847656 32.984375 C 36.898438 32.929688 36.941406 32.863281 36.972656 32.792969 C 37.003906 32.71875 37.019531 32.640625 37.019531 32.558594 C 37.019531 32.476562 37.003906 32.398438 36.972656 32.324219 C 36.941406 32.25 36.898438 32.1875 36.847656 32.132812 C 36.792969 32.078125 36.730469 32.035156 36.660156 32.003906 C 36.589844 31.96875 36.511719 31.953125 36.425781 31.953125 C 36.351562 31.953125 36.273438 31.96875 36.203125 32.003906 C 36.128906 32.035156 36.066406 32.078125 36.015625 32.132812 C 35.964844 32.1875 35.925781 32.25 35.894531 32.324219 C 35.863281 32.398438 35.847656 32.476562 35.847656 32.558594 M 37.308594 32.558594 C 37.304688 32.808594 37.214844 33.015625 37.039062 33.1875 C 36.863281 33.351562 36.660156 33.433594 36.421875 33.433594 C 36.175781 33.433594 35.96875 33.347656 35.804688 33.171875 C 35.640625 33 35.558594 32.796875 35.554688 32.558594 C 35.558594 32.304688 35.644531 32.09375 35.816406 31.929688 C 35.996094 31.769531 36.199219 31.691406 36.421875 31.691406 C 36.683594 31.691406 36.898438 31.777344 37.058594 31.949219 C 37.222656 32.121094 37.304688 32.324219 37.308594 32.558594 "/>
<path style=" stroke:none;fill-rule:nonzero;fill:rgb(18.823529%,24.313725%,28.235294%);fill-opacity:1;" d="M 38.8125 33.109375 L 38.8125 31.699219 L 39.136719 31.699219 L 39.136719 33.425781 L 37.675781 33.425781 L 37.675781 31.699219 L 38.003906 31.699219 L 38.003906 33.109375 Z M 38.8125 33.109375 "/>
<path style=" stroke:none;fill-rule:nonzero;fill:rgb(18.823529%,24.313725%,28.235294%);fill-opacity:1;" d="M 39.703125 33.046875 C 39.703125 33.070312 39.707031 33.089844 39.714844 33.113281 C 39.726562 33.132812 39.738281 33.148438 39.753906 33.164062 C 39.773438 33.179688 39.792969 33.191406 39.816406 33.199219 C 39.835938 33.207031 39.859375 33.210938 39.886719 33.210938 C 39.914062 33.210938 39.9375 33.207031 39.960938 33.199219 C 39.984375 33.191406 40.003906 33.179688 40.019531 33.164062 C 40.035156 33.148438 40.050781 33.132812 40.058594 33.113281 C 40.070312 33.089844 40.074219 33.070312 40.074219 33.046875 C 40.074219 33.027344 40.070312 33.003906 40.058594 32.984375 C 40.050781 32.964844 40.035156 32.949219 40.019531 32.933594 C 40.003906 32.917969 39.984375 32.90625 39.960938 32.898438 C 39.9375 32.890625 39.914062 32.882812 39.886719 32.882812 C 39.859375 32.882812 39.835938 32.890625 39.816406 32.898438 C 39.792969 32.90625 39.773438 32.917969 39.753906 32.933594 C 39.738281 32.949219 39.726562 32.964844 39.714844 32.984375 C 39.707031 33.003906 39.703125 33.027344 39.703125 33.046875 M 39.703125 32.074219 C 39.703125 32.09375 39.707031 32.113281 39.714844 32.132812 C 39.726562 32.152344 39.738281 32.167969 39.753906 32.183594 C 39.769531 32.195312 39.789062 32.207031 39.816406 32.21875 C 39.839844 32.226562 39.863281 32.230469 39.890625 32.230469 C 39.917969 32.230469 39.941406 32.226562 39.960938 32.21875 C 39.984375 32.207031 40.007812 32.195312 40.023438 32.183594 C 40.042969 32.167969 40.054688 32.152344 40.066406 32.132812 C 40.074219 32.113281 40.078125 32.09375 40.078125 32.074219 C 40.078125 32.050781 40.074219 32.03125 40.066406 32.011719 C 40.054688 31.992188 40.042969 31.972656 40.023438 31.960938 C 40.007812 31.945312 39.984375 31.9375 39.960938 31.929688 C 39.941406 31.921875 39.917969 31.917969 39.890625 31.917969 C 39.863281 31.917969 39.839844 31.921875 39.816406 31.929688 C 39.789062 31.9375 39.769531 31.945312 39.753906 31.960938 C 39.738281 31.972656 39.726562 31.992188 39.714844 32.011719 C 39.707031 32.03125 39.703125 32.050781 39.703125 32.074219 M 39.472656 32.074219 C 39.472656 32.019531 39.484375 31.96875 39.503906 31.925781 C 39.527344 31.878906 39.558594 31.839844 39.597656 31.804688 C 39.632812 31.769531 39.679688 31.742188 39.730469 31.722656 C 39.785156 31.703125 39.839844 31.691406 39.898438 31.691406 C 39.960938 31.691406 40.015625 31.703125 40.070312 31.722656 C 40.121094 31.742188 40.167969 31.769531 40.207031 31.804688 C 40.242188 31.839844 40.273438 31.878906 40.296875 31.925781 C 40.320312 31.96875 40.332031 32.019531 40.332031 32.074219 C 40.332031 32.125 40.320312 32.175781 40.296875 32.222656 C 40.273438 32.265625 40.242188 32.308594 40.207031 32.34375 C 40.167969 32.378906 40.121094 32.40625 40.070312 32.425781 C 40.015625 32.441406 39.960938 32.453125 39.898438 32.453125 C 39.839844 32.453125 39.785156 32.441406 39.730469 32.425781 C 39.679688 32.40625 39.632812 32.378906 39.597656 32.34375 C 39.558594 32.308594 39.527344 32.265625 39.503906 32.222656 C 39.484375 32.175781 39.472656 32.125 39.472656 32.074219 M 39.460938 33.050781 C 39.460938 32.996094 39.472656 32.949219 39.492188 32.902344 C 39.515625 32.859375 39.546875 32.816406 39.585938 32.78125 C 39.625 32.75 39.667969 32.722656 39.722656 32.699219 C 39.777344 32.679688 39.832031 32.667969 39.894531 32.667969 C 39.953125 32.667969 40.011719 32.679688 40.066406 32.699219 C 40.117188 32.722656 40.164062 32.75 40.203125 32.78125 C 40.242188 32.816406 40.273438 32.859375 40.292969 32.902344 C 40.316406 32.949219 40.328125 32.996094 40.328125 33.050781 C 40.328125 33.101562 40.316406 33.148438 40.292969 33.195312 C 40.273438 33.242188 40.242188 33.28125 40.203125 33.320312 C 40.164062 33.355469 40.117188 33.378906 40.066406 33.398438 C 40.011719 33.417969 39.953125 33.425781 39.894531 33.425781 C 39.832031 33.425781 39.777344 33.417969 39.722656 33.398438 C 39.667969 33.378906 39.625 33.355469 39.585938 33.320312 C 39.546875 33.28125 39.515625 33.242188 39.492188 33.195312 C 39.472656 33.148438 39.460938 33.101562 39.460938 33.050781 "/>
<path style=" stroke:none;fill-rule:nonzero;fill:rgb(18.823529%,24.313725%,28.235294%);fill-opacity:1;" d="M 42.238281 33.429688 L 41.914062 33.429688 L 41.40625 32.101562 L 40.945312 33.425781 L 40.617188 33.425781 L 41.238281 31.691406 L 41.570312 31.691406 Z M 42.238281 33.429688 "/>
<path style=" stroke:none;fill-rule:nonzero;fill:rgb(18.823529%,24.313725%,28.235294%);fill-opacity:1;" d="M 44.121094 33.429688 L 43.792969 33.429688 L 43.289062 32.101562 L 42.828125 33.425781 L 42.5 33.425781 L 43.121094 31.691406 L 43.453125 31.691406 Z M 44.121094 33.429688 "/>
<path style=" stroke:none;fill-rule:nonzero;fill:rgb(18.823529%,24.313725%,28.235294%);fill-opacity:1;" d="M 44.652344 33.046875 C 44.652344 33.070312 44.660156 33.089844 44.667969 33.113281 C 44.675781 33.132812 44.6875 33.148438 44.703125 33.164062 C 44.722656 33.179688 44.742188 33.191406 44.765625 33.199219 C 44.785156 33.207031 44.8125 33.210938 44.835938 33.210938 C 44.863281 33.210938 44.886719 33.207031 44.910156 33.199219 C 44.933594 33.191406 44.953125 33.179688 44.96875 33.164062 C 44.984375 33.148438 45 33.132812 45.007812 33.113281 C 45.019531 33.089844 45.023438 33.070312 45.023438 33.046875 C 45.023438 33.027344 45.019531 33.003906 45.007812 32.984375 C 45 32.964844 44.984375 32.949219 44.96875 32.933594 C 44.953125 32.917969 44.933594 32.90625 44.910156 32.898438 C 44.886719 32.890625 44.863281 32.882812 44.835938 32.882812 C 44.8125 32.882812 44.785156 32.890625 44.765625 32.898438 C 44.742188 32.90625 44.722656 32.917969 44.703125 32.933594 C 44.6875 32.949219 44.675781 32.964844 44.667969 32.984375 C 44.660156 33.003906 44.652344 33.027344 44.652344 33.046875 M 44.652344 32.074219 C 44.652344 32.09375 44.65625 32.113281 44.667969 32.132812 C 44.675781 32.152344 44.6875 32.167969 44.703125 32.183594 C 44.71875 32.195312 44.742188 32.207031 44.765625 32.21875 C 44.789062 32.226562 44.8125 32.230469 44.839844 32.230469 C 44.867188 32.230469 44.890625 32.226562 44.914062 32.21875 C 44.933594 32.207031 44.953125 32.195312 44.972656 32.183594 C 44.992188 32.167969 45.003906 32.152344 45.015625 32.132812 C 45.023438 32.113281 45.027344 32.09375 45.027344 32.074219 C 45.027344 32.050781 45.023438 32.03125 45.015625 32.011719 C 45.003906 31.992188 44.992188 31.972656 44.972656 31.960938 C 44.953125 31.945312 44.933594 31.9375 44.914062 31.929688 C 44.890625 31.921875 44.867188 31.917969 44.839844 31.917969 C 44.8125 31.917969 44.789062 31.921875 44.765625 31.929688 C 44.742188 31.9375 44.71875 31.945312 44.703125 31.960938 C 44.6875 31.972656 44.675781 31.992188 44.667969 32.011719 C 44.65625 32.03125 44.652344 32.050781 44.652344 32.074219 M 44.421875 32.074219 C 44.421875 32.019531 44.433594 31.96875 44.453125 31.925781 C 44.476562 31.878906 44.507812 31.839844 44.546875 31.804688 C 44.582031 31.769531 44.628906 31.742188 44.679688 31.722656 C 44.734375 31.703125 44.789062 31.691406 44.847656 31.691406 C 44.910156 31.691406 44.964844 31.703125 45.019531 31.722656 C 45.070312 31.742188 45.117188 31.769531 45.15625 31.804688 C 45.191406 31.839844 45.222656 31.878906 45.246094 31.925781 C 45.269531 31.96875 45.28125 32.019531 45.28125 32.074219 C 45.28125 32.125 45.269531 32.175781 45.246094 32.222656 C 45.222656 32.265625 45.191406 32.308594 45.15625 32.34375 C 45.117188 32.378906 45.070312 32.40625 45.019531 32.425781 C 44.964844 32.441406 44.910156 32.453125 44.847656 32.453125 C 44.789062 32.453125 44.734375 32.441406 44.679688 32.425781 C 44.628906 32.40625 44.582031 32.378906 44.546875 32.34375 C 44.507812 32.308594 44.476562 32.265625 44.453125 32.222656 C 44.433594 32.175781 44.421875 32.125 44.421875 32.074219 M 44.410156 33.050781 C 44.410156 32.996094 44.421875 32.949219 44.445312 32.902344 C 44.464844 32.859375 44.496094 32.816406 44.535156 32.78125 C 44.574219 32.75 44.621094 32.722656 44.671875 32.699219 C 44.726562 32.679688 44.785156 32.667969 44.84375 32.667969 C 44.90625 32.667969 44.960938 32.679688 45.015625 32.699219 C 45.066406 32.722656 45.113281 32.75 45.152344 32.78125 C 45.191406 32.816406 45.222656 32.859375 45.242188 32.902344 C 45.265625 32.949219 45.277344 32.996094 45.277344 33.050781 C 45.277344 33.101562 45.265625 33.148438 45.242188 33.195312 C 45.222656 33.242188 45.191406 33.28125 45.152344 33.320312 C 45.113281 33.355469 45.066406 33.378906 45.015625 33.398438 C 44.960938 33.417969 44.90625 33.425781 44.84375 33.425781 C 44.785156 33.425781 44.726562 33.417969 44.671875 33.398438 C 44.621094 33.378906 44.574219 33.355469 44.535156 33.320312 C 44.496094 33.28125 44.464844 33.242188 44.445312 33.195312 C 44.421875 33.148438 44.410156 33.101562 44.410156 33.050781 "/>
<path style=" stroke:none;fill-rule:nonzero;fill:rgb(18.823529%,24.313725%,28.235294%);fill-opacity:1;" d="M 17.800781 3.152344 L 17.800781 19.292969 L 11.828125 19.292969 C 8.515625 19.292969 5.824219 16.535156 5.824219 13.214844 C 5.824219 9.894531 8.515625 7.164062 11.828125 7.164062 L 16.238281 7.167969 L 16.238281 3.121094 L 11.828125 3.121094 C 6.277344 3.121094 1.757812 7.648438 1.757812 13.214844 C 1.757812 18.78125 6.277344 23.339844 11.828125 23.339844 L 21.789062 23.339844 L 21.789062 7.195312 L 27.542969 7.195312 C 30.855469 7.195312 33.550781 9.925781 33.550781 13.246094 C 33.550781 16.566406 30.855469 19.265625 27.542969 19.265625 L 23.308594 19.265625 L 23.308594 23.339844 L 27.542969 23.339844 C 33.09375 23.339844 37.609375 18.816406 37.613281 13.253906 L 37.617188 13.253906 C 37.617188 13.226562 37.613281 13.199219 37.613281 13.171875 C 37.613281 13.167969 37.613281 13.167969 37.613281 13.164062 C 37.710938 9.523438 40.429688 7.191406 43.714844 7.191406 C 45.046875 7.191406 46.277344 7.636719 47.269531 8.382812 L 50.144531 5.5 C 48.40625 4.035156 46.160156 3.148438 43.714844 3.148438 C 40.40625 3.148438 37.46875 4.769531 35.648438 7.261719 C 33.8125 4.769531 30.863281 3.152344 27.542969 3.152344 Z M 17.800781 3.152344 "/>
<path style=" stroke:none;fill-rule:nonzero;fill:rgb(38.431373%,54.509804%,9.411765%);fill-opacity:1;" d="M 53.425781 12.550781 L 45.550781 12.550781 L 45.550781 15.515625 L 49.050781 15.515625 C 48.195312 17.765625 46.023438 19.371094 43.484375 19.371094 C 41.449219 19.371094 39.660156 18.339844 38.582031 16.78125 C 38.140625 18.179688 37.441406 19.464844 36.546875 20.585938 C 38.347656 22.332031 40.785156 23.417969 43.484375 23.417969 C 46.207031 23.417969 48.683594 22.316406 50.488281 20.535156 L 50.488281 23.378906 L 53.476562 23.378906 L 53.476562 12.550781 Z M 53.425781 12.550781 "/>
</g>
</svg>
