<?xml version="1.0" encoding="UTF-8"?>
<svg xmlns="http://www.w3.org/2000/svg" xmlns:xlink="http://www.w3.org/1999/xlink" width="70px" height="50px" viewBox="0 0 70 50" version="1.1">
<g id="surface1">
<path style=" stroke:none;fill-rule:nonzero;fill:rgb(18.823529%,24.313725%,28.235294%);fill-opacity:1;" d="M 9.695312 46.253906 C 9.449219 46.488281 9.132812 46.601562 8.789062 46.601562 C 7.90625 46.601562 7.53125 46 7.527344 45.390625 C 7.527344 44.777344 7.929688 44.15625 8.789062 44.15625 C 9.113281 44.15625 9.417969 44.277344 9.664062 44.515625 L 9.363281 44.800781 C 9.207031 44.648438 8.996094 44.578125 8.789062 44.578125 C 8.214844 44.578125 7.96875 45 7.96875 45.390625 C 7.972656 45.78125 8.203125 46.183594 8.789062 46.183594 C 8.996094 46.183594 9.230469 46.101562 9.386719 45.949219 Z M 9.695312 46.253906 "/>
<path style=" stroke:none;fill-rule:nonzero;fill:rgb(18.823529%,24.313725%,28.235294%);fill-opacity:1;" d="M 10.910156 44.695312 L 10.464844 45.695312 L 11.351562 45.695312 Z M 11.53125 46.105469 L 10.285156 46.105469 L 10.082031 46.546875 L 9.597656 46.546875 L 10.664062 44.203125 L 11.152344 44.203125 L 12.21875 46.546875 L 11.730469 46.546875 Z M 11.53125 46.105469 "/>
<path style=" stroke:none;fill-rule:nonzero;fill:rgb(18.823529%,24.313725%,28.235294%);fill-opacity:1;" d="M 12.390625 44.203125 L 12.835938 44.203125 L 12.835938 46.546875 L 12.390625 46.546875 Z M 12.390625 44.203125 "/>
<path style=" stroke:none;fill-rule:nonzero;fill:rgb(18.823529%,24.313725%,28.235294%);fill-opacity:1;" d="M 14.796875 44.769531 C 14.714844 44.636719 14.488281 44.507812 14.230469 44.507812 C 13.898438 44.507812 13.738281 44.644531 13.738281 44.820312 C 13.738281 45.023438 13.984375 45.082031 14.269531 45.113281 C 14.765625 45.175781 15.226562 45.300781 15.226562 45.859375 C 15.226562 46.382812 14.757812 46.605469 14.226562 46.605469 C 13.742188 46.605469 13.367188 46.460938 13.191406 46.03125 L 13.566406 45.839844 C 13.671875 46.097656 13.945312 46.210938 14.234375 46.210938 C 14.515625 46.210938 14.78125 46.113281 14.78125 45.859375 C 14.78125 45.640625 14.546875 45.550781 14.230469 45.515625 C 13.746094 45.457031 13.296875 45.332031 13.296875 44.804688 C 13.296875 44.324219 13.777344 44.125 14.21875 44.121094 C 14.585938 44.121094 14.972656 44.226562 15.152344 44.589844 Z M 14.796875 44.769531 "/>
<path style=" stroke:none;fill-rule:nonzero;fill:rgb(18.823529%,24.313725%,28.235294%);fill-opacity:1;" d="M 17.042969 44.769531 C 16.960938 44.636719 16.738281 44.507812 16.476562 44.507812 C 16.144531 44.507812 15.984375 44.644531 15.984375 44.820312 C 15.984375 45.023438 16.230469 45.082031 16.515625 45.113281 C 17.011719 45.175781 17.472656 45.300781 17.472656 45.859375 C 17.472656 46.382812 17.003906 46.605469 16.476562 46.605469 C 15.988281 46.605469 15.613281 46.460938 15.4375 46.03125 L 15.8125 45.839844 C 15.917969 46.097656 16.191406 46.210938 16.480469 46.210938 C 16.765625 46.210938 17.027344 46.113281 17.027344 45.859375 C 17.027344 45.640625 16.792969 45.550781 16.476562 45.515625 C 15.992188 45.457031 15.542969 45.332031 15.542969 44.804688 C 15.542969 44.324219 16.027344 44.125 16.464844 44.121094 C 16.835938 44.121094 17.21875 44.226562 17.398438 44.589844 Z M 17.042969 44.769531 "/>
<path style=" stroke:none;fill-rule:nonzero;fill:rgb(18.823529%,24.313725%,28.235294%);fill-opacity:1;" d="M 19.597656 46.546875 L 17.816406 46.546875 L 17.816406 44.203125 L 19.597656 44.203125 L 19.597656 44.632812 L 18.261719 44.632812 L 18.261719 45.171875 L 19.550781 45.171875 L 19.550781 45.582031 L 18.261719 45.582031 L 18.261719 46.113281 L 19.597656 46.113281 Z M 19.597656 46.546875 "/>
<path style=" stroke:none;fill-rule:nonzero;fill:rgb(18.823529%,24.313725%,28.235294%);fill-opacity:1;" d="M 21.046875 46.121094 L 21.535156 46.121094 C 22.074219 46.121094 22.289062 45.734375 22.28125 45.351562 C 22.269531 44.984375 22.050781 44.621094 21.535156 44.621094 L 21.046875 44.621094 Z M 22.726562 45.355469 C 22.734375 45.949219 22.367188 46.546875 21.535156 46.546875 L 20.601562 46.546875 L 20.601562 44.203125 L 21.535156 44.203125 C 22.351562 44.203125 22.714844 44.777344 22.726562 45.355469 "/>
<path style=" stroke:none;fill-rule:nonzero;fill:rgb(18.823529%,24.313725%,28.235294%);fill-opacity:1;" d="M 24.796875 46.546875 L 23.015625 46.546875 L 23.015625 44.203125 L 24.796875 44.203125 L 24.796875 44.632812 L 23.460938 44.632812 L 23.460938 45.171875 L 24.75 45.171875 L 24.75 45.582031 L 23.460938 45.582031 L 23.460938 46.113281 L 24.796875 46.113281 Z M 24.796875 46.546875 "/>
<path style=" stroke:none;fill-rule:nonzero;fill:rgb(18.823529%,24.313725%,28.235294%);fill-opacity:1;" d="M 26.246094 46.121094 L 26.734375 46.121094 C 27.273438 46.121094 27.488281 45.734375 27.480469 45.351562 C 27.46875 44.984375 27.25 44.621094 26.734375 44.621094 L 26.246094 44.621094 Z M 27.925781 45.355469 C 27.933594 45.949219 27.566406 46.546875 26.734375 46.546875 L 25.800781 46.546875 L 25.800781 44.203125 L 26.734375 44.203125 C 27.550781 44.203125 27.914062 44.777344 27.925781 45.355469 "/>
<path style=" stroke:none;fill-rule:nonzero;fill:rgb(18.823529%,24.313725%,28.235294%);fill-opacity:1;" d="M 29.664062 43.488281 L 29.175781 43.488281 L 28.925781 43.945312 L 28.925781 43.964844 L 29.292969 43.964844 L 29.664062 43.507812 Z M 29.996094 46.546875 L 28.214844 46.546875 L 28.214844 44.203125 L 29.996094 44.203125 L 29.996094 44.632812 L 28.660156 44.632812 L 28.660156 45.171875 L 29.949219 45.171875 L 29.949219 45.582031 L 28.660156 45.582031 L 28.660156 46.113281 L 29.996094 46.113281 Z M 29.996094 46.546875 "/>
<path style=" stroke:none;fill-rule:nonzero;fill:rgb(18.823529%,24.313725%,28.235294%);fill-opacity:1;" d="M 30.773438 45.453125 L 31.449219 45.453125 C 32.023438 45.453125 32.019531 44.621094 31.449219 44.621094 L 30.773438 44.621094 Z M 31.449219 45.859375 L 30.773438 45.859375 L 30.773438 46.546875 L 30.328125 46.546875 L 30.328125 44.203125 C 30.699219 44.203125 31.074219 44.199219 31.449219 44.199219 C 32.609375 44.199219 32.613281 45.859375 31.449219 45.859375 "/>
<path style=" stroke:none;fill-rule:nonzero;fill:rgb(18.823529%,24.313725%,28.235294%);fill-opacity:1;" d="M 33.667969 43.464844 L 33.894531 43.464844 L 34.398438 43.929688 L 34.398438 43.949219 L 33.976562 43.949219 L 33.78125 43.75 L 33.585938 43.949219 L 33.164062 43.949219 L 33.164062 43.929688 Z M 32.960938 45.398438 C 32.972656 45.785156 33.183594 46.195312 33.742188 46.195312 C 34.304688 46.195312 34.515625 45.78125 34.519531 45.394531 C 34.527344 45 34.304688 44.558594 33.742188 44.558594 C 33.183594 44.558594 32.949219 45.003906 32.960938 45.398438 M 34.964844 45.386719 C 34.957031 45.996094 34.578125 46.601562 33.742188 46.601562 C 32.90625 46.601562 32.519531 46.007812 32.519531 45.390625 C 32.519531 44.777344 32.921875 44.15625 33.742188 44.15625 C 34.5625 44.15625 34.96875 44.777344 34.964844 45.386719 "/>
<path style=" stroke:none;fill-rule:nonzero;fill:rgb(18.823529%,24.313725%,28.235294%);fill-opacity:1;" d="M 35.769531 44.605469 L 35.015625 44.605469 L 35.015625 44.203125 L 36.972656 44.203125 L 36.972656 44.605469 L 36.21875 44.605469 L 36.21875 46.546875 L 35.769531 46.546875 Z M 35.769531 44.605469 "/>
<path style=" stroke:none;fill-rule:nonzero;fill:rgb(18.823529%,24.313725%,28.235294%);fill-opacity:1;" d="M 39.707031 46.546875 L 37.925781 46.546875 L 37.925781 44.203125 L 39.707031 44.203125 L 39.707031 44.632812 L 38.371094 44.632812 L 38.371094 45.171875 L 39.660156 45.171875 L 39.660156 45.582031 L 38.371094 45.582031 L 38.371094 46.113281 L 39.707031 46.113281 Z M 39.707031 46.546875 "/>
<path style=" stroke:none;fill-rule:nonzero;fill:rgb(18.823529%,24.313725%,28.235294%);fill-opacity:1;" d="M 40.808594 44.605469 L 40.054688 44.605469 L 40.054688 44.203125 L 42.011719 44.203125 L 42.011719 44.605469 L 41.257812 44.605469 L 41.257812 46.546875 L 40.808594 46.546875 Z M 40.808594 44.605469 "/>
<path style=" stroke:none;fill-rule:nonzero;fill:rgb(18.823529%,24.313725%,28.235294%);fill-opacity:1;" d="M 43.386719 46.121094 L 43.875 46.121094 C 44.417969 46.121094 44.632812 45.734375 44.621094 45.351562 C 44.609375 44.984375 44.394531 44.621094 43.875 44.621094 L 43.386719 44.621094 Z M 45.066406 45.355469 C 45.078125 45.949219 44.710938 46.546875 43.875 46.546875 L 42.941406 46.546875 L 42.941406 44.203125 L 43.875 44.203125 C 44.691406 44.203125 45.054688 44.777344 45.066406 45.355469 "/>
<path style=" stroke:none;fill-rule:nonzero;fill:rgb(18.823529%,24.313725%,28.235294%);fill-opacity:1;" d="M 47.136719 46.546875 L 45.355469 46.546875 L 45.355469 44.203125 L 47.136719 44.203125 L 47.136719 44.632812 L 45.800781 44.632812 L 45.800781 45.171875 L 47.089844 45.171875 L 47.089844 45.582031 L 45.800781 45.582031 L 45.800781 46.113281 L 47.136719 46.113281 Z M 47.136719 46.546875 "/>
<path style=" stroke:none;fill-rule:nonzero;fill:rgb(18.823529%,24.313725%,28.235294%);fill-opacity:1;" d="M 49.9375 44.777344 C 49.78125 44.625 49.542969 44.539062 49.335938 44.539062 C 48.824219 44.539062 48.515625 44.921875 48.515625 45.40625 C 48.515625 45.789062 48.742188 46.1875 49.335938 46.1875 C 49.519531 46.1875 49.683594 46.148438 49.871094 46 L 49.871094 45.585938 L 49.261719 45.585938 L 49.261719 45.191406 L 50.28125 45.191406 L 50.28125 46.179688 C 50.046875 46.441406 49.753906 46.601562 49.335938 46.601562 C 48.441406 46.601562 48.078125 46.019531 48.078125 45.40625 C 48.078125 44.746094 48.496094 44.136719 49.335938 44.136719 C 49.652344 44.136719 49.972656 44.257812 50.21875 44.492188 Z M 49.9375 44.777344 "/>
<path style=" stroke:none;fill-rule:nonzero;fill:rgb(18.823529%,24.313725%,28.235294%);fill-opacity:1;" d="M 52.425781 46.546875 L 50.644531 46.546875 L 50.644531 44.203125 L 52.425781 44.203125 L 52.425781 44.632812 L 51.089844 44.632812 L 51.089844 45.171875 L 52.378906 45.171875 L 52.378906 45.582031 L 51.089844 45.582031 L 51.089844 46.113281 L 52.425781 46.113281 Z M 52.425781 46.546875 "/>
<path style=" stroke:none;fill-rule:nonzero;fill:rgb(18.823529%,24.313725%,28.235294%);fill-opacity:1;" d="M 54.3125 44.769531 C 54.230469 44.636719 54.007812 44.507812 53.75 44.507812 C 53.414062 44.507812 53.253906 44.644531 53.253906 44.820312 C 53.253906 45.023438 53.5 45.082031 53.785156 45.113281 C 54.28125 45.175781 54.742188 45.300781 54.742188 45.859375 C 54.742188 46.382812 54.273438 46.605469 53.746094 46.605469 C 53.257812 46.605469 52.882812 46.460938 52.707031 46.03125 L 53.082031 45.839844 C 53.1875 46.097656 53.460938 46.210938 53.75 46.210938 C 54.035156 46.210938 54.296875 46.113281 54.296875 45.859375 C 54.296875 45.640625 54.0625 45.550781 53.75 45.515625 C 53.261719 45.457031 52.8125 45.332031 52.8125 44.804688 C 52.8125 44.324219 53.296875 44.125 53.734375 44.121094 C 54.105469 44.121094 54.488281 44.226562 54.667969 44.589844 Z M 54.3125 44.769531 "/>
<path style=" stroke:none;fill-rule:nonzero;fill:rgb(18.823529%,24.313725%,28.235294%);fill-opacity:1;" d="M 55.707031 44.605469 L 54.953125 44.605469 L 54.953125 44.203125 L 56.910156 44.203125 L 56.910156 44.605469 L 56.15625 44.605469 L 56.15625 46.546875 L 55.707031 46.546875 Z M 55.707031 44.605469 "/>
<path style=" stroke:none;fill-rule:nonzero;fill:rgb(18.823529%,24.313725%,28.235294%);fill-opacity:1;" d="M 57.1875 44.203125 L 57.632812 44.203125 L 57.632812 46.546875 L 57.1875 46.546875 Z M 57.1875 44.203125 "/>
<path style=" stroke:none;fill-rule:nonzero;fill:rgb(18.823529%,24.313725%,28.235294%);fill-opacity:1;" d="M 58.460938 45.398438 C 58.472656 45.785156 58.683594 46.195312 59.242188 46.195312 C 59.804688 46.195312 60.015625 45.78125 60.023438 45.394531 C 60.03125 45 59.804688 44.558594 59.242188 44.558594 C 58.683594 44.558594 58.453125 45.003906 58.460938 45.398438 M 60.464844 45.386719 C 60.457031 45.996094 60.078125 46.601562 59.242188 46.601562 C 58.40625 46.601562 58.019531 46.007812 58.019531 45.390625 C 58.019531 44.777344 58.421875 44.15625 59.242188 44.15625 C 60.0625 44.15625 60.472656 44.777344 60.464844 45.386719 "/>
<path style=" stroke:none;fill-rule:nonzero;fill:rgb(18.823529%,24.313725%,28.235294%);fill-opacity:1;" d="M 62.359375 44.199219 L 62.808594 44.199219 L 62.808594 46.546875 L 62.527344 46.546875 L 62.527344 46.550781 L 61.277344 44.964844 L 61.277344 46.546875 L 60.828125 46.546875 L 60.828125 44.203125 L 61.191406 44.203125 L 62.359375 45.65625 Z M 62.359375 44.199219 "/>
<path style=" stroke:none;fill-rule:nonzero;fill:rgb(18.823529%,24.313725%,28.235294%);fill-opacity:1;" d="M 20.238281 39.234375 L 20.773438 39.234375 L 20.773438 38.699219 L 20.238281 38.699219 Z M 20.238281 39.234375 "/>
<path style=" stroke:none;fill-rule:nonzero;fill:rgb(18.823529%,24.313725%,28.235294%);fill-opacity:1;" d="M 19.480469 39.234375 L 20.015625 39.234375 L 20.015625 38.699219 L 19.480469 38.699219 Z M 19.480469 39.234375 "/>
<path style=" stroke:none;fill-rule:nonzero;fill:rgb(18.823529%,24.313725%,28.235294%);fill-opacity:1;" d="M 21.433594 37.839844 L 20.773438 37.839844 L 20.773438 36.363281 L 20.238281 36.363281 L 20.238281 37.839844 L 17.34375 37.839844 L 17.34375 36.363281 L 16.808594 36.363281 L 16.808594 38.355469 C 16.808594 38.59375 16.675781 38.714844 16.410156 38.714844 L 16.34375 38.714844 L 16.34375 39.234375 L 16.417969 39.234375 C 16.90625 39.234375 17.316406 39.042969 17.34375 38.367188 L 21.96875 38.367188 L 21.96875 36.363281 L 21.433594 36.363281 Z M 21.433594 37.839844 "/>
<path style=" stroke:none;fill-rule:nonzero;fill:rgb(18.823529%,24.313725%,28.235294%);fill-opacity:1;" d="M 21.433594 39.234375 L 21.96875 39.234375 L 21.96875 38.699219 L 21.433594 38.699219 Z M 21.433594 39.234375 "/>
<path style=" stroke:none;fill-rule:nonzero;fill:rgb(18.823529%,24.313725%,28.235294%);fill-opacity:1;" d="M 24.992188 35.507812 L 24.457031 35.507812 L 24.457031 36.035156 L 24.992188 36.035156 Z M 24.992188 35.507812 "/>
<path style=" stroke:none;fill-rule:nonzero;fill:rgb(18.823529%,24.313725%,28.235294%);fill-opacity:1;" d="M 25.75 35.507812 L 25.214844 35.507812 L 25.214844 36.035156 L 25.75 36.035156 Z M 25.75 35.507812 "/>
<path style=" stroke:none;fill-rule:nonzero;fill:rgb(18.823529%,24.313725%,28.235294%);fill-opacity:1;" d="M 26.410156 37.839844 L 25.75 37.839844 L 25.75 36.363281 L 25.214844 36.363281 L 25.214844 37.839844 L 24.089844 37.839844 L 24.089844 37.515625 C 24.089844 37.085938 23.941406 36.769531 23.652344 36.570312 C 23.449219 36.429688 23.207031 36.359375 22.917969 36.359375 L 22.742188 36.359375 L 22.742188 36.886719 C 22.9375 36.890625 23.070312 36.902344 23.152344 36.929688 C 23.238281 36.953125 23.3125 36.996094 23.386719 37.058594 C 23.5 37.148438 23.550781 37.304688 23.550781 37.519531 L 23.550781 37.839844 L 22.371094 37.839844 L 22.371094 38.367188 L 26.945312 38.367188 L 26.945312 35.507812 L 26.410156 35.507812 Z M 26.410156 37.839844 "/>
<path style=" stroke:none;fill-rule:nonzero;fill:rgb(18.823529%,24.313725%,28.235294%);fill-opacity:1;" d="M 27.347656 38.367188 L 27.882812 38.367188 L 27.882812 35.507812 L 27.347656 35.507812 Z M 27.347656 38.367188 "/>
<path style=" stroke:none;fill-rule:nonzero;fill:rgb(18.823529%,24.313725%,28.235294%);fill-opacity:1;" d="M 29.261719 37.839844 L 29.121094 37.839844 C 28.925781 37.839844 28.828125 37.730469 28.828125 37.511719 L 28.828125 37.210938 C 28.828125 36.996094 28.925781 36.890625 29.121094 36.890625 L 29.261719 36.890625 Z M 28.292969 37.164062 L 28.292969 37.5625 C 28.292969 38.042969 28.640625 38.367188 29.136719 38.367188 L 29.261719 38.367188 L 29.261719 38.515625 C 29.261719 38.5625 29.246094 38.601562 29.226562 38.628906 C 29.199219 38.675781 29.132812 38.699219 29.03125 38.699219 L 28.292969 38.699219 L 28.292969 39.234375 L 28.980469 39.234375 C 29.507812 39.234375 29.796875 38.957031 29.796875 38.453125 L 29.796875 36.363281 L 29.136719 36.363281 C 28.640625 36.363281 28.292969 36.691406 28.292969 37.164062 "/>
<path style=" stroke:none;fill-rule:nonzero;fill:rgb(18.823529%,24.313725%,28.235294%);fill-opacity:1;" d="M 31.566406 38.535156 C 31.566406 38.425781 31.632812 38.367188 31.769531 38.367188 L 32.882812 38.367188 L 32.882812 37.839844 L 32.386719 37.839844 C 32.203125 37.839844 32.074219 37.8125 32 37.757812 C 31.871094 37.664062 31.808594 37.535156 31.808594 37.375 C 31.808594 37.078125 32.007812 36.890625 32.316406 36.890625 L 32.890625 36.890625 L 32.890625 36.363281 L 32.292969 36.363281 C 32 36.363281 31.757812 36.464844 31.5625 36.660156 C 31.363281 36.855469 31.269531 37.097656 31.269531 37.390625 C 31.269531 37.574219 31.328125 37.746094 31.449219 37.894531 C 31.171875 38.03125 31.035156 38.238281 31.035156 38.523438 C 31.035156 38.808594 31.222656 39.089844 31.476562 39.175781 C 31.582031 39.214844 31.734375 39.234375 31.925781 39.234375 L 33.019531 39.234375 L 33.019531 38.699219 L 31.769531 38.699219 C 31.632812 38.699219 31.566406 38.644531 31.566406 38.535156 "/>
<path style=" stroke:none;fill-rule:nonzero;fill:rgb(18.823529%,24.313725%,28.235294%);fill-opacity:1;" d="M 33.421875 38.367188 L 33.957031 38.367188 L 33.957031 35.507812 L 33.421875 35.507812 Z M 33.421875 38.367188 "/>
<path style=" stroke:none;fill-rule:nonzero;fill:rgb(18.823529%,24.313725%,28.235294%);fill-opacity:1;" d="M 37.214844 37.839844 L 36.089844 37.839844 L 36.089844 37.515625 C 36.089844 37.085938 35.941406 36.769531 35.648438 36.570312 C 35.449219 36.429688 35.207031 36.359375 34.917969 36.359375 L 34.742188 36.359375 L 34.742188 36.886719 C 34.9375 36.890625 35.070312 36.902344 35.152344 36.929688 C 35.238281 36.953125 35.3125 36.996094 35.382812 37.058594 C 35.496094 37.148438 35.550781 37.304688 35.550781 37.519531 L 35.550781 37.839844 L 34.371094 37.839844 L 34.371094 38.367188 L 37.75 38.367188 L 37.75 36.363281 L 37.214844 36.363281 Z M 37.214844 37.839844 "/>
<path style=" stroke:none;fill-rule:nonzero;fill:rgb(18.823529%,24.313725%,28.235294%);fill-opacity:1;" d="M 37.214844 39.234375 L 37.75 39.234375 L 37.75 38.699219 L 37.214844 38.699219 Z M 37.214844 39.234375 "/>
<path style=" stroke:none;fill-rule:nonzero;fill:rgb(18.823529%,24.313725%,28.235294%);fill-opacity:1;" d="M 36.457031 39.234375 L 36.992188 39.234375 L 36.992188 38.699219 L 36.457031 38.699219 Z M 36.457031 39.234375 "/>
<path style=" stroke:none;fill-rule:nonzero;fill:rgb(18.823529%,24.313725%,28.235294%);fill-opacity:1;" d="M 39.878906 37.839844 L 39.347656 37.839844 L 39.347656 35.507812 L 38.8125 35.507812 L 38.8125 37.839844 L 38.152344 37.839844 L 38.152344 38.367188 L 40.425781 38.367188 L 40.425781 35.507812 L 39.878906 35.507812 Z M 39.878906 37.839844 "/>
<path style=" stroke:none;fill-rule:nonzero;fill:rgb(18.823529%,24.313725%,28.235294%);fill-opacity:1;" d="M 38.453125 39.136719 C 38.453125 39.042969 38.496094 38.996094 38.578125 38.996094 L 38.761719 38.996094 L 38.761719 38.789062 L 38.601562 38.789062 C 38.394531 38.789062 38.242188 38.9375 38.242188 39.144531 C 38.242188 39.179688 38.253906 39.21875 38.269531 39.261719 L 38.152344 39.261719 L 38.152344 39.464844 L 38.84375 39.464844 L 38.84375 39.261719 L 38.597656 39.261719 C 38.503906 39.261719 38.453125 39.21875 38.453125 39.136719 "/>
<path style=" stroke:none;fill-rule:nonzero;fill:rgb(18.823529%,24.313725%,28.235294%);fill-opacity:1;" d="M 40.824219 38.367188 L 41.363281 38.367188 L 41.363281 35.507812 L 40.824219 35.507812 Z M 40.824219 38.367188 "/>
<path style=" stroke:none;fill-rule:nonzero;fill:rgb(18.823529%,24.313725%,28.235294%);fill-opacity:1;" d="M 44.113281 35.507812 L 43.574219 35.507812 L 43.574219 36.035156 L 44.113281 36.035156 Z M 44.113281 35.507812 "/>
<path style=" stroke:none;fill-rule:nonzero;fill:rgb(18.823529%,24.313725%,28.235294%);fill-opacity:1;" d="M 44.871094 35.507812 L 44.332031 35.507812 L 44.332031 36.035156 L 44.871094 36.035156 Z M 44.871094 35.507812 "/>
<path style=" stroke:none;fill-rule:nonzero;fill:rgb(18.823529%,24.313725%,28.235294%);fill-opacity:1;" d="M 44.464844 37.839844 C 44.199219 37.710938 43.996094 37.441406 43.996094 37.195312 C 43.996094 36.992188 44.109375 36.890625 44.335938 36.890625 L 44.464844 36.890625 Z M 43.445312 37.191406 C 43.445312 37.789062 43.871094 38.257812 44.464844 38.363281 L 44.464844 38.515625 C 44.441406 38.667969 44.394531 38.699219 44.230469 38.699219 L 43.375 38.699219 C 43.210938 38.699219 43.164062 38.667969 43.144531 38.515625 L 43.144531 37.074219 L 42.609375 37.074219 L 42.609375 38.453125 C 42.609375 38.957031 42.898438 39.234375 43.425781 39.234375 L 44.179688 39.234375 C 44.707031 39.234375 44.996094 38.957031 44.996094 38.453125 L 44.996094 36.363281 L 44.371094 36.363281 C 43.691406 36.363281 43.445312 36.714844 43.445312 37.191406 "/>
<path style=" stroke:none;fill-rule:nonzero;fill:rgb(18.823529%,24.313725%,28.235294%);fill-opacity:1;" d="M 46.363281 37.839844 L 46.226562 37.839844 C 46.03125 37.839844 45.933594 37.730469 45.933594 37.511719 L 45.933594 37.210938 C 45.933594 36.996094 46.03125 36.890625 46.226562 36.890625 L 46.363281 36.890625 Z M 45.398438 37.164062 L 45.398438 37.5625 C 45.398438 38.042969 45.746094 38.367188 46.242188 38.367188 L 46.363281 38.367188 L 46.363281 38.515625 C 46.363281 38.5625 46.351562 38.601562 46.332031 38.628906 C 46.308594 38.675781 46.238281 38.699219 46.136719 38.699219 L 45.398438 38.699219 L 45.398438 39.234375 L 46.085938 39.234375 C 46.613281 39.234375 46.902344 38.957031 46.902344 38.453125 L 46.902344 36.363281 L 46.242188 36.363281 C 45.746094 36.363281 45.398438 36.691406 45.398438 37.164062 "/>
<path style=" stroke:none;fill-rule:nonzero;fill:rgb(18.823529%,24.313725%,28.235294%);fill-opacity:1;" d="M 50.21875 35.507812 L 49.683594 35.507812 L 49.683594 36.035156 L 50.21875 36.035156 Z M 50.21875 35.507812 "/>
<path style=" stroke:none;fill-rule:nonzero;fill:rgb(18.823529%,24.313725%,28.235294%);fill-opacity:1;" d="M 53.457031 37.839844 L 52.242188 37.839844 L 52.242188 36.890625 L 53.164062 36.890625 C 53.363281 36.890625 53.457031 36.996094 53.457031 37.210938 Z M 53.148438 36.363281 L 51.710938 36.363281 L 51.710938 37.839844 L 51.40625 37.839844 L 51.40625 36.980469 L 50.863281 36.980469 L 50.863281 37.839844 L 50.21875 37.839844 L 50.21875 36.363281 L 49.683594 36.363281 L 49.683594 37.839844 L 49.027344 37.839844 L 49.027344 37.515625 C 49.027344 37.085938 48.878906 36.769531 48.585938 36.570312 C 48.382812 36.429688 48.140625 36.359375 47.855469 36.359375 L 47.679688 36.359375 L 47.679688 36.886719 C 47.871094 36.890625 48.007812 36.902344 48.085938 36.929688 C 48.171875 36.953125 48.25 36.996094 48.320312 37.058594 C 48.433594 37.148438 48.488281 37.304688 48.488281 37.519531 L 48.488281 37.839844 L 47.304688 37.839844 L 47.304688 38.367188 L 53.992188 38.367188 L 53.992188 37.164062 C 53.992188 36.691406 53.648438 36.363281 53.148438 36.363281 "/>
<path style=" stroke:none;fill-rule:nonzero;fill:rgb(18.823529%,24.313725%,28.235294%);fill-opacity:1;" d="M 14.492188 41.945312 L 13.792969 41.945312 L 13.792969 42.847656 L 13.382812 42.847656 L 13.382812 41.945312 L 12.703125 41.945312 L 12.703125 41.546875 L 13.378906 41.546875 L 13.378906 40.632812 L 13.792969 40.632812 L 13.792969 41.539062 L 14.492188 41.539062 Z M 14.492188 41.945312 "/>
<path style=" stroke:none;fill-rule:nonzero;fill:rgb(18.823529%,24.313725%,28.235294%);fill-opacity:1;" d="M 15.121094 42.289062 C 15.121094 42.320312 15.125 42.347656 15.140625 42.378906 C 15.15625 42.410156 15.171875 42.4375 15.195312 42.460938 C 15.21875 42.480469 15.25 42.5 15.285156 42.511719 C 15.316406 42.523438 15.351562 42.53125 15.386719 42.53125 C 15.425781 42.53125 15.460938 42.523438 15.492188 42.511719 C 15.523438 42.5 15.550781 42.480469 15.578125 42.460938 C 15.601562 42.4375 15.621094 42.410156 15.632812 42.378906 C 15.644531 42.347656 15.652344 42.320312 15.652344 42.289062 C 15.652344 42.25 15.644531 42.21875 15.632812 42.191406 C 15.621094 42.160156 15.601562 42.136719 15.578125 42.113281 C 15.550781 42.09375 15.523438 42.074219 15.492188 42.0625 C 15.460938 42.046875 15.425781 42.039062 15.386719 42.039062 C 15.351562 42.039062 15.316406 42.046875 15.285156 42.0625 C 15.25 42.074219 15.21875 42.09375 15.195312 42.113281 C 15.171875 42.136719 15.15625 42.160156 15.140625 42.191406 C 15.125 42.21875 15.121094 42.25 15.121094 42.289062 M 14.8125 42.304688 C 14.8125 42.226562 14.828125 42.152344 14.859375 42.085938 C 14.890625 42.015625 14.929688 41.960938 14.980469 41.910156 C 15.035156 41.859375 15.09375 41.820312 15.164062 41.792969 C 15.238281 41.761719 15.3125 41.75 15.390625 41.75 C 15.46875 41.75 15.546875 41.761719 15.617188 41.792969 C 15.6875 41.820312 15.75 41.859375 15.800781 41.910156 C 15.851562 41.960938 15.894531 42.015625 15.925781 42.085938 C 15.957031 42.152344 15.972656 42.226562 15.972656 42.304688 C 15.972656 42.421875 15.941406 42.523438 15.882812 42.601562 C 15.824219 42.679688 15.753906 42.742188 15.667969 42.78125 C 15.582031 42.820312 15.488281 42.839844 15.386719 42.839844 C 15.289062 42.839844 15.195312 42.820312 15.109375 42.78125 C 15.023438 42.742188 14.953125 42.679688 14.898438 42.601562 C 14.839844 42.523438 14.8125 42.421875 14.8125 42.304688 "/>
<path style=" stroke:none;fill-rule:nonzero;fill:rgb(18.823529%,24.313725%,28.235294%);fill-opacity:1;" d="M 17.234375 42.007812 L 17.234375 42.84375 L 16.347656 42.84375 L 16.347656 42.4375 L 16.8125 42.4375 L 16.8125 41.039062 L 16.339844 41.039062 L 16.339844 40.628906 L 17.230469 40.628906 L 17.230469 41.59375 L 17.609375 41.589844 L 17.609375 40.621094 L 18.5 40.621094 L 18.5 41.039062 L 18.023438 41.035156 L 18.023438 42.433594 L 18.492188 42.433594 L 18.492188 42.839844 L 17.605469 42.839844 L 17.605469 42 Z M 17.234375 42.007812 "/>
<path style=" stroke:none;fill-rule:nonzero;fill:rgb(18.823529%,24.313725%,28.235294%);fill-opacity:1;" d="M 19.335938 42.867188 L 18.917969 42.867188 L 18.917969 40.632812 L 19.335938 40.628906 Z M 19.335938 42.867188 "/>
<path style=" stroke:none;fill-rule:nonzero;fill:rgb(18.823529%,24.313725%,28.235294%);fill-opacity:1;" d="M 21.632812 42.933594 L 19.847656 42.394531 L 20.78125 41.769531 L 19.84375 41.148438 L 21.621094 40.585938 L 21.621094 40.992188 L 20.683594 41.269531 L 21.480469 41.742188 L 20.757812 42.242188 L 21.632812 42.515625 Z M 21.632812 42.933594 "/>
<path style=" stroke:none;fill-rule:nonzero;fill:rgb(18.823529%,24.313725%,28.235294%);fill-opacity:1;" d="M 23.132812 41.03125 L 22.421875 41.03125 L 22.421875 42.042969 Z M 23.589844 42.851562 L 22.007812 42.851562 L 22.007812 40.621094 L 23.570312 40.621094 L 23.570312 41.039062 L 22.554688 42.441406 L 23.589844 42.441406 Z M 23.589844 42.851562 "/>
<path style=" stroke:none;fill-rule:nonzero;fill:rgb(18.823529%,24.313725%,28.235294%);fill-opacity:1;" d="M 25.875 41.945312 L 25.179688 41.945312 L 25.179688 42.847656 L 24.765625 42.847656 L 24.765625 41.945312 L 24.085938 41.945312 L 24.085938 41.546875 L 24.761719 41.546875 L 24.761719 40.632812 L 25.179688 40.632812 L 25.179688 41.539062 L 25.875 41.539062 Z M 25.875 41.945312 "/>
<path style=" stroke:none;fill-rule:nonzero;fill:rgb(18.823529%,24.313725%,28.235294%);fill-opacity:1;" d="M 27.917969 42.867188 L 27.5 42.867188 L 27.5 40.632812 L 27.917969 40.628906 Z M 27.917969 42.867188 "/>
<path style=" stroke:none;fill-rule:nonzero;fill:rgb(18.823529%,24.313725%,28.235294%);fill-opacity:1;" d="M 29.976562 42.367188 C 29.976562 42.398438 29.984375 42.425781 29.996094 42.449219 C 30.003906 42.476562 30.023438 42.5 30.042969 42.519531 C 30.066406 42.535156 30.089844 42.550781 30.117188 42.5625 C 30.148438 42.574219 30.179688 42.578125 30.210938 42.578125 C 30.246094 42.578125 30.277344 42.574219 30.304688 42.5625 C 30.332031 42.550781 30.359375 42.535156 30.378906 42.519531 C 30.402344 42.5 30.417969 42.476562 30.429688 42.449219 C 30.441406 42.425781 30.449219 42.398438 30.449219 42.367188 C 30.449219 42.339844 30.441406 42.3125 30.429688 42.289062 C 30.417969 42.261719 30.402344 42.242188 30.378906 42.21875 C 30.359375 42.203125 30.332031 42.1875 30.304688 42.175781 C 30.277344 42.164062 30.246094 42.160156 30.210938 42.160156 C 30.179688 42.160156 30.148438 42.164062 30.117188 42.175781 C 30.089844 42.1875 30.066406 42.203125 30.042969 42.21875 C 30.023438 42.242188 30.003906 42.261719 29.996094 42.289062 C 29.984375 42.3125 29.976562 42.339844 29.976562 42.367188 M 29.972656 41.121094 C 29.972656 41.144531 29.980469 41.167969 29.992188 41.195312 C 30.003906 41.21875 30.023438 41.242188 30.042969 41.261719 C 30.0625 41.277344 30.089844 41.292969 30.117188 41.304688 C 30.148438 41.316406 30.179688 41.320312 30.214844 41.320312 C 30.25 41.320312 30.28125 41.316406 30.308594 41.304688 C 30.335938 41.292969 30.363281 41.277344 30.386719 41.261719 C 30.40625 41.242188 30.425781 41.21875 30.4375 41.195312 C 30.449219 41.167969 30.453125 41.144531 30.453125 41.121094 C 30.453125 41.089844 30.449219 41.0625 30.4375 41.039062 C 30.425781 41.015625 30.40625 40.992188 30.386719 40.972656 C 30.363281 40.957031 30.335938 40.941406 30.308594 40.933594 C 30.28125 40.925781 30.25 40.917969 30.214844 40.917969 C 30.179688 40.917969 30.148438 40.925781 30.117188 40.933594 C 30.089844 40.941406 30.0625 40.957031 30.042969 40.972656 C 30.023438 40.992188 30.003906 41.015625 29.992188 41.039062 C 29.980469 41.0625 29.972656 41.089844 29.972656 41.121094 M 29.679688 41.121094 C 29.679688 41.050781 29.695312 40.988281 29.726562 40.929688 C 29.753906 40.871094 29.792969 40.816406 29.839844 40.773438 C 29.890625 40.730469 29.945312 40.695312 30.011719 40.671875 C 30.078125 40.644531 30.152344 40.628906 30.226562 40.628906 C 30.300781 40.628906 30.375 40.644531 30.441406 40.671875 C 30.507812 40.695312 30.566406 40.730469 30.617188 40.773438 C 30.664062 40.816406 30.703125 40.871094 30.734375 40.929688 C 30.761719 40.988281 30.777344 41.050781 30.777344 41.121094 C 30.777344 41.1875 30.761719 41.25 30.734375 41.308594 C 30.703125 41.367188 30.664062 41.421875 30.617188 41.464844 C 30.566406 41.511719 30.507812 41.546875 30.441406 41.570312 C 30.375 41.59375 30.300781 41.605469 30.226562 41.605469 C 30.152344 41.605469 30.078125 41.59375 30.011719 41.570312 C 29.945312 41.546875 29.890625 41.511719 29.839844 41.464844 C 29.792969 41.421875 29.753906 41.367188 29.726562 41.308594 C 29.695312 41.25 29.679688 41.1875 29.679688 41.121094 M 29.667969 42.371094 C 29.667969 42.304688 29.679688 42.242188 29.710938 42.183594 C 29.742188 42.125 29.777344 42.074219 29.828125 42.027344 C 29.875 41.984375 29.933594 41.949219 30.003906 41.921875 C 30.070312 41.898438 30.144531 41.882812 30.222656 41.882812 C 30.296875 41.882812 30.367188 41.898438 30.4375 41.921875 C 30.503906 41.949219 30.5625 41.984375 30.613281 42.027344 C 30.660156 42.074219 30.699219 42.125 30.730469 42.183594 C 30.757812 42.242188 30.773438 42.304688 30.773438 42.371094 C 30.773438 42.4375 30.757812 42.5 30.730469 42.558594 C 30.699219 42.617188 30.660156 42.671875 30.613281 42.714844 C 30.5625 42.761719 30.503906 42.796875 30.4375 42.820312 C 30.367188 42.84375 30.296875 42.851562 30.222656 42.851562 C 30.144531 42.851562 30.070312 42.84375 30.003906 42.820312 C 29.933594 42.796875 29.875 42.761719 29.828125 42.714844 C 29.777344 42.671875 29.742188 42.617188 29.710938 42.558594 C 29.679688 42.5 29.667969 42.4375 29.667969 42.371094 "/>
<path style=" stroke:none;fill-rule:nonzero;fill:rgb(18.823529%,24.313725%,28.235294%);fill-opacity:1;" d="M 32.429688 41.742188 C 32.429688 41.796875 32.40625 41.84375 32.359375 41.890625 C 32.34375 41.914062 32.320312 41.929688 32.296875 41.941406 C 32.269531 41.949219 32.242188 41.957031 32.210938 41.957031 C 32.15625 41.957031 32.105469 41.933594 32.0625 41.890625 C 32.019531 41.84375 32 41.796875 32 41.742188 C 32 41.683594 32.019531 41.632812 32.0625 41.589844 C 32.105469 41.546875 32.15625 41.527344 32.210938 41.527344 C 32.269531 41.527344 32.324219 41.546875 32.367188 41.589844 C 32.410156 41.632812 32.429688 41.683594 32.429688 41.742188 M 31.476562 41.742188 C 31.476562 41.847656 31.496094 41.949219 31.535156 42.042969 C 31.574219 42.136719 31.625 42.214844 31.691406 42.289062 C 31.757812 42.355469 31.839844 42.414062 31.929688 42.453125 C 32.019531 42.492188 32.113281 42.511719 32.210938 42.511719 C 32.320312 42.511719 32.417969 42.492188 32.511719 42.453125 C 32.601562 42.414062 32.679688 42.355469 32.75 42.289062 C 32.816406 42.214844 32.871094 42.136719 32.910156 42.042969 C 32.945312 41.949219 32.964844 41.847656 32.964844 41.742188 C 32.964844 41.636719 32.945312 41.535156 32.910156 41.441406 C 32.871094 41.34375 32.816406 41.261719 32.75 41.195312 C 32.679688 41.125 32.601562 41.070312 32.511719 41.03125 C 32.417969 40.988281 32.320312 40.96875 32.214844 40.96875 C 32.117188 40.96875 32.019531 40.988281 31.929688 41.03125 C 31.835938 41.070312 31.757812 41.125 31.691406 41.195312 C 31.625 41.261719 31.574219 41.34375 31.535156 41.441406 C 31.496094 41.535156 31.476562 41.636719 31.476562 41.742188 M 33.335938 41.742188 C 33.332031 42.0625 33.21875 42.332031 32.992188 42.550781 C 32.769531 42.757812 32.507812 42.863281 32.210938 42.863281 C 31.894531 42.863281 31.628906 42.75 31.421875 42.53125 C 31.214844 42.308594 31.109375 42.046875 31.105469 41.742188 C 31.109375 41.414062 31.21875 41.148438 31.433594 40.933594 C 31.667969 40.730469 31.925781 40.628906 32.207031 40.628906 C 32.542969 40.628906 32.8125 40.742188 33.023438 40.960938 C 33.230469 41.183594 33.332031 41.441406 33.335938 41.742188 "/>
<path style=" stroke:none;fill-rule:nonzero;fill:rgb(18.823529%,24.313725%,28.235294%);fill-opacity:1;" d="M 34.09375 41.742188 C 34.09375 41.847656 34.113281 41.949219 34.152344 42.042969 C 34.191406 42.136719 34.242188 42.214844 34.308594 42.285156 C 34.375 42.359375 34.453125 42.414062 34.546875 42.453125 C 34.636719 42.492188 34.734375 42.511719 34.835938 42.511719 C 34.9375 42.511719 35.035156 42.492188 35.125 42.453125 C 35.21875 42.414062 35.296875 42.359375 35.363281 42.285156 C 35.433594 42.214844 35.484375 42.136719 35.523438 42.042969 C 35.5625 41.949219 35.582031 41.847656 35.582031 41.742188 C 35.582031 41.636719 35.5625 41.535156 35.523438 41.441406 C 35.484375 41.347656 35.433594 41.265625 35.363281 41.195312 C 35.296875 41.125 35.21875 41.070312 35.125 41.03125 C 35.035156 40.988281 34.9375 40.96875 34.835938 40.96875 C 34.734375 40.96875 34.636719 40.988281 34.546875 41.03125 C 34.453125 41.070312 34.375 41.125 34.308594 41.195312 C 34.242188 41.265625 34.191406 41.347656 34.152344 41.441406 C 34.113281 41.535156 34.09375 41.636719 34.09375 41.742188 M 35.945312 41.765625 C 35.945312 42.070312 35.835938 42.332031 35.609375 42.550781 C 35.386719 42.757812 35.125 42.863281 34.828125 42.863281 C 34.507812 42.863281 34.246094 42.75 34.039062 42.53125 C 33.828125 42.308594 33.726562 42.03125 33.726562 41.699219 C 33.726562 41.402344 33.84375 41.148438 34.074219 40.933594 C 34.304688 40.730469 34.5625 40.628906 34.847656 40.628906 C 35.15625 40.628906 35.414062 40.742188 35.628906 40.960938 C 35.839844 41.183594 35.945312 41.453125 35.945312 41.765625 "/>
<path style=" stroke:none;fill-rule:nonzero;fill:rgb(18.823529%,24.313725%,28.235294%);fill-opacity:1;" d="M 37.578125 41.742188 C 37.578125 41.796875 37.554688 41.84375 37.507812 41.890625 C 37.492188 41.914062 37.46875 41.929688 37.445312 41.941406 C 37.417969 41.949219 37.390625 41.957031 37.359375 41.957031 C 37.304688 41.957031 37.253906 41.933594 37.210938 41.890625 C 37.167969 41.84375 37.144531 41.796875 37.144531 41.742188 C 37.144531 41.683594 37.167969 41.632812 37.210938 41.589844 C 37.253906 41.546875 37.304688 41.527344 37.359375 41.527344 C 37.417969 41.527344 37.46875 41.546875 37.515625 41.589844 C 37.558594 41.632812 37.578125 41.683594 37.578125 41.742188 M 36.625 41.742188 C 36.625 41.847656 36.644531 41.949219 36.683594 42.042969 C 36.722656 42.136719 36.773438 42.214844 36.839844 42.289062 C 36.910156 42.355469 36.988281 42.414062 37.078125 42.453125 C 37.167969 42.492188 37.261719 42.511719 37.359375 42.511719 C 37.46875 42.511719 37.566406 42.492188 37.660156 42.453125 C 37.75 42.414062 37.828125 42.355469 37.898438 42.289062 C 37.964844 42.214844 38.015625 42.136719 38.054688 42.042969 C 38.09375 41.949219 38.113281 41.847656 38.113281 41.742188 C 38.113281 41.636719 38.09375 41.535156 38.054688 41.441406 C 38.015625 41.34375 37.964844 41.261719 37.898438 41.195312 C 37.828125 41.125 37.75 41.070312 37.660156 41.03125 C 37.566406 40.988281 37.46875 40.96875 37.363281 40.96875 C 37.265625 40.96875 37.167969 40.988281 37.078125 41.03125 C 36.984375 41.070312 36.90625 41.125 36.839844 41.195312 C 36.773438 41.261719 36.722656 41.34375 36.683594 41.441406 C 36.644531 41.535156 36.625 41.636719 36.625 41.742188 M 38.484375 41.742188 C 38.480469 42.0625 38.367188 42.332031 38.140625 42.550781 C 37.917969 42.757812 37.65625 42.863281 37.359375 42.863281 C 37.042969 42.863281 36.777344 42.75 36.570312 42.53125 C 36.363281 42.308594 36.257812 42.046875 36.253906 41.742188 C 36.257812 41.414062 36.367188 41.148438 36.582031 40.933594 C 36.816406 40.730469 37.074219 40.628906 37.355469 40.628906 C 37.691406 40.628906 37.960938 40.742188 38.167969 40.960938 C 38.375 41.183594 38.480469 41.441406 38.484375 41.742188 "/>
<path style=" stroke:none;fill-rule:nonzero;fill:rgb(18.823529%,24.313725%,28.235294%);fill-opacity:1;" d="M 42.210938 42.859375 L 41.792969 42.855469 L 41.148438 41.15625 L 40.558594 42.851562 L 40.144531 42.851562 L 40.933594 40.628906 L 41.355469 40.628906 Z M 42.210938 42.859375 "/>
<path style=" stroke:none;fill-rule:nonzero;fill:rgb(18.823529%,24.313725%,28.235294%);fill-opacity:1;" d="M 44.125 42.367188 C 44.125 42.398438 44.128906 42.425781 44.140625 42.449219 C 44.152344 42.476562 44.167969 42.5 44.191406 42.519531 C 44.210938 42.535156 44.238281 42.550781 44.265625 42.5625 C 44.292969 42.574219 44.324219 42.578125 44.359375 42.578125 C 44.394531 42.578125 44.425781 42.574219 44.453125 42.5625 C 44.480469 42.550781 44.503906 42.535156 44.527344 42.519531 C 44.546875 42.5 44.566406 42.476562 44.578125 42.449219 C 44.589844 42.425781 44.597656 42.398438 44.597656 42.367188 C 44.597656 42.339844 44.589844 42.3125 44.578125 42.289062 C 44.566406 42.261719 44.546875 42.242188 44.527344 42.21875 C 44.503906 42.203125 44.480469 42.1875 44.453125 42.175781 C 44.425781 42.164062 44.394531 42.160156 44.359375 42.160156 C 44.324219 42.160156 44.292969 42.164062 44.265625 42.175781 C 44.238281 42.1875 44.210938 42.203125 44.191406 42.21875 C 44.167969 42.242188 44.152344 42.261719 44.140625 42.289062 C 44.128906 42.3125 44.125 42.339844 44.125 42.367188 M 44.121094 41.121094 C 44.121094 41.144531 44.128906 41.167969 44.140625 41.195312 C 44.152344 41.21875 44.167969 41.242188 44.1875 41.261719 C 44.210938 41.277344 44.234375 41.292969 44.265625 41.304688 C 44.296875 41.316406 44.328125 41.320312 44.363281 41.320312 C 44.394531 41.320312 44.425781 41.316406 44.453125 41.304688 C 44.484375 41.292969 44.507812 41.277344 44.53125 41.261719 C 44.554688 41.242188 44.574219 41.21875 44.585938 41.195312 C 44.597656 41.167969 44.601562 41.144531 44.601562 41.121094 C 44.601562 41.089844 44.597656 41.0625 44.585938 41.039062 C 44.574219 41.015625 44.554688 40.992188 44.53125 40.972656 C 44.507812 40.957031 44.484375 40.941406 44.453125 40.933594 C 44.425781 40.925781 44.394531 40.917969 44.363281 40.917969 C 44.328125 40.917969 44.296875 40.925781 44.265625 40.933594 C 44.234375 40.941406 44.210938 40.957031 44.1875 40.972656 C 44.167969 40.992188 44.152344 41.015625 44.140625 41.039062 C 44.128906 41.0625 44.121094 41.089844 44.121094 41.121094 M 43.828125 41.121094 C 43.828125 41.050781 43.84375 40.988281 43.871094 40.929688 C 43.902344 40.871094 43.9375 40.816406 43.988281 40.773438 C 44.035156 40.730469 44.09375 40.695312 44.160156 40.671875 C 44.226562 40.644531 44.296875 40.628906 44.375 40.628906 C 44.449219 40.628906 44.523438 40.644531 44.589844 40.671875 C 44.65625 40.695312 44.714844 40.730469 44.765625 40.773438 C 44.8125 40.816406 44.851562 40.871094 44.878906 40.929688 C 44.910156 40.988281 44.925781 41.050781 44.925781 41.121094 C 44.925781 41.1875 44.910156 41.25 44.878906 41.308594 C 44.851562 41.367188 44.8125 41.421875 44.765625 41.464844 C 44.714844 41.511719 44.65625 41.546875 44.589844 41.570312 C 44.523438 41.59375 44.449219 41.605469 44.375 41.605469 C 44.296875 41.605469 44.226562 41.59375 44.160156 41.570312 C 44.09375 41.546875 44.035156 41.511719 43.988281 41.464844 C 43.9375 41.421875 43.902344 41.367188 43.871094 41.308594 C 43.84375 41.25 43.828125 41.1875 43.828125 41.121094 M 43.8125 42.371094 C 43.8125 42.304688 43.828125 42.242188 43.859375 42.183594 C 43.886719 42.125 43.925781 42.074219 43.976562 42.027344 C 44.023438 41.984375 44.082031 41.949219 44.152344 41.921875 C 44.21875 41.898438 44.289062 41.882812 44.367188 41.882812 C 44.445312 41.882812 44.515625 41.898438 44.585938 41.921875 C 44.652344 41.949219 44.710938 41.984375 44.757812 42.027344 C 44.808594 42.074219 44.847656 42.125 44.875 42.183594 C 44.90625 42.242188 44.921875 42.304688 44.921875 42.371094 C 44.921875 42.4375 44.90625 42.5 44.875 42.558594 C 44.847656 42.617188 44.808594 42.671875 44.757812 42.714844 C 44.710938 42.761719 44.652344 42.796875 44.585938 42.820312 C 44.515625 42.84375 44.445312 42.851562 44.367188 42.851562 C 44.289062 42.851562 44.21875 42.84375 44.152344 42.820312 C 44.082031 42.796875 44.023438 42.761719 43.976562 42.714844 C 43.925781 42.671875 43.886719 42.617188 43.859375 42.558594 C 43.828125 42.5 43.8125 42.4375 43.8125 42.371094 "/>
<path style=" stroke:none;fill-rule:nonzero;fill:rgb(18.823529%,24.313725%,28.235294%);fill-opacity:1;" d="M 46.578125 41.742188 C 46.578125 41.796875 46.554688 41.84375 46.507812 41.890625 C 46.488281 41.914062 46.46875 41.929688 46.441406 41.941406 C 46.417969 41.949219 46.390625 41.957031 46.355469 41.957031 C 46.304688 41.957031 46.253906 41.933594 46.210938 41.890625 C 46.167969 41.84375 46.144531 41.796875 46.144531 41.742188 C 46.144531 41.683594 46.167969 41.632812 46.210938 41.589844 C 46.253906 41.546875 46.304688 41.527344 46.355469 41.527344 C 46.417969 41.527344 46.46875 41.546875 46.511719 41.589844 C 46.554688 41.632812 46.578125 41.683594 46.578125 41.742188 M 45.625 41.742188 C 45.625 41.847656 45.644531 41.949219 45.683594 42.042969 C 45.722656 42.136719 45.773438 42.214844 45.839844 42.289062 C 45.90625 42.355469 45.984375 42.414062 46.078125 42.453125 C 46.167969 42.492188 46.261719 42.511719 46.355469 42.511719 C 46.46875 42.511719 46.566406 42.492188 46.65625 42.453125 C 46.75 42.414062 46.828125 42.355469 46.894531 42.289062 C 46.964844 42.214844 47.015625 42.136719 47.054688 42.042969 C 47.09375 41.949219 47.113281 41.847656 47.113281 41.742188 C 47.113281 41.636719 47.09375 41.535156 47.054688 41.441406 C 47.015625 41.34375 46.964844 41.261719 46.894531 41.195312 C 46.828125 41.125 46.75 41.070312 46.65625 41.03125 C 46.566406 40.988281 46.46875 40.96875 46.363281 40.96875 C 46.265625 40.96875 46.167969 40.988281 46.074219 41.03125 C 45.984375 41.070312 45.90625 41.125 45.839844 41.195312 C 45.773438 41.261719 45.722656 41.34375 45.683594 41.441406 C 45.644531 41.535156 45.625 41.636719 45.625 41.742188 M 47.480469 41.742188 C 47.480469 42.0625 47.367188 42.332031 47.140625 42.550781 C 46.917969 42.757812 46.65625 42.863281 46.355469 42.863281 C 46.039062 42.863281 45.777344 42.75 45.570312 42.53125 C 45.363281 42.308594 45.253906 42.046875 45.25 41.742188 C 45.253906 41.414062 45.367188 41.148438 45.582031 40.933594 C 45.8125 40.730469 46.070312 40.628906 46.355469 40.628906 C 46.6875 40.628906 46.960938 40.742188 47.167969 40.960938 C 47.375 41.183594 47.480469 41.441406 47.480469 41.742188 "/>
<path style=" stroke:none;fill-rule:nonzero;fill:rgb(18.823529%,24.313725%,28.235294%);fill-opacity:1;" d="M 49.394531 42.449219 L 49.394531 40.636719 L 49.8125 40.636719 L 49.8125 42.851562 L 47.949219 42.851562 L 47.949219 40.636719 L 48.367188 40.636719 L 48.367188 42.449219 Z M 49.394531 42.449219 "/>
<path style=" stroke:none;fill-rule:nonzero;fill:rgb(18.823529%,24.313725%,28.235294%);fill-opacity:1;" d="M 50.53125 42.367188 C 50.53125 42.398438 50.539062 42.425781 50.546875 42.449219 C 50.558594 42.476562 50.578125 42.5 50.597656 42.519531 C 50.621094 42.535156 50.644531 42.550781 50.671875 42.5625 C 50.703125 42.574219 50.730469 42.578125 50.765625 42.578125 C 50.800781 42.578125 50.832031 42.574219 50.859375 42.5625 C 50.886719 42.550781 50.910156 42.535156 50.933594 42.519531 C 50.953125 42.5 50.972656 42.476562 50.984375 42.449219 C 50.996094 42.425781 51.003906 42.398438 51.003906 42.367188 C 51.003906 42.339844 50.996094 42.3125 50.984375 42.289062 C 50.972656 42.261719 50.953125 42.242188 50.933594 42.21875 C 50.910156 42.203125 50.886719 42.1875 50.859375 42.175781 C 50.832031 42.164062 50.800781 42.160156 50.765625 42.160156 C 50.730469 42.160156 50.703125 42.164062 50.671875 42.175781 C 50.644531 42.1875 50.621094 42.203125 50.597656 42.21875 C 50.578125 42.242188 50.558594 42.261719 50.546875 42.289062 C 50.539062 42.3125 50.53125 42.339844 50.53125 42.367188 M 50.527344 41.121094 C 50.527344 41.144531 50.535156 41.167969 50.546875 41.195312 C 50.558594 41.21875 50.574219 41.242188 50.597656 41.261719 C 50.617188 41.277344 50.644531 41.292969 50.671875 41.304688 C 50.703125 41.316406 50.734375 41.320312 50.769531 41.320312 C 50.800781 41.320312 50.835938 41.316406 50.863281 41.304688 C 50.890625 41.292969 50.917969 41.277344 50.9375 41.261719 C 50.964844 41.242188 50.980469 41.21875 50.992188 41.195312 C 51.003906 41.167969 51.007812 41.144531 51.007812 41.121094 C 51.007812 41.089844 51.003906 41.0625 50.992188 41.039062 C 50.980469 41.015625 50.964844 40.992188 50.9375 40.972656 C 50.917969 40.957031 50.890625 40.941406 50.863281 40.933594 C 50.835938 40.925781 50.800781 40.917969 50.769531 40.917969 C 50.734375 40.917969 50.703125 40.925781 50.671875 40.933594 C 50.644531 40.941406 50.617188 40.957031 50.597656 40.972656 C 50.574219 40.992188 50.558594 41.015625 50.546875 41.039062 C 50.535156 41.0625 50.527344 41.089844 50.527344 41.121094 M 50.234375 41.121094 C 50.234375 41.050781 50.25 40.988281 50.28125 40.929688 C 50.308594 40.871094 50.347656 40.816406 50.394531 40.773438 C 50.445312 40.730469 50.5 40.695312 50.566406 40.671875 C 50.632812 40.644531 50.703125 40.628906 50.78125 40.628906 C 50.855469 40.628906 50.929688 40.644531 50.996094 40.671875 C 51.0625 40.695312 51.121094 40.730469 51.171875 40.773438 C 51.21875 40.816406 51.257812 40.871094 51.289062 40.929688 C 51.316406 40.988281 51.332031 41.050781 51.332031 41.121094 C 51.332031 41.1875 51.316406 41.25 51.289062 41.308594 C 51.257812 41.367188 51.21875 41.421875 51.171875 41.464844 C 51.121094 41.511719 51.0625 41.546875 50.996094 41.570312 C 50.929688 41.59375 50.855469 41.605469 50.78125 41.605469 C 50.703125 41.605469 50.632812 41.59375 50.566406 41.570312 C 50.5 41.546875 50.445312 41.511719 50.394531 41.464844 C 50.347656 41.421875 50.308594 41.367188 50.28125 41.308594 C 50.25 41.25 50.234375 41.1875 50.234375 41.121094 M 50.222656 42.371094 C 50.222656 42.304688 50.234375 42.242188 50.265625 42.183594 C 50.292969 42.125 50.335938 42.074219 50.382812 42.027344 C 50.429688 41.984375 50.488281 41.949219 50.558594 41.921875 C 50.625 41.898438 50.699219 41.882812 50.773438 41.882812 C 50.851562 41.882812 50.925781 41.898438 50.992188 41.921875 C 51.058594 41.949219 51.117188 41.984375 51.167969 42.027344 C 51.214844 42.074219 51.253906 42.125 51.28125 42.183594 C 51.3125 42.242188 51.324219 42.304688 51.324219 42.371094 C 51.324219 42.4375 51.3125 42.5 51.28125 42.558594 C 51.253906 42.617188 51.214844 42.671875 51.167969 42.714844 C 51.117188 42.761719 51.058594 42.796875 50.992188 42.820312 C 50.925781 42.84375 50.851562 42.851562 50.773438 42.851562 C 50.699219 42.851562 50.625 42.84375 50.558594 42.820312 C 50.488281 42.796875 50.429688 42.761719 50.382812 42.714844 C 50.335938 42.671875 50.292969 42.617188 50.265625 42.558594 C 50.234375 42.5 50.222656 42.4375 50.222656 42.371094 "/>
<path style=" stroke:none;fill-rule:nonzero;fill:rgb(18.823529%,24.313725%,28.235294%);fill-opacity:1;" d="M 53.761719 42.859375 L 53.34375 42.855469 L 52.699219 41.15625 L 52.109375 42.851562 L 51.691406 42.851562 L 52.484375 40.628906 L 52.90625 40.628906 Z M 53.761719 42.859375 "/>
<path style=" stroke:none;fill-rule:nonzero;fill:rgb(18.823529%,24.313725%,28.235294%);fill-opacity:1;" d="M 56.15625 42.859375 L 55.738281 42.855469 L 55.09375 41.15625 L 54.507812 42.851562 L 54.089844 42.851562 L 54.878906 40.628906 L 55.304688 40.628906 Z M 56.15625 42.859375 "/>
<path style=" stroke:none;fill-rule:nonzero;fill:rgb(18.823529%,24.313725%,28.235294%);fill-opacity:1;" d="M 56.832031 42.367188 C 56.832031 42.398438 56.839844 42.425781 56.847656 42.449219 C 56.859375 42.476562 56.875 42.5 56.898438 42.519531 C 56.917969 42.535156 56.945312 42.550781 56.972656 42.5625 C 57 42.574219 57.03125 42.578125 57.066406 42.578125 C 57.101562 42.578125 57.128906 42.574219 57.160156 42.5625 C 57.1875 42.550781 57.210938 42.535156 57.234375 42.519531 C 57.253906 42.5 57.273438 42.476562 57.285156 42.449219 C 57.296875 42.425781 57.304688 42.398438 57.304688 42.367188 C 57.304688 42.339844 57.296875 42.3125 57.285156 42.289062 C 57.273438 42.261719 57.253906 42.242188 57.234375 42.21875 C 57.210938 42.203125 57.1875 42.1875 57.160156 42.175781 C 57.128906 42.164062 57.101562 42.160156 57.066406 42.160156 C 57.03125 42.160156 57 42.164062 56.972656 42.175781 C 56.945312 42.1875 56.917969 42.203125 56.898438 42.21875 C 56.875 42.242188 56.859375 42.261719 56.847656 42.289062 C 56.839844 42.3125 56.832031 42.339844 56.832031 42.367188 M 56.828125 41.121094 C 56.828125 41.144531 56.835938 41.167969 56.847656 41.195312 C 56.859375 41.21875 56.875 41.242188 56.894531 41.261719 C 56.917969 41.277344 56.941406 41.292969 56.972656 41.304688 C 57.003906 41.316406 57.035156 41.320312 57.070312 41.320312 C 57.101562 41.320312 57.132812 41.316406 57.160156 41.304688 C 57.191406 41.292969 57.214844 41.277344 57.238281 41.261719 C 57.261719 41.242188 57.277344 41.21875 57.292969 41.195312 C 57.300781 41.167969 57.308594 41.144531 57.308594 41.121094 C 57.308594 41.089844 57.300781 41.0625 57.292969 41.039062 C 57.277344 41.015625 57.261719 40.992188 57.238281 40.972656 C 57.214844 40.957031 57.191406 40.941406 57.160156 40.933594 C 57.132812 40.925781 57.101562 40.917969 57.070312 40.917969 C 57.035156 40.917969 57.003906 40.925781 56.972656 40.933594 C 56.941406 40.941406 56.917969 40.957031 56.894531 40.972656 C 56.875 40.992188 56.859375 41.015625 56.847656 41.039062 C 56.835938 41.0625 56.828125 41.089844 56.828125 41.121094 M 56.535156 41.121094 C 56.535156 41.050781 56.550781 40.988281 56.578125 40.929688 C 56.609375 40.871094 56.648438 40.816406 56.695312 40.773438 C 56.742188 40.730469 56.800781 40.695312 56.867188 40.671875 C 56.933594 40.644531 57.003906 40.628906 57.078125 40.628906 C 57.15625 40.628906 57.230469 40.644531 57.296875 40.671875 C 57.363281 40.695312 57.421875 40.730469 57.46875 40.773438 C 57.519531 40.816406 57.558594 40.871094 57.585938 40.929688 C 57.617188 40.988281 57.632812 41.050781 57.632812 41.121094 C 57.632812 41.1875 57.617188 41.25 57.585938 41.308594 C 57.558594 41.367188 57.519531 41.421875 57.46875 41.464844 C 57.421875 41.511719 57.363281 41.546875 57.296875 41.570312 C 57.230469 41.59375 57.15625 41.605469 57.078125 41.605469 C 57.003906 41.605469 56.933594 41.59375 56.867188 41.570312 C 56.800781 41.546875 56.742188 41.511719 56.695312 41.464844 C 56.648438 41.421875 56.609375 41.367188 56.578125 41.308594 C 56.550781 41.25 56.535156 41.1875 56.535156 41.121094 M 56.519531 42.371094 C 56.519531 42.304688 56.535156 42.242188 56.566406 42.183594 C 56.59375 42.125 56.632812 42.074219 56.683594 42.027344 C 56.730469 41.984375 56.789062 41.949219 56.859375 41.921875 C 56.925781 41.898438 56.996094 41.882812 57.074219 41.882812 C 57.152344 41.882812 57.222656 41.898438 57.292969 41.921875 C 57.359375 41.949219 57.417969 41.984375 57.464844 42.027344 C 57.515625 42.074219 57.554688 42.125 57.582031 42.183594 C 57.613281 42.242188 57.625 42.304688 57.625 42.371094 C 57.625 42.4375 57.613281 42.5 57.582031 42.558594 C 57.554688 42.617188 57.515625 42.671875 57.464844 42.714844 C 57.417969 42.761719 57.359375 42.796875 57.292969 42.820312 C 57.222656 42.84375 57.152344 42.851562 57.074219 42.851562 C 56.996094 42.851562 56.925781 42.84375 56.859375 42.820312 C 56.789062 42.796875 56.730469 42.761719 56.683594 42.714844 C 56.632812 42.671875 56.59375 42.617188 56.566406 42.558594 C 56.535156 42.5 56.519531 42.4375 56.519531 42.371094 "/>
<path style=" stroke:none;fill-rule:nonzero;fill:rgb(18.823529%,24.313725%,28.235294%);fill-opacity:1;" d="M 22.65625 4.039062 L 22.65625 24.730469 L 15.054688 24.730469 C 10.839844 24.730469 7.410156 21.199219 7.410156 16.941406 C 7.410156 12.6875 10.839844 9.1875 15.054688 9.1875 L 20.664062 9.191406 L 20.664062 4 L 15.054688 4 C 7.988281 4 2.238281 9.808594 2.238281 16.941406 C 2.238281 24.078125 7.988281 29.921875 15.054688 29.921875 L 27.730469 29.921875 L 27.730469 9.222656 L 35.054688 9.222656 C 39.269531 9.222656 42.699219 12.726562 42.699219 16.980469 C 42.699219 21.238281 39.269531 24.699219 35.054688 24.699219 L 29.667969 24.699219 L 29.667969 29.921875 L 35.054688 29.921875 C 42.117188 29.921875 47.867188 24.121094 47.871094 16.992188 L 47.875 16.992188 C 47.875 16.957031 47.871094 16.921875 47.871094 16.886719 C 47.871094 16.882812 47.871094 16.878906 47.871094 16.875 C 47.996094 12.210938 51.453125 9.21875 55.636719 9.21875 C 57.335938 9.21875 58.898438 9.792969 60.164062 10.746094 L 63.820312 7.054688 C 61.605469 5.171875 58.75 4.035156 55.636719 4.035156 C 51.425781 4.035156 47.683594 6.113281 45.367188 9.308594 C 43.03125 6.117188 39.277344 4.039062 35.054688 4.039062 Z M 22.65625 4.039062 "/>
<path style=" stroke:none;fill-rule:nonzero;fill:rgb(38.431373%,54.509804%,9.411765%);fill-opacity:1;" d="M 67.996094 16.089844 L 57.972656 16.089844 L 57.972656 19.894531 L 62.425781 19.894531 C 61.335938 22.777344 58.578125 24.835938 55.339844 24.835938 C 52.753906 24.835938 50.476562 23.515625 49.105469 21.511719 C 48.542969 23.308594 47.652344 24.957031 46.515625 26.390625 C 48.804688 28.628906 51.910156 30.019531 55.339844 30.019531 C 58.8125 30.019531 61.957031 28.609375 64.257812 26.328125 L 64.257812 29.972656 L 68.0625 29.972656 L 68.0625 16.089844 Z M 67.996094 16.089844 "/>
</g>
</svg>
